<svg xmlns="http://www.w3.org/2000/svg" xmlns:xlink="http://www.w3.org/1999/xlink" width="500" zoomAndPan="magnify" viewBox="0 0 375 374.999991" height="500" preserveAspectRatio="xMidYMid meet" version="1.0"><defs><g/><clipPath id="b936c66146"><path d="M 171 8.464844 L 204 8.464844 L 204 63 L 171 63 Z M 171 8.464844 " clip-rule="nonzero"/></clipPath><clipPath id="8aa56b7708"><path d="M 48.097656 298 L 327.097656 298 L 327.097656 319.714844 L 48.097656 319.714844 Z M 48.097656 298 " clip-rule="nonzero"/></clipPath><clipPath id="2d54e44633"><path d="M 48.097656 255 L 327.097656 255 L 327.097656 277 L 48.097656 277 Z M 48.097656 255 " clip-rule="nonzero"/></clipPath></defs><path fill="#c39c5e" d="M 246.617188 147.410156 L 128.578125 147.410156 L 128.578125 19.246094 L 246.617188 19.246094 L 246.617188 147.410156 " fill-opacity="1" fill-rule="nonzero"/><path fill="#836138" d="M 246.617188 147.410156 L 128.578125 147.410156 C 189.464844 136.535156 236.558594 87.960938 245.507812 26.769531 L 246.617188 19.246094 L 246.617188 147.410156 " fill-opacity="1" fill-rule="nonzero"/><g clip-path="url(#b936c66146)"><path fill="#e8d8b8" d="M 203.695312 62.164062 L 187.597656 46.070312 L 171.5 62.164062 L 171.5 8.519531 L 203.695312 8.519531 L 203.695312 62.164062 " fill-opacity="1" fill-rule="nonzero"/></g><path fill="#836138" d="M 198.328125 88.988281 L 176.867188 88.988281 L 176.867188 78.257812 L 198.328125 78.257812 L 198.328125 88.988281 " fill-opacity="1" fill-rule="nonzero"/><path fill="#c39c5e" d="M 80.289062 302.816406 L 58.828125 302.816406 L 58.828125 272.746094 L 80.289062 272.746094 L 80.289062 302.816406 " fill-opacity="1" fill-rule="nonzero"/><path fill="#c39c5e" d="M 198.328125 302.816406 L 176.867188 302.816406 L 176.867188 272.746094 L 198.328125 272.746094 L 198.328125 302.816406 " fill-opacity="1" fill-rule="nonzero"/><path fill="#c39c5e" d="M 316.367188 302.816406 L 294.90625 302.816406 L 294.90625 272.746094 L 316.367188 272.746094 L 316.367188 302.816406 " fill-opacity="1" fill-rule="nonzero"/><path fill="#c39c5e" d="M 305.636719 262.75 L 69.558594 262.75 L 69.558594 137.269531 L 305.636719 137.269531 L 305.636719 262.75 " fill-opacity="1" fill-rule="nonzero"/><path fill="#836138" d="M 187.597656 262.75 L 69.558594 262.75 C 130.546875 251.578125 177.707031 202.921875 186.949219 141.625 L 187.597656 137.269531 L 187.597656 262.75 " fill-opacity="1" fill-rule="nonzero"/><path fill="#836138" d="M 305.636719 262.75 L 187.597656 262.75 C 250.535156 253.90625 299.242188 203.089844 305.382812 139.824219 L 305.636719 137.269531 L 305.636719 262.75 " fill-opacity="1" fill-rule="nonzero"/><path fill="#e8d8b8" d="M 262.714844 190.914062 L 246.617188 174.820312 L 230.519531 190.914062 L 230.519531 137.269531 L 262.714844 137.269531 L 262.714844 190.914062 " fill-opacity="1" fill-rule="nonzero"/><path fill="#e8d8b8" d="M 144.675781 190.914062 L 128.578125 174.820312 L 112.480469 190.914062 L 112.480469 137.269531 L 144.675781 137.269531 L 144.675781 190.914062 " fill-opacity="1" fill-rule="nonzero"/><path fill="#836138" d="M 257.347656 217.738281 L 235.886719 217.738281 L 235.886719 207.007812 L 257.347656 207.007812 L 257.347656 217.738281 " fill-opacity="1" fill-rule="nonzero"/><path fill="#836138" d="M 139.308594 217.738281 L 117.847656 217.738281 L 117.847656 207.007812 L 139.308594 207.007812 L 139.308594 217.738281 " fill-opacity="1" fill-rule="nonzero"/><g clip-path="url(#8aa56b7708)"><path fill="#fcd472" d="M 327.097656 319.664062 L 48.097656 319.664062 L 48.097656 298.207031 L 327.097656 298.207031 L 327.097656 319.664062 " fill-opacity="1" fill-rule="nonzero"/></g><g clip-path="url(#2d54e44633)"><path fill="#fcd472" d="M 327.097656 276.746094 L 48.097656 276.746094 L 48.097656 255.289062 L 327.097656 255.289062 L 327.097656 276.746094 " fill-opacity="1" fill-rule="nonzero"/></g><g fill="#000000" fill-opacity="1"><g transform="translate(95.554686, 358.294928)"><g><path d="M 20.046875 0 L 3.59375 0 L 3.59375 -28.5625 L 20.046875 -28.5625 L 20.046875 -23.59375 L 9.65625 -23.59375 L 9.65625 -17.328125 L 19.3125 -17.328125 L 19.3125 -12.359375 L 9.65625 -12.359375 L 9.65625 -5 L 20.046875 -5 Z M 20.046875 0 "/></g></g></g><g fill="#000000" fill-opacity="1"><g transform="translate(117.954846, 358.294928)"><g><path d="M 20.453125 -7.9375 C 20.453125 -5.351562 19.523438 -3.316406 17.671875 -1.828125 C 15.816406 -0.347656 13.234375 0.390625 9.921875 0.390625 C 6.878906 0.390625 4.1875 -0.179688 1.84375 -1.328125 L 1.84375 -6.953125 C 3.769531 -6.097656 5.398438 -5.492188 6.734375 -5.140625 C 8.066406 -4.785156 9.285156 -4.609375 10.390625 -4.609375 C 11.722656 -4.609375 12.742188 -4.863281 13.453125 -5.375 C 14.160156 -5.882812 14.515625 -6.640625 14.515625 -7.640625 C 14.515625 -8.203125 14.359375 -8.695312 14.046875 -9.125 C 13.734375 -9.5625 13.273438 -9.984375 12.671875 -10.390625 C 12.066406 -10.796875 10.832031 -11.441406 8.96875 -12.328125 C 7.21875 -13.148438 5.90625 -13.9375 5.03125 -14.6875 C 4.164062 -15.445312 3.472656 -16.328125 2.953125 -17.328125 C 2.429688 -18.328125 2.171875 -19.5 2.171875 -20.84375 C 2.171875 -23.363281 3.023438 -25.347656 4.734375 -26.796875 C 6.453125 -28.242188 8.820312 -28.96875 11.84375 -28.96875 C 13.320312 -28.96875 14.734375 -28.789062 16.078125 -28.4375 C 17.429688 -28.082031 18.84375 -27.585938 20.3125 -26.953125 L 18.359375 -22.25 C 16.835938 -22.875 15.578125 -23.304688 14.578125 -23.546875 C 13.585938 -23.796875 12.609375 -23.921875 11.640625 -23.921875 C 10.492188 -23.921875 9.613281 -23.65625 9 -23.125 C 8.394531 -22.59375 8.09375 -21.894531 8.09375 -21.03125 C 8.09375 -20.5 8.210938 -20.035156 8.453125 -19.640625 C 8.703125 -19.242188 9.097656 -18.859375 9.640625 -18.484375 C 10.179688 -18.117188 11.460938 -17.453125 13.484375 -16.484375 C 16.148438 -15.210938 17.976562 -13.929688 18.96875 -12.640625 C 19.957031 -11.359375 20.453125 -9.789062 20.453125 -7.9375 Z M 20.453125 -7.9375 "/></g></g></g><g fill="#000000" fill-opacity="1"><g transform="translate(139.983943, 358.294928)"><g><path d="M 14.609375 0 L 8.5625 0 L 8.5625 -23.515625 L 0.796875 -23.515625 L 0.796875 -28.5625 L 22.359375 -28.5625 L 22.359375 -23.515625 L 14.609375 -23.515625 Z M 14.609375 0 "/></g></g></g><g fill="#000000" fill-opacity="1"><g transform="translate(163.145742, 358.294928)"><g><path d="M 29.515625 -14.3125 C 29.515625 -9.59375 28.34375 -5.960938 26 -3.421875 C 23.65625 -0.878906 20.296875 0.390625 15.921875 0.390625 C 11.546875 0.390625 8.1875 -0.878906 5.84375 -3.421875 C 3.5 -5.960938 2.328125 -9.609375 2.328125 -14.359375 C 2.328125 -19.109375 3.5 -22.734375 5.84375 -25.234375 C 8.195312 -27.742188 11.566406 -29 15.953125 -29 C 20.347656 -29 23.707031 -27.734375 26.03125 -25.203125 C 28.351562 -22.679688 29.515625 -19.050781 29.515625 -14.3125 Z M 8.671875 -14.3125 C 8.671875 -11.125 9.273438 -8.722656 10.484375 -7.109375 C 11.703125 -5.492188 13.515625 -4.6875 15.921875 -4.6875 C 20.753906 -4.6875 23.171875 -7.894531 23.171875 -14.3125 C 23.171875 -20.75 20.765625 -23.96875 15.953125 -23.96875 C 13.546875 -23.96875 11.726562 -23.15625 10.5 -21.53125 C 9.28125 -19.914062 8.671875 -17.507812 8.671875 -14.3125 Z M 8.671875 -14.3125 "/></g></g></g><g fill="#000000" fill-opacity="1"><g transform="translate(194.978568, 358.294928)"><g><path d="M 29.515625 -14.3125 C 29.515625 -10.957031 28.914062 -8.144531 27.71875 -5.875 C 26.53125 -3.601562 24.785156 -1.9375 22.484375 -0.875 L 29.359375 6.796875 L 21.609375 6.796875 L 16.375 0.390625 L 15.921875 0.390625 C 11.546875 0.390625 8.1875 -0.878906 5.84375 -3.421875 C 3.5 -5.960938 2.328125 -9.609375 2.328125 -14.359375 C 2.328125 -19.109375 3.5 -22.734375 5.84375 -25.234375 C 8.195312 -27.742188 11.566406 -29 15.953125 -29 C 20.347656 -29 23.707031 -27.734375 26.03125 -25.203125 C 28.351562 -22.679688 29.515625 -19.050781 29.515625 -14.3125 Z M 8.671875 -14.3125 C 8.671875 -11.125 9.273438 -8.722656 10.484375 -7.109375 C 11.703125 -5.492188 13.515625 -4.6875 15.921875 -4.6875 C 20.753906 -4.6875 23.171875 -7.894531 23.171875 -14.3125 C 23.171875 -20.75 20.765625 -23.96875 15.953125 -23.96875 C 13.546875 -23.96875 11.726562 -23.15625 10.5 -21.53125 C 9.28125 -19.914062 8.671875 -17.507812 8.671875 -14.3125 Z M 8.671875 -14.3125 "/></g></g></g><g fill="#000000" fill-opacity="1"><g transform="translate(226.811394, 358.294928)"><g><path d="M 26.84375 -28.5625 L 26.84375 -10.078125 C 26.84375 -7.972656 26.367188 -6.125 25.421875 -4.53125 C 24.472656 -2.945312 23.109375 -1.726562 21.328125 -0.875 C 19.546875 -0.03125 17.4375 0.390625 15 0.390625 C 11.332031 0.390625 8.484375 -0.546875 6.453125 -2.421875 C 4.421875 -4.304688 3.40625 -6.882812 3.40625 -10.15625 L 3.40625 -28.5625 L 9.4375 -28.5625 L 9.4375 -11.078125 C 9.4375 -8.878906 9.878906 -7.265625 10.765625 -6.234375 C 11.648438 -5.203125 13.113281 -4.6875 15.15625 -4.6875 C 17.132812 -4.6875 18.566406 -5.203125 19.453125 -6.234375 C 20.347656 -7.273438 20.796875 -8.898438 20.796875 -11.109375 L 20.796875 -28.5625 Z M 26.84375 -28.5625 "/></g></g></g><g fill="#000000" fill-opacity="1"><g transform="translate(257.042814, 358.294928)"><g><path d="M 20.046875 0 L 3.59375 0 L 3.59375 -28.5625 L 20.046875 -28.5625 L 20.046875 -23.59375 L 9.65625 -23.59375 L 9.65625 -17.328125 L 19.3125 -17.328125 L 19.3125 -12.359375 L 9.65625 -12.359375 L 9.65625 -5 L 20.046875 -5 Z M 20.046875 0 "/></g></g></g></svg>