<svg xmlns="http://www.w3.org/2000/svg" xmlns:xlink="http://www.w3.org/1999/xlink" width="500" zoomAndPan="magnify" viewBox="0 0 375 299.999988" height="400" preserveAspectRatio="xMidYMid meet" version="1.0"><path fill="#13889b" d="M 82.132812 275.832031 C 82.828125 275.59375 83.476562 275.253906 84.066406 274.8125 C 84.660156 274.375 85.167969 273.855469 85.597656 273.253906 C 86.027344 272.652344 86.355469 272.003906 86.578125 271.300781 C 86.804688 270.597656 86.917969 269.878906 86.917969 269.140625 C 86.917969 268.402344 86.804688 267.683594 86.578125 266.980469 C 86.355469 266.277344 86.027344 265.625 85.597656 265.027344 C 85.167969 264.425781 84.660156 263.90625 84.066406 263.464844 C 83.476562 263.023438 82.828125 262.6875 82.132812 262.449219 Z M 82.132812 275.832031 " fill-opacity="1" fill-rule="nonzero"/><path fill="#13889b" d="M 72.640625 250.152344 C 72.644531 250.886719 72.761719 251.605469 72.984375 252.300781 C 73.210938 253 73.535156 253.648438 73.960938 254.246094 C 74.382812 254.84375 74.890625 255.367188 75.472656 255.808594 C 76.058594 256.253906 76.695312 256.597656 77.386719 256.847656 L 77.386719 243.460938 C 76.695312 243.710938 76.058594 244.054688 75.472656 244.5 C 74.890625 244.941406 74.382812 245.464844 73.960938 246.0625 C 73.535156 246.660156 73.210938 247.308594 72.984375 248.007812 C 72.761719 248.703125 72.644531 249.421875 72.640625 250.152344 Z M 72.640625 250.152344 " fill-opacity="1" fill-rule="nonzero"/><path fill="#13889b" d="M 129.597656 128.691406 C 130.292969 128.453125 130.941406 128.113281 131.53125 127.671875 C 132.125 127.234375 132.632812 126.714844 133.0625 126.113281 C 133.492188 125.511719 133.820312 124.863281 134.042969 124.160156 C 134.269531 123.457031 134.382812 122.738281 134.382812 122 C 134.382812 121.261719 134.269531 120.542969 134.042969 119.839844 C 133.820312 119.136719 133.492188 118.484375 133.0625 117.886719 C 132.632812 117.285156 132.125 116.765625 131.53125 116.324219 C 130.941406 115.882812 130.292969 115.546875 129.597656 115.308594 Z M 129.597656 128.691406 " fill-opacity="1" fill-rule="nonzero"/><path fill="#13889b" d="M 120.105469 103.011719 C 120.109375 103.746094 120.226562 104.464844 120.449219 105.160156 C 120.675781 105.859375 121 106.507812 121.425781 107.105469 C 121.847656 107.703125 122.351562 108.226562 122.9375 108.667969 C 123.523438 109.113281 124.160156 109.457031 124.851562 109.707031 L 124.851562 96.320312 C 124.160156 96.570312 123.523438 96.914062 122.9375 97.359375 C 122.351562 97.800781 121.847656 98.324219 121.425781 98.921875 C 121 99.519531 120.675781 100.167969 120.449219 100.867188 C 120.226562 101.5625 120.109375 102.28125 120.105469 103.011719 Z M 120.105469 103.011719 " fill-opacity="1" fill-rule="nonzero"/><path fill="#13889b" d="M 253.003906 204.636719 C 253.703125 204.398438 254.347656 204.058594 254.941406 203.617188 C 255.53125 203.175781 256.042969 202.65625 256.472656 202.058594 C 256.898438 201.457031 257.226562 200.804688 257.453125 200.101562 C 257.679688 199.402344 257.789062 198.679688 257.789062 197.941406 C 257.789062 197.207031 257.679688 196.484375 257.453125 195.78125 C 257.226562 195.082031 256.898438 194.429688 256.472656 193.828125 C 256.042969 193.230469 255.53125 192.707031 254.941406 192.269531 C 254.347656 191.828125 253.703125 191.488281 253.003906 191.25 Z M 253.003906 204.636719 " fill-opacity="1" fill-rule="nonzero"/><path fill="#13889b" d="M 243.511719 178.957031 C 243.515625 179.691406 243.632812 180.40625 243.859375 181.105469 C 244.082031 181.804688 244.410156 182.453125 244.832031 183.050781 C 245.257812 183.648438 245.761719 184.167969 246.347656 184.613281 C 246.929688 185.054688 247.566406 185.402344 248.257812 185.648438 L 248.257812 172.265625 C 247.566406 172.511719 246.929688 172.859375 246.347656 173.300781 C 245.761719 173.746094 245.257812 174.265625 244.832031 174.863281 C 244.410156 175.460938 244.082031 176.109375 243.859375 176.808594 C 243.632812 177.507812 243.515625 178.222656 243.511719 178.957031 Z M 243.511719 178.957031 " fill-opacity="1" fill-rule="nonzero"/><path fill="#13889b" d="M 300.46875 57.496094 C 301.167969 57.257812 301.8125 56.917969 302.40625 56.476562 C 302.996094 56.035156 303.507812 55.515625 303.9375 54.917969 C 304.363281 54.316406 304.691406 53.664062 304.917969 52.960938 C 305.144531 52.261719 305.253906 51.539062 305.253906 50.800781 C 305.253906 50.066406 305.144531 49.34375 304.917969 48.640625 C 304.691406 47.941406 304.363281 47.289062 303.9375 46.6875 C 303.507812 46.089844 302.996094 45.566406 302.40625 45.128906 C 301.8125 44.6875 301.167969 44.347656 300.46875 44.109375 Z M 300.46875 57.496094 " fill-opacity="1" fill-rule="nonzero"/><path fill="#13889b" d="M 298.097656 3.335938 C 296.851562 3.292969 295.609375 3.308594 294.367188 3.386719 C 293.125 3.464844 291.890625 3.605469 290.664062 3.804688 C 289.433594 4.003906 288.21875 4.261719 287.015625 4.582031 C 285.8125 4.898438 284.628906 5.277344 283.460938 5.710938 C 282.296875 6.144531 281.15625 6.636719 280.035156 7.183594 C 278.917969 7.730469 277.832031 8.332031 276.773438 8.984375 C 275.714844 9.640625 274.691406 10.34375 273.699219 11.097656 C 272.710938 11.851562 271.761719 12.65625 270.851562 13.503906 C 269.9375 14.351562 269.074219 15.242188 268.25 16.175781 C 267.425781 17.109375 266.652344 18.078125 265.921875 19.089844 C 265.195312 20.097656 264.519531 21.140625 263.894531 22.214844 C 263.269531 23.292969 262.695312 24.398438 262.179688 25.527344 C 261.664062 26.660156 261.203125 27.816406 260.800781 28.992188 C 260.394531 30.167969 260.050781 31.363281 259.765625 32.574219 C 259.480469 33.785156 259.253906 35.007812 259.085938 36.242188 C 258.921875 37.476562 258.816406 38.714844 258.773438 39.957031 C 258.726562 41.199219 258.746094 42.441406 258.820312 43.683594 C 258.898438 44.925781 259.039062 46.164062 259.238281 47.390625 C 259.4375 48.617188 259.695312 49.835938 260.015625 51.039062 C 260.332031 52.242188 260.710938 53.425781 261.144531 54.589844 C 261.578125 55.757812 262.070312 56.898438 262.617188 58.015625 C 263.164062 59.132812 263.765625 60.222656 264.417969 61.28125 C 265.074219 62.339844 265.777344 63.363281 266.53125 64.351562 C 267.289062 65.34375 268.089844 66.292969 268.9375 67.203125 C 269.785156 68.113281 270.675781 68.980469 271.609375 69.804688 C 272.542969 70.628906 273.511719 71.402344 274.523438 72.128906 C 275.53125 72.859375 276.574219 73.535156 277.652344 74.160156 C 278.726562 74.785156 279.832031 75.355469 280.960938 75.875 C 282.09375 76.390625 283.25 76.851562 284.425781 77.253906 C 285.605469 77.65625 286.796875 78 288.007812 78.289062 C 289.21875 78.574219 290.441406 78.800781 291.675781 78.964844 C 292.910156 79.132812 294.148438 79.238281 295.390625 79.28125 L 250.632812 150.476562 C 249.285156 150.40625 247.941406 150.40625 246.597656 150.476562 L 165.195312 112.125 C 165.183594 110.957031 165.117188 109.792969 165 108.628906 C 164.882812 107.46875 164.707031 106.3125 164.484375 105.164062 C 164.257812 104.019531 163.980469 102.882812 163.648438 101.761719 C 163.320312 100.640625 162.9375 99.539062 162.503906 98.453125 C 162.074219 97.367188 161.59375 96.304688 161.0625 95.261719 C 160.53125 94.21875 159.953125 93.203125 159.328125 92.214844 C 158.707031 91.226562 158.039062 90.269531 157.324219 89.34375 C 156.613281 88.417969 155.859375 87.527344 155.0625 86.667969 C 154.269531 85.8125 153.4375 84.996094 152.566406 84.214844 C 151.695312 83.433594 150.789062 82.695312 149.851562 82 C 148.914062 81.304688 147.945312 80.652344 146.945312 80.042969 C 145.945312 79.4375 144.921875 78.878906 143.871094 78.363281 C 142.820312 77.851562 141.75 77.390625 140.65625 76.976562 C 139.5625 76.5625 138.453125 76.199219 137.328125 75.890625 C 136.199219 75.578125 135.0625 75.320312 133.910156 75.113281 C 132.761719 74.910156 131.601562 74.757812 130.4375 74.65625 C 129.273438 74.558594 128.105469 74.515625 126.9375 74.523438 C 125.769531 74.53125 124.601562 74.59375 123.441406 74.710938 C 122.277344 74.828125 121.121094 74.996094 119.976562 75.21875 C 118.828125 75.441406 117.691406 75.71875 116.570312 76.046875 C 115.449219 76.375 114.34375 76.753906 113.257812 77.183594 C 112.171875 77.613281 111.105469 78.09375 110.0625 78.621094 C 109.019531 79.148438 108.003906 79.722656 107.015625 80.347656 C 106.027344 80.96875 105.066406 81.632812 104.140625 82.34375 C 103.210938 83.054688 102.316406 83.808594 101.460938 84.601562 C 100.601562 85.394531 99.78125 86.226562 99 87.09375 C 98.21875 87.960938 97.476562 88.867188 96.777344 89.800781 C 96.082031 90.738281 95.425781 91.707031 94.816406 92.703125 C 94.207031 93.703125 93.644531 94.726562 93.132812 95.773438 C 92.617188 96.824219 92.152344 97.894531 91.738281 98.988281 C 91.320312 100.082031 90.957031 101.191406 90.644531 102.316406 C 90.328125 103.441406 90.070312 104.578125 89.859375 105.730469 C 89.652344 106.878906 89.496094 108.035156 89.394531 109.203125 C 89.296875 110.367188 89.246094 111.53125 89.253906 112.703125 C 89.261719 113.871094 89.320312 115.035156 89.433594 116.199219 C 89.546875 117.363281 89.714844 118.519531 89.9375 119.664062 C 90.15625 120.8125 90.429688 121.949219 90.757812 123.070312 C 91.082031 124.195312 91.457031 125.300781 91.886719 126.386719 C 92.3125 127.472656 92.789062 128.539062 93.316406 129.582031 C 93.84375 130.628906 94.417969 131.644531 95.035156 132.636719 C 95.65625 133.625 96.320312 134.585938 97.027344 135.515625 C 97.738281 136.445312 98.488281 137.339844 99.277344 138.199219 C 100.070312 139.0625 100.898438 139.882812 101.765625 140.667969 C 102.632812 141.449219 103.535156 142.191406 104.472656 142.890625 C 105.40625 143.59375 106.371094 144.25 107.367188 144.859375 C 108.367188 145.472656 109.386719 146.035156 110.4375 146.550781 C 111.484375 147.070312 112.554688 147.535156 113.644531 147.953125 C 114.738281 148.371094 115.84375 148.738281 116.972656 149.054688 L 80.660156 221.675781 L 79.757812 221.675781 C 78.945312 221.667969 78.128906 221.6875 77.316406 221.730469 C 76.5 221.777344 75.691406 221.847656 74.878906 221.945312 C 74.070312 222.042969 73.265625 222.164062 72.464844 222.3125 C 71.664062 222.460938 70.867188 222.632812 70.078125 222.832031 C 69.285156 223.03125 68.503906 223.253906 67.726562 223.503906 C 66.949219 223.753906 66.183594 224.027344 65.425781 224.324219 C 64.667969 224.625 63.917969 224.945312 63.179688 225.289062 C 62.441406 225.636719 61.714844 226.003906 61 226.398438 C 60.285156 226.789062 59.585938 227.203125 58.898438 227.640625 C 58.207031 228.078125 57.535156 228.535156 56.875 229.015625 C 56.21875 229.496094 55.574219 229.996094 54.949219 230.515625 C 54.320312 231.039062 53.710938 231.578125 53.117188 232.136719 C 52.527344 232.699219 51.953125 233.277344 51.398438 233.875 C 50.839844 234.46875 50.304688 235.082031 49.789062 235.714844 C 49.273438 236.34375 48.777344 236.992188 48.300781 237.652344 C 47.828125 238.316406 47.375 238.992188 46.941406 239.683594 C 46.511719 240.375 46.101562 241.078125 45.714844 241.796875 C 45.328125 242.515625 44.964844 243.242188 44.621094 243.984375 C 44.28125 244.722656 43.964844 245.476562 43.675781 246.234375 C 43.382812 246.996094 43.113281 247.765625 42.871094 248.542969 C 42.628906 249.320312 42.410156 250.105469 42.214844 250.898438 C 42.023438 251.691406 41.855469 252.488281 41.710938 253.289062 C 41.570312 254.09375 41.453125 254.898438 41.363281 255.710938 C 41.273438 256.519531 41.207031 257.332031 41.167969 258.144531 C 41.128906 258.960938 41.117188 259.773438 41.128906 260.589844 C 41.140625 261.402344 41.179688 262.21875 41.246094 263.03125 C 41.3125 263.84375 41.402344 264.652344 41.519531 265.460938 C 41.636719 266.265625 41.777344 267.066406 41.945312 267.867188 C 42.113281 268.664062 42.304688 269.453125 42.523438 270.238281 C 42.742188 271.023438 42.984375 271.800781 43.253906 272.574219 C 43.523438 273.34375 43.8125 274.101562 44.128906 274.855469 C 44.445312 275.605469 44.789062 276.34375 45.152344 277.074219 C 45.515625 277.804688 45.902344 278.519531 46.3125 279.226562 C 46.722656 279.929688 47.152344 280.621094 47.605469 281.296875 C 48.058594 281.976562 48.535156 282.636719 49.03125 283.285156 C 49.527344 283.929688 50.042969 284.5625 50.578125 285.175781 C 51.113281 285.789062 51.671875 286.386719 52.246094 286.964844 C 52.820312 287.542969 53.410156 288.101562 54.019531 288.640625 C 54.628906 289.183594 55.257812 289.703125 55.898438 290.203125 C 56.542969 290.703125 57.203125 291.183594 57.875 291.644531 C 58.550781 292.101562 59.238281 292.539062 59.9375 292.953125 C 60.640625 293.367188 61.355469 293.761719 62.082031 294.128906 C 62.808594 294.5 63.546875 294.84375 64.292969 295.164062 C 65.042969 295.488281 65.800781 295.785156 66.570312 296.058594 C 67.335938 296.332031 68.113281 296.582031 68.898438 296.804688 C 69.679688 297.03125 70.46875 297.230469 71.265625 297.402344 C 72.0625 297.574219 72.863281 297.722656 73.671875 297.847656 C 74.476562 297.96875 75.285156 298.066406 76.097656 298.136719 C 76.910156 298.207031 77.722656 298.253906 78.535156 298.269531 C 79.351562 298.289062 80.167969 298.285156 80.980469 298.25 C 81.796875 298.21875 82.609375 298.160156 83.417969 298.074219 C 84.230469 297.988281 85.035156 297.878906 85.839844 297.742188 C 86.644531 297.605469 87.441406 297.441406 88.234375 297.253906 C 89.027344 297.066406 89.816406 296.855469 90.59375 296.617188 C 91.375 296.378906 92.144531 296.117188 92.910156 295.832031 C 93.671875 295.542969 94.425781 295.234375 95.167969 294.898438 C 95.910156 294.5625 96.640625 294.207031 97.363281 293.824219 C 98.082031 293.441406 98.789062 293.039062 99.484375 292.609375 C 100.179688 292.183594 100.859375 291.734375 101.523438 291.265625 C 102.191406 290.796875 102.839844 290.304688 103.476562 289.792969 C 104.109375 289.28125 104.726562 288.75 105.328125 288.199219 C 105.929688 287.648438 106.511719 287.078125 107.074219 286.488281 C 107.636719 285.902344 108.183594 285.296875 108.707031 284.671875 C 109.234375 284.050781 109.738281 283.410156 110.222656 282.753906 C 110.707031 282.101562 111.171875 281.429688 111.613281 280.746094 C 112.054688 280.058594 112.476562 279.363281 112.871094 278.648438 C 113.269531 277.9375 113.644531 277.214844 113.996094 276.480469 C 114.347656 275.742188 114.671875 274.996094 114.976562 274.242188 C 115.28125 273.484375 115.558594 272.71875 115.816406 271.945312 C 116.070312 271.171875 116.300781 270.390625 116.503906 269.601562 C 116.707031 268.8125 116.886719 268.015625 117.042969 267.214844 C 117.195312 266.414062 117.324219 265.613281 117.425781 264.804688 C 117.53125 263.996094 117.605469 263.183594 117.65625 262.371094 C 117.707031 261.554688 117.734375 260.742188 117.730469 259.925781 C 117.730469 259.113281 117.703125 258.296875 117.652344 257.484375 C 117.597656 256.671875 117.519531 255.859375 117.414062 255.050781 C 117.308594 254.242188 117.179688 253.4375 117.023438 252.640625 C 116.867188 251.839844 116.683594 251.046875 116.476562 250.257812 C 116.269531 249.46875 116.039062 248.6875 115.78125 247.914062 C 115.527344 247.140625 115.246094 246.375 114.9375 245.621094 C 114.632812 244.863281 114.304688 244.121094 113.953125 243.382812 C 113.597656 242.648438 113.222656 241.925781 112.824219 241.214844 C 112.421875 240.507812 112.003906 239.808594 111.558594 239.125 C 111.113281 238.441406 110.648438 237.773438 110.164062 237.117188 C 109.675781 236.464844 109.171875 235.828125 108.644531 235.207031 C 108.117188 234.582031 107.570312 233.980469 107.003906 233.390625 C 106.4375 232.804688 105.855469 232.238281 105.253906 231.6875 C 104.648438 231.136719 104.03125 230.609375 103.394531 230.097656 C 102.757812 229.589844 102.109375 229.097656 101.441406 228.632812 C 100.773438 228.164062 100.09375 227.714844 99.398438 227.292969 C 98.703125 226.867188 97.992188 226.464844 97.273438 226.085938 C 96.550781 225.703125 95.816406 225.347656 95.074219 225.015625 C 94.332031 224.683594 93.578125 224.375 92.8125 224.089844 C 92.050781 223.804688 91.277344 223.542969 90.496094 223.308594 C 89.714844 223.074219 88.929688 222.863281 88.136719 222.675781 C 87.34375 222.492188 86.542969 222.332031 85.738281 222.199219 L 121.765625 150.050781 C 123.574219 150.3125 125.394531 150.457031 127.222656 150.476562 C 128.367188 150.476562 129.507812 150.425781 130.648438 150.320312 C 131.785156 150.214844 132.917969 150.0625 134.042969 149.855469 C 135.167969 149.648438 136.28125 149.390625 137.382812 149.085938 C 138.484375 148.777344 139.570312 148.421875 140.636719 148.015625 C 141.707031 147.613281 142.757812 147.160156 143.785156 146.660156 C 144.8125 146.160156 145.816406 145.613281 146.796875 145.023438 C 147.777344 144.433594 148.726562 143.800781 149.648438 143.125 C 150.570312 142.445312 151.460938 141.730469 152.316406 140.972656 C 153.175781 140.21875 153.996094 139.421875 154.78125 138.59375 C 155.566406 137.761719 156.3125 136.898438 157.023438 136 C 157.730469 135.101562 158.394531 134.171875 159.019531 133.210938 C 159.640625 132.253906 160.222656 131.269531 160.753906 130.257812 C 161.289062 129.246094 161.777344 128.214844 162.21875 127.160156 C 162.660156 126.105469 163.054688 125.03125 163.398438 123.941406 C 163.742188 122.851562 164.035156 121.746094 164.28125 120.628906 C 164.527344 119.511719 164.71875 118.386719 164.863281 117.253906 L 238.957031 152.375 C 238.222656 152.613281 237.5 152.871094 236.785156 153.148438 C 236.070312 153.429688 235.363281 153.730469 234.664062 154.050781 C 233.96875 154.375 233.28125 154.71875 232.605469 155.082031 C 231.929688 155.445312 231.261719 155.832031 230.609375 156.234375 C 229.957031 156.640625 229.316406 157.0625 228.6875 157.507812 C 228.0625 157.949219 227.449219 158.410156 226.847656 158.890625 C 226.25 159.371094 225.664062 159.871094 225.097656 160.386719 C 224.527344 160.902344 223.972656 161.4375 223.4375 161.984375 C 222.898438 162.535156 222.378906 163.101562 221.878906 163.683594 C 221.375 164.261719 220.890625 164.859375 220.425781 165.46875 C 219.957031 166.078125 219.511719 166.703125 219.082031 167.339844 C 218.652344 167.980469 218.246094 168.628906 217.855469 169.292969 C 217.46875 169.953125 217.097656 170.628906 216.75 171.3125 C 216.402344 171.996094 216.074219 172.691406 215.769531 173.398438 C 215.464844 174.101562 215.179688 174.816406 214.917969 175.535156 C 214.652344 176.257812 214.414062 176.988281 214.195312 177.726562 C 213.976562 178.460938 213.78125 179.203125 213.609375 179.953125 C 213.433594 180.699219 213.285156 181.453125 213.15625 182.210938 C 213.027344 182.96875 212.925781 183.730469 212.84375 184.492188 C 212.761719 185.257812 212.703125 186.023438 212.667969 186.789062 C 212.632812 187.558594 212.621094 188.324219 212.632812 189.09375 C 212.644531 189.863281 212.679688 190.628906 212.738281 191.394531 C 212.796875 192.160156 212.878906 192.925781 212.980469 193.6875 C 213.085938 194.449219 213.214844 195.203125 213.363281 195.957031 C 213.515625 196.710938 213.6875 197.460938 213.882812 198.203125 C 214.082031 198.945312 214.296875 199.679688 214.539062 200.410156 C 214.78125 201.140625 215.042969 201.863281 215.328125 202.574219 C 215.609375 203.289062 215.917969 203.996094 216.242188 204.6875 C 216.570312 205.382812 216.917969 206.070312 217.289062 206.742188 C 217.65625 207.417969 218.046875 208.078125 218.453125 208.730469 C 218.863281 209.378906 219.292969 210.015625 219.738281 210.640625 C 220.1875 211.265625 220.652344 211.875 221.136719 212.472656 C 221.621094 213.070312 222.125 213.648438 222.644531 214.214844 C 223.164062 214.78125 223.699219 215.328125 224.253906 215.863281 C 224.808594 216.394531 225.375 216.910156 225.960938 217.410156 C 226.546875 217.910156 227.144531 218.390625 227.757812 218.851562 C 228.371094 219.3125 229 219.757812 229.640625 220.179688 C 230.28125 220.605469 230.933594 221.007812 231.597656 221.394531 C 232.261719 221.777344 232.9375 222.140625 233.625 222.484375 C 234.3125 222.828125 235.011719 223.152344 235.71875 223.453125 C 236.425781 223.753906 237.140625 224.03125 237.863281 224.289062 C 238.585938 224.546875 239.316406 224.785156 240.054688 224.996094 C 240.792969 225.210938 241.539062 225.402344 242.289062 225.570312 C 243.039062 225.738281 243.792969 225.882812 244.550781 226.003906 C 245.308594 226.128906 246.070312 226.226562 246.835938 226.304688 C 247.597656 226.378906 248.363281 226.433594 249.132812 226.460938 C 249.898438 226.492188 250.667969 226.5 251.4375 226.480469 C 252.203125 226.464844 252.972656 226.425781 253.738281 226.359375 C 254.503906 226.296875 255.265625 226.210938 256.027344 226.101562 C 256.785156 225.992188 257.542969 225.859375 258.292969 225.703125 C 259.046875 225.546875 259.792969 225.367188 260.535156 225.167969 C 261.277344 224.964844 262.011719 224.742188 262.738281 224.496094 C 263.46875 224.253906 264.1875 223.984375 264.898438 223.695312 C 265.609375 223.40625 266.3125 223.09375 267.007812 222.765625 C 267.699219 222.433594 268.382812 222.078125 269.050781 221.707031 C 269.722656 221.332031 270.382812 220.9375 271.03125 220.527344 C 271.679688 220.113281 272.3125 219.679688 272.933594 219.226562 C 273.554688 218.777344 274.164062 218.304688 274.753906 217.816406 C 275.347656 217.328125 275.925781 216.820312 276.488281 216.296875 C 277.050781 215.773438 277.59375 215.234375 278.125 214.675781 C 278.652344 214.121094 279.164062 213.546875 279.660156 212.960938 C 280.15625 212.371094 280.632812 211.769531 281.089844 211.152344 C 281.546875 210.535156 281.984375 209.90625 282.40625 209.261719 C 282.824219 208.617188 283.226562 207.964844 283.605469 207.296875 C 283.984375 206.628906 284.34375 205.949219 284.683594 205.257812 C 285.019531 204.570312 285.339844 203.871094 285.636719 203.160156 C 285.929688 202.453125 286.207031 201.734375 286.457031 201.011719 C 286.710938 200.285156 286.941406 199.550781 287.148438 198.8125 C 287.359375 198.074219 287.542969 197.328125 287.707031 196.578125 C 287.871094 195.828125 288.011719 195.070312 288.128906 194.3125 C 288.246094 193.554688 288.339844 192.792969 288.410156 192.027344 C 288.480469 191.261719 288.527344 190.496094 288.554688 189.726562 C 288.578125 188.960938 288.578125 188.191406 288.554688 187.421875 C 288.535156 186.65625 288.488281 185.890625 288.421875 185.125 C 288.351562 184.359375 288.257812 183.597656 288.144531 182.835938 C 288.03125 182.078125 287.890625 181.320312 287.730469 180.570312 C 287.570312 179.820312 287.386719 179.074219 287.179688 178.332031 C 286.972656 177.59375 286.746094 176.859375 286.496094 176.132812 C 286.246094 175.40625 285.972656 174.691406 285.679688 173.980469 C 285.382812 173.269531 285.070312 172.570312 284.730469 171.878906 C 284.394531 171.1875 284.039062 170.507812 283.660156 169.839844 C 283.28125 169.171875 282.882812 168.515625 282.46875 167.871094 C 282.050781 167.226562 281.613281 166.59375 281.15625 165.976562 C 280.699219 165.355469 280.226562 164.753906 279.734375 164.164062 C 279.238281 163.574219 278.730469 163 278.203125 162.441406 C 277.675781 161.882812 277.128906 161.339844 276.570312 160.816406 C 276.007812 160.289062 275.433594 159.78125 274.84375 159.292969 C 274.25 158.800781 273.644531 158.328125 273.027344 157.875 C 272.40625 157.421875 271.773438 156.988281 271.125 156.574219 C 270.480469 156.15625 269.820312 155.761719 269.152344 155.386719 C 268.480469 155.011719 267.800781 154.65625 267.109375 154.324219 C 266.414062 153.988281 265.714844 153.675781 265.003906 153.382812 C 264.292969 153.09375 263.574219 152.824219 262.847656 152.574219 C 262.121094 152.328125 261.386719 152.101562 260.644531 151.898438 C 259.902344 151.695312 259.15625 151.515625 258.40625 151.359375 C 257.652344 151.199219 256.898438 151.066406 256.136719 150.953125 L 300.089844 80.609375 C 300.359375 80.1875 300.46875 79.730469 300.421875 79.234375 C 301.648438 79.175781 302.871094 79.054688 304.089844 78.878906 C 305.304688 78.699219 306.511719 78.460938 307.703125 78.167969 C 308.898438 77.871094 310.074219 77.519531 311.234375 77.109375 C 312.394531 76.699219 313.53125 76.238281 314.644531 75.714844 C 315.757812 75.195312 316.847656 74.625 317.90625 74 C 318.964844 73.371094 319.988281 72.699219 320.980469 71.972656 C 321.976562 71.246094 322.929688 70.476562 323.847656 69.65625 C 324.765625 68.839844 325.644531 67.980469 326.476562 67.078125 C 327.3125 66.171875 328.101562 65.230469 328.84375 64.253906 C 329.585938 63.273438 330.28125 62.257812 330.925781 61.210938 C 331.570312 60.164062 332.164062 59.089844 332.703125 57.984375 C 333.242188 56.878906 333.726562 55.75 334.15625 54.597656 C 334.589844 53.449219 334.960938 52.277344 335.277344 51.089844 C 335.597656 49.902344 335.855469 48.699219 336.054688 47.488281 C 336.253906 46.273438 336.394531 45.054688 336.476562 43.828125 C 336.558594 42.601562 336.582031 41.371094 336.542969 40.144531 C 336.503906 38.914062 336.410156 37.691406 336.25 36.46875 C 336.09375 35.25 335.878906 34.042969 335.605469 32.84375 C 335.332031 31.644531 335 30.460938 334.609375 29.296875 C 334.222656 28.128906 333.777344 26.984375 333.277344 25.859375 C 332.777344 24.738281 332.222656 23.640625 331.617188 22.570312 C 331.011719 21.5 330.351562 20.464844 329.644531 19.457031 C 328.9375 18.453125 328.183594 17.484375 327.382812 16.550781 C 326.582031 15.617188 325.734375 14.726562 324.847656 13.878906 C 323.960938 13.027344 323.03125 12.222656 322.066406 11.460938 C 321.097656 10.699219 320.097656 9.988281 319.0625 9.328125 C 318.027344 8.664062 316.960938 8.050781 315.867188 7.492188 C 314.773438 6.933594 313.652344 6.429688 312.507812 5.976562 C 311.363281 5.527344 310.199219 5.132812 309.019531 4.792969 C 307.835938 4.457031 306.640625 4.175781 305.429688 3.957031 C 304.222656 3.734375 303.003906 3.570312 301.777344 3.46875 C 300.554688 3.367188 299.324219 3.320312 298.097656 3.335938 Z M 91.625 250.152344 C 91.625 250.46875 91.566406 250.769531 91.445312 251.0625 C 91.324219 251.351562 91.152344 251.609375 90.929688 251.832031 C 90.707031 252.054688 90.449219 252.226562 90.160156 252.347656 C 89.867188 252.46875 89.566406 252.527344 89.25 252.527344 C 88.9375 252.527344 88.632812 252.46875 88.34375 252.347656 C 88.050781 252.226562 87.796875 252.054688 87.574219 251.832031 C 87.351562 251.609375 87.179688 251.351562 87.058594 251.0625 C 86.9375 250.769531 86.878906 250.46875 86.878906 250.152344 C 86.871094 249.421875 86.757812 248.703125 86.53125 248.007812 C 86.308594 247.308594 85.980469 246.660156 85.558594 246.0625 C 85.132812 245.464844 84.628906 244.941406 84.042969 244.5 C 83.460938 244.054688 82.824219 243.710938 82.132812 243.460938 L 82.132812 257.699219 C 82.796875 257.835938 83.445312 258.027344 84.078125 258.273438 C 84.710938 258.519531 85.320312 258.820312 85.902344 259.171875 C 86.484375 259.519531 87.03125 259.917969 87.542969 260.363281 C 88.058594 260.808594 88.527344 261.292969 88.957031 261.820312 C 89.386719 262.347656 89.769531 262.90625 90.105469 263.496094 C 90.4375 264.085938 90.71875 264.703125 90.945312 265.34375 C 91.175781 265.984375 91.347656 266.636719 91.464844 267.308594 C 91.578125 267.976562 91.636719 268.652344 91.636719 269.328125 C 91.636719 270.007812 91.578125 270.683594 91.464844 271.351562 C 91.347656 272.023438 91.175781 272.675781 90.945312 273.316406 C 90.71875 273.957031 90.4375 274.570312 90.105469 275.164062 C 89.769531 275.753906 89.386719 276.3125 88.957031 276.839844 C 88.527344 277.367188 88.058594 277.851562 87.542969 278.296875 C 87.03125 278.742188 86.484375 279.136719 85.902344 279.488281 C 85.320312 279.839844 84.710938 280.140625 84.078125 280.386719 C 83.445312 280.632812 82.796875 280.824219 82.132812 280.957031 L 82.132812 283.378906 C 82.132812 283.695312 82.070312 283.996094 81.953125 284.289062 C 81.832031 284.578125 81.660156 284.835938 81.4375 285.058594 C 81.214844 285.28125 80.957031 285.453125 80.667969 285.570312 C 80.375 285.691406 80.074219 285.753906 79.757812 285.753906 C 79.445312 285.753906 79.140625 285.691406 78.851562 285.570312 C 78.558594 285.453125 78.304688 285.28125 78.082031 285.058594 C 77.859375 284.835938 77.6875 284.578125 77.566406 284.289062 C 77.445312 283.996094 77.386719 283.695312 77.386719 283.378906 L 77.386719 280.769531 C 76.71875 280.632812 76.070312 280.441406 75.4375 280.195312 C 74.808594 279.949219 74.199219 279.648438 73.621094 279.296875 C 73.039062 278.945312 72.492188 278.546875 71.980469 278.101562 C 71.464844 277.65625 70.996094 277.171875 70.566406 276.644531 C 70.136719 276.121094 69.757812 275.5625 69.421875 274.96875 C 69.089844 274.378906 68.808594 273.765625 68.582031 273.125 C 68.351562 272.484375 68.179688 271.832031 68.066406 271.160156 C 67.949219 270.492188 67.890625 269.820312 67.894531 269.140625 C 67.894531 268.824219 67.953125 268.523438 68.074219 268.230469 C 68.195312 267.941406 68.363281 267.683594 68.585938 267.460938 C 68.808594 267.238281 69.066406 267.066406 69.359375 266.949219 C 69.648438 266.828125 69.949219 266.765625 70.265625 266.765625 C 70.582031 266.765625 70.882812 266.828125 71.175781 266.949219 C 71.464844 267.066406 71.722656 267.238281 71.945312 267.460938 C 72.167969 267.683594 72.339844 267.941406 72.457031 268.230469 C 72.578125 268.523438 72.640625 268.824219 72.640625 269.140625 C 72.644531 269.875 72.761719 270.589844 72.984375 271.289062 C 73.210938 271.984375 73.535156 272.632812 73.960938 273.234375 C 74.382812 273.832031 74.890625 274.351562 75.472656 274.796875 C 76.058594 275.238281 76.695312 275.585938 77.386719 275.832031 L 77.386719 261.59375 C 76.71875 261.457031 76.070312 261.265625 75.4375 261.019531 C 74.804688 260.773438 74.199219 260.476562 73.617188 260.125 C 73.035156 259.773438 72.488281 259.375 71.972656 258.929688 C 71.460938 258.484375 70.988281 258 70.558594 257.472656 C 70.128906 256.949219 69.746094 256.390625 69.414062 255.796875 C 69.078125 255.207031 68.796875 254.589844 68.570312 253.949219 C 68.34375 253.3125 68.171875 252.65625 68.054688 251.988281 C 67.9375 251.316406 67.878906 250.644531 67.878906 249.964844 C 67.878906 249.285156 67.9375 248.609375 68.054688 247.941406 C 68.171875 247.273438 68.34375 246.617188 68.570312 245.976562 C 68.796875 245.339844 69.078125 244.722656 69.414062 244.128906 C 69.746094 243.539062 70.128906 242.980469 70.558594 242.453125 C 70.988281 241.929688 71.460938 241.441406 71.972656 241 C 72.488281 240.554688 73.035156 240.15625 73.617188 239.804688 C 74.199219 239.453125 74.804688 239.15625 75.4375 238.90625 C 76.070312 238.660156 76.71875 238.46875 77.386719 238.335938 L 77.386719 235.914062 C 77.386719 235.601562 77.445312 235.296875 77.566406 235.007812 C 77.6875 234.714844 77.859375 234.460938 78.082031 234.238281 C 78.304688 234.015625 78.558594 233.84375 78.851562 233.722656 C 79.140625 233.601562 79.445312 233.542969 79.757812 233.542969 C 80.074219 233.542969 80.375 233.601562 80.667969 233.722656 C 80.957031 233.84375 81.214844 234.015625 81.4375 234.238281 C 81.660156 234.460938 81.832031 234.714844 81.953125 235.007812 C 82.070312 235.296875 82.132812 235.601562 82.132812 235.914062 L 82.132812 238.523438 C 82.796875 238.660156 83.445312 238.851562 84.078125 239.097656 C 84.710938 239.347656 85.316406 239.644531 85.898438 239.996094 C 86.480469 240.347656 87.027344 240.746094 87.539062 241.191406 C 88.050781 241.636719 88.523438 242.121094 88.949219 242.648438 C 89.378906 243.171875 89.761719 243.730469 90.09375 244.324219 C 90.429688 244.914062 90.710938 245.53125 90.9375 246.167969 C 91.164062 246.808594 91.335938 247.464844 91.453125 248.132812 C 91.566406 248.800781 91.625 249.476562 91.625 250.152344 Z M 139.089844 122 C 139.089844 122.679688 139.03125 123.351562 138.917969 124.019531 C 138.800781 124.691406 138.628906 125.34375 138.402344 125.984375 C 138.171875 126.625 137.894531 127.238281 137.558594 127.828125 C 137.226562 128.421875 136.84375 128.980469 136.414062 129.503906 C 135.988281 130.03125 135.515625 130.515625 135.003906 130.960938 C 134.492188 131.40625 133.945312 131.804688 133.363281 132.15625 C 132.78125 132.507812 132.175781 132.808594 131.542969 133.054688 C 130.910156 133.300781 130.261719 133.492188 129.597656 133.628906 L 129.597656 136.238281 C 129.597656 136.554688 129.535156 136.855469 129.414062 137.148438 C 129.296875 137.4375 129.125 137.695312 128.902344 137.917969 C 128.679688 138.140625 128.421875 138.3125 128.132812 138.429688 C 127.839844 138.550781 127.539062 138.613281 127.222656 138.613281 C 126.910156 138.613281 126.605469 138.550781 126.316406 138.429688 C 126.023438 138.3125 125.769531 138.140625 125.546875 137.917969 C 125.324219 137.695312 125.152344 137.4375 125.03125 137.148438 C 124.910156 136.855469 124.851562 136.554688 124.851562 136.238281 L 124.851562 133.628906 C 124.183594 133.492188 123.535156 133.300781 122.902344 133.054688 C 122.273438 132.808594 121.664062 132.507812 121.085938 132.15625 C 120.503906 131.804688 119.957031 131.40625 119.445312 130.960938 C 118.929688 130.515625 118.460938 130.03125 118.03125 129.503906 C 117.601562 128.980469 117.21875 128.421875 116.886719 127.828125 C 116.554688 127.238281 116.273438 126.625 116.046875 125.984375 C 115.816406 125.34375 115.644531 124.691406 115.53125 124.019531 C 115.414062 123.351562 115.355469 122.679688 115.355469 122 C 115.355469 121.683594 115.417969 121.382812 115.539062 121.089844 C 115.660156 120.800781 115.828125 120.542969 116.050781 120.320312 C 116.273438 120.097656 116.53125 119.925781 116.824219 119.808594 C 117.113281 119.6875 117.414062 119.625 117.730469 119.625 C 118.046875 119.625 118.347656 119.6875 118.640625 119.808594 C 118.929688 119.925781 119.1875 120.097656 119.410156 120.320312 C 119.632812 120.542969 119.800781 120.800781 119.921875 121.089844 C 120.042969 121.382812 120.105469 121.683594 120.105469 122 C 120.109375 122.734375 120.226562 123.449219 120.449219 124.148438 C 120.675781 124.84375 121 125.492188 121.425781 126.09375 C 121.847656 126.691406 122.351562 127.210938 122.9375 127.65625 C 123.523438 128.097656 124.160156 128.445312 124.851562 128.691406 L 124.851562 114.453125 C 124.183594 114.316406 123.535156 114.125 122.902344 113.878906 C 122.269531 113.632812 121.664062 113.335938 121.082031 112.984375 C 120.5 112.632812 119.953125 112.234375 119.4375 111.789062 C 118.925781 111.34375 118.453125 110.859375 118.023438 110.332031 C 117.59375 109.808594 117.210938 109.25 116.878906 108.65625 C 116.542969 108.066406 116.261719 107.449219 116.035156 106.808594 C 115.808594 106.171875 115.636719 105.515625 115.519531 104.847656 C 115.402344 104.175781 115.34375 103.503906 115.34375 102.824219 C 115.34375 102.144531 115.402344 101.46875 115.519531 100.800781 C 115.636719 100.132812 115.808594 99.476562 116.035156 98.835938 C 116.261719 98.199219 116.542969 97.582031 116.878906 96.992188 C 117.210938 96.398438 117.59375 95.839844 118.023438 95.3125 C 118.453125 94.789062 118.925781 94.304688 119.4375 93.859375 C 119.953125 93.414062 120.5 93.015625 121.082031 92.664062 C 121.664062 92.3125 122.269531 92.015625 122.902344 91.769531 C 123.535156 91.519531 124.183594 91.328125 124.851562 91.195312 L 124.851562 88.773438 C 124.851562 88.460938 124.910156 88.15625 125.03125 87.867188 C 125.152344 87.574219 125.324219 87.320312 125.546875 87.097656 C 125.769531 86.875 126.023438 86.703125 126.316406 86.582031 C 126.605469 86.460938 126.910156 86.402344 127.222656 86.402344 C 127.539062 86.402344 127.839844 86.460938 128.132812 86.582031 C 128.421875 86.703125 128.679688 86.875 128.902344 87.097656 C 129.125 87.320312 129.296875 87.574219 129.414062 87.867188 C 129.535156 88.15625 129.597656 88.460938 129.597656 88.773438 L 129.597656 91.382812 C 130.261719 91.519531 130.910156 91.710938 131.542969 91.960938 C 132.175781 92.207031 132.78125 92.503906 133.363281 92.855469 C 133.945312 93.207031 134.492188 93.605469 135.003906 94.050781 C 135.515625 94.496094 135.988281 94.980469 136.414062 95.507812 C 136.84375 96.03125 137.226562 96.589844 137.558594 97.183594 C 137.894531 97.773438 138.171875 98.390625 138.402344 99.027344 C 138.628906 99.667969 138.800781 100.324219 138.917969 100.992188 C 139.03125 101.660156 139.089844 102.335938 139.089844 103.011719 C 139.089844 103.328125 139.03125 103.632812 138.910156 103.921875 C 138.789062 104.210938 138.617188 104.46875 138.394531 104.691406 C 138.171875 104.914062 137.914062 105.085938 137.625 105.207031 C 137.332031 105.328125 137.03125 105.386719 136.714844 105.386719 C 136.402344 105.386719 136.097656 105.328125 135.808594 105.207031 C 135.515625 105.085938 135.261719 104.914062 135.039062 104.691406 C 134.816406 104.46875 134.644531 104.210938 134.523438 103.921875 C 134.402344 103.632812 134.34375 103.328125 134.34375 103.011719 C 134.335938 102.28125 134.222656 101.5625 133.996094 100.867188 C 133.773438 100.167969 133.445312 99.519531 133.023438 98.921875 C 132.597656 98.324219 132.09375 97.800781 131.507812 97.359375 C 130.925781 96.914062 130.289062 96.570312 129.597656 96.320312 L 129.597656 110.558594 C 130.253906 110.695312 130.894531 110.882812 131.519531 111.125 C 132.144531 111.367188 132.746094 111.664062 133.324219 112.007812 C 133.898438 112.351562 134.441406 112.742188 134.949219 113.179688 C 135.457031 113.617188 135.929688 114.09375 136.355469 114.609375 C 136.785156 115.125 137.167969 115.675781 137.503906 116.253906 C 137.835938 116.835938 138.121094 117.441406 138.355469 118.070312 C 138.585938 118.699219 138.765625 119.34375 138.886719 120.003906 C 139.011719 120.664062 139.078125 121.328125 139.089844 122 Z M 262.496094 178.957031 C 262.496094 179.273438 262.4375 179.574219 262.316406 179.863281 C 262.195312 180.15625 262.023438 180.414062 261.800781 180.636719 C 261.582031 180.859375 261.324219 181.027344 261.03125 181.148438 C 260.742188 181.269531 260.4375 181.332031 260.125 181.332031 C 259.808594 181.332031 259.507812 181.269531 259.214844 181.148438 C 258.925781 181.027344 258.667969 180.859375 258.445312 180.636719 C 258.222656 180.414062 258.050781 180.15625 257.933594 179.863281 C 257.8125 179.574219 257.75 179.273438 257.75 178.957031 C 257.746094 178.222656 257.628906 177.507812 257.40625 176.808594 C 257.179688 176.109375 256.855469 175.460938 256.429688 174.863281 C 256.007812 174.265625 255.5 173.746094 254.917969 173.300781 C 254.332031 172.859375 253.695312 172.511719 253.003906 172.265625 L 253.003906 186.503906 C 253.671875 186.640625 254.320312 186.828125 254.953125 187.078125 C 255.585938 187.324219 256.191406 187.621094 256.773438 187.972656 C 257.355469 188.324219 257.902344 188.722656 258.417969 189.167969 C 258.929688 189.613281 259.402344 190.097656 259.832031 190.625 C 260.261719 191.148438 260.644531 191.707031 260.976562 192.300781 C 261.3125 192.890625 261.59375 193.507812 261.820312 194.144531 C 262.046875 194.785156 262.21875 195.441406 262.335938 196.109375 C 262.453125 196.777344 262.507812 197.453125 262.507812 198.132812 C 262.507812 198.8125 262.453125 199.484375 262.335938 200.15625 C 262.21875 200.824219 262.046875 201.480469 261.820312 202.121094 C 261.59375 202.757812 261.3125 203.375 260.976562 203.964844 C 260.644531 204.558594 260.261719 205.117188 259.832031 205.640625 C 259.402344 206.167969 258.929688 206.652344 258.417969 207.097656 C 257.902344 207.542969 257.355469 207.941406 256.773438 208.292969 C 256.191406 208.644531 255.585938 208.941406 254.953125 209.1875 C 254.320312 209.433594 253.671875 209.625 253.003906 209.761719 L 253.003906 212.183594 C 253.003906 212.496094 252.945312 212.800781 252.824219 213.089844 C 252.703125 213.382812 252.53125 213.636719 252.308594 213.859375 C 252.085938 214.082031 251.832031 214.253906 251.539062 214.375 C 251.25 214.496094 250.945312 214.554688 250.632812 214.554688 C 250.316406 214.554688 250.015625 214.496094 249.722656 214.375 C 249.433594 214.253906 249.175781 214.082031 248.953125 213.859375 C 248.730469 213.636719 248.558594 213.382812 248.4375 213.089844 C 248.320312 212.800781 248.257812 212.496094 248.257812 212.183594 L 248.257812 209.570312 C 247.59375 209.4375 246.945312 209.246094 246.3125 208.996094 C 245.679688 208.75 245.074219 208.453125 244.492188 208.101562 C 243.910156 207.75 243.363281 207.351562 242.851562 206.90625 C 242.339844 206.460938 241.867188 205.976562 241.4375 205.449219 C 241.011719 204.921875 240.628906 204.363281 240.296875 203.773438 C 239.960938 203.183594 239.679688 202.566406 239.453125 201.925781 C 239.226562 201.289062 239.054688 200.632812 238.9375 199.964844 C 238.824219 199.296875 238.765625 198.621094 238.765625 197.941406 C 238.765625 197.628906 238.824219 197.324219 238.945312 197.035156 C 239.066406 196.742188 239.238281 196.488281 239.460938 196.265625 C 239.683594 196.042969 239.941406 195.871094 240.230469 195.75 C 240.519531 195.628906 240.824219 195.570312 241.136719 195.570312 C 241.453125 195.570312 241.757812 195.628906 242.046875 195.75 C 242.335938 195.871094 242.59375 196.042969 242.816406 196.265625 C 243.039062 196.488281 243.210938 196.742188 243.332031 197.035156 C 243.453125 197.324219 243.511719 197.628906 243.511719 197.941406 C 243.515625 198.675781 243.632812 199.390625 243.859375 200.089844 C 244.082031 200.789062 244.410156 201.4375 244.832031 202.035156 C 245.257812 202.632812 245.761719 203.15625 246.347656 203.597656 C 246.929688 204.042969 247.566406 204.386719 248.257812 204.636719 L 248.257812 190.394531 C 247.59375 190.261719 246.945312 190.070312 246.3125 189.824219 C 245.675781 189.578125 245.070312 189.277344 244.488281 188.925781 C 243.90625 188.574219 243.359375 188.179688 242.847656 187.734375 C 242.332031 187.289062 241.863281 186.800781 241.433594 186.277344 C 241.003906 185.75 240.621094 185.191406 240.285156 184.601562 C 239.953125 184.007812 239.671875 183.394531 239.441406 182.753906 C 239.214844 182.113281 239.042969 181.460938 238.925781 180.789062 C 238.8125 180.121094 238.753906 179.445312 238.753906 178.765625 C 238.753906 178.089844 238.8125 177.414062 238.925781 176.746094 C 239.042969 176.074219 239.214844 175.421875 239.441406 174.78125 C 239.671875 174.140625 239.953125 173.523438 240.285156 172.933594 C 240.621094 172.34375 241.003906 171.785156 241.433594 171.257812 C 241.863281 170.730469 242.332031 170.246094 242.847656 169.800781 C 243.359375 169.355469 243.90625 168.957031 244.488281 168.609375 C 245.070312 168.257812 245.675781 167.957031 246.3125 167.710938 C 246.945312 167.464844 247.59375 167.273438 248.257812 167.136719 L 248.257812 164.71875 C 248.257812 164.402344 248.320312 164.101562 248.4375 163.808594 C 248.558594 163.519531 248.730469 163.261719 248.953125 163.039062 C 249.175781 162.816406 249.433594 162.644531 249.722656 162.523438 C 250.015625 162.40625 250.316406 162.34375 250.632812 162.34375 C 250.945312 162.34375 251.25 162.40625 251.539062 162.523438 C 251.832031 162.644531 252.085938 162.816406 252.308594 163.039062 C 252.53125 163.261719 252.703125 163.519531 252.824219 163.808594 C 252.945312 164.101562 253.003906 164.402344 253.003906 164.71875 L 253.003906 167.328125 C 253.671875 167.464844 254.320312 167.65625 254.949219 167.902344 C 255.582031 168.148438 256.191406 168.449219 256.769531 168.800781 C 257.351562 169.152344 257.898438 169.550781 258.410156 169.996094 C 258.921875 170.4375 259.394531 170.925781 259.824219 171.449219 C 260.253906 171.976562 260.632812 172.535156 260.96875 173.125 C 261.300781 173.71875 261.582031 174.332031 261.808594 174.972656 C 262.039062 175.613281 262.210938 176.265625 262.324219 176.933594 C 262.441406 177.605469 262.496094 178.277344 262.496094 178.957031 Z M 309.960938 50.800781 C 309.960938 51.480469 309.90625 52.15625 309.789062 52.824219 C 309.675781 53.492188 309.503906 54.148438 309.273438 54.785156 C 309.046875 55.425781 308.765625 56.042969 308.433594 56.632812 C 308.097656 57.222656 307.71875 57.78125 307.289062 58.308594 C 306.859375 58.835938 306.386719 59.320312 305.875 59.765625 C 305.363281 60.210938 304.816406 60.609375 304.234375 60.960938 C 303.65625 61.3125 303.046875 61.609375 302.414062 61.855469 C 301.785156 62.105469 301.132812 62.296875 300.46875 62.429688 L 300.46875 65.042969 C 300.46875 65.355469 300.410156 65.660156 300.289062 65.949219 C 300.167969 66.242188 299.996094 66.496094 299.773438 66.71875 C 299.550781 66.941406 299.296875 67.113281 299.003906 67.234375 C 298.714844 67.355469 298.410156 67.414062 298.097656 67.414062 C 297.78125 67.414062 297.480469 67.355469 297.1875 67.234375 C 296.898438 67.113281 296.640625 66.941406 296.417969 66.71875 C 296.195312 66.496094 296.023438 66.242188 295.902344 65.949219 C 295.785156 65.660156 295.722656 65.355469 295.722656 65.042969 L 295.722656 62.429688 C 295.058594 62.296875 294.410156 62.105469 293.777344 61.855469 C 293.144531 61.609375 292.539062 61.3125 291.957031 60.960938 C 291.375 60.609375 290.828125 60.210938 290.316406 59.765625 C 289.804688 59.320312 289.332031 58.835938 288.902344 58.308594 C 288.476562 57.78125 288.09375 57.222656 287.761719 56.632812 C 287.425781 56.042969 287.144531 55.425781 286.917969 54.785156 C 286.691406 54.148438 286.519531 53.492188 286.402344 52.824219 C 286.289062 52.15625 286.230469 51.480469 286.230469 50.800781 C 286.230469 50.488281 286.289062 50.183594 286.410156 49.894531 C 286.53125 49.601562 286.703125 49.347656 286.925781 49.125 C 287.148438 48.902344 287.40625 48.730469 287.695312 48.609375 C 287.984375 48.488281 288.289062 48.429688 288.601562 48.429688 C 288.917969 48.429688 289.222656 48.488281 289.511719 48.609375 C 289.800781 48.730469 290.058594 48.902344 290.28125 49.125 C 290.503906 49.347656 290.675781 49.601562 290.796875 49.894531 C 290.917969 50.183594 290.976562 50.488281 290.976562 50.800781 C 290.980469 51.535156 291.097656 52.25 291.324219 52.949219 C 291.546875 53.648438 291.871094 54.296875 292.296875 54.894531 C 292.722656 55.492188 293.226562 56.015625 293.8125 56.457031 C 294.394531 56.902344 295.03125 57.246094 295.722656 57.496094 L 295.722656 43.253906 C 295.058594 43.121094 294.40625 42.929688 293.773438 42.683594 C 293.140625 42.4375 292.535156 42.136719 291.953125 41.785156 C 291.371094 41.433594 290.824219 41.039062 290.3125 40.59375 C 289.796875 40.148438 289.328125 39.664062 288.898438 39.136719 C 288.46875 38.609375 288.085938 38.050781 287.75 37.460938 C 287.417969 36.867188 287.136719 36.253906 286.90625 35.613281 C 286.679688 34.972656 286.507812 34.320312 286.390625 33.648438 C 286.277344 32.980469 286.21875 32.304688 286.21875 31.625 C 286.21875 30.949219 286.277344 30.273438 286.390625 29.605469 C 286.507812 28.933594 286.679688 28.28125 286.90625 27.640625 C 287.136719 27 287.417969 26.386719 287.75 25.792969 C 288.085938 25.203125 288.46875 24.644531 288.898438 24.117188 C 289.328125 23.589844 289.796875 23.105469 290.3125 22.660156 C 290.824219 22.214844 291.371094 21.816406 291.953125 21.46875 C 292.535156 21.117188 293.140625 20.816406 293.773438 20.570312 C 294.40625 20.324219 295.058594 20.132812 295.722656 19.996094 L 295.722656 17.578125 C 295.722656 17.261719 295.785156 16.960938 295.902344 16.667969 C 296.023438 16.378906 296.195312 16.121094 296.417969 15.898438 C 296.640625 15.675781 296.898438 15.503906 297.1875 15.382812 C 297.480469 15.265625 297.78125 15.203125 298.097656 15.203125 C 298.410156 15.203125 298.714844 15.265625 299.003906 15.382812 C 299.296875 15.503906 299.550781 15.675781 299.773438 15.898438 C 299.996094 16.121094 300.167969 16.378906 300.289062 16.667969 C 300.410156 16.960938 300.46875 17.261719 300.46875 17.578125 L 300.46875 20.1875 C 301.132812 20.324219 301.785156 20.515625 302.414062 20.761719 C 303.046875 21.007812 303.65625 21.308594 304.234375 21.660156 C 304.816406 22.011719 305.363281 22.410156 305.875 22.855469 C 306.386719 23.300781 306.859375 23.785156 307.289062 24.308594 C 307.71875 24.835938 308.097656 25.394531 308.433594 25.984375 C 308.765625 26.578125 309.046875 27.191406 309.273438 27.832031 C 309.503906 28.472656 309.675781 29.125 309.789062 29.792969 C 309.90625 30.464844 309.960938 31.136719 309.960938 31.816406 C 309.960938 32.132812 309.902344 32.433594 309.78125 32.726562 C 309.660156 33.015625 309.488281 33.273438 309.265625 33.496094 C 309.042969 33.71875 308.789062 33.886719 308.496094 34.007812 C 308.207031 34.128906 307.902344 34.191406 307.589844 34.191406 C 307.273438 34.191406 306.972656 34.128906 306.679688 34.007812 C 306.390625 33.886719 306.132812 33.71875 305.910156 33.496094 C 305.6875 33.273438 305.515625 33.015625 305.398438 32.726562 C 305.277344 32.433594 305.214844 32.132812 305.214844 31.816406 C 305.210938 31.082031 305.09375 30.367188 304.871094 29.667969 C 304.644531 28.96875 304.320312 28.324219 303.894531 27.722656 C 303.472656 27.125 302.964844 26.605469 302.382812 26.160156 C 301.796875 25.71875 301.160156 25.371094 300.46875 25.125 L 300.46875 39.363281 C 301.125 39.496094 301.769531 39.6875 302.394531 39.929688 C 303.019531 40.171875 303.621094 40.464844 304.195312 40.808594 C 304.769531 41.15625 305.3125 41.546875 305.824219 41.984375 C 306.332031 42.417969 306.800781 42.894531 307.230469 43.414062 C 307.65625 43.929688 308.039062 44.476562 308.375 45.058594 C 308.710938 45.640625 308.996094 46.246094 309.226562 46.875 C 309.460938 47.503906 309.636719 48.148438 309.761719 48.808594 C 309.886719 49.464844 309.953125 50.132812 309.960938 50.800781 Z M 309.960938 50.800781 " fill-opacity="1" fill-rule="nonzero"/><path fill="#13889b" d="M 290.976562 31.816406 C 290.980469 32.550781 291.097656 33.265625 291.324219 33.964844 C 291.546875 34.664062 291.871094 35.3125 292.296875 35.910156 C 292.722656 36.507812 293.226562 37.027344 293.8125 37.472656 C 294.394531 37.914062 295.03125 38.261719 295.722656 38.507812 L 295.722656 25.125 C 295.03125 25.371094 294.394531 25.71875 293.8125 26.160156 C 293.226562 26.605469 292.722656 27.125 292.296875 27.722656 C 291.871094 28.324219 291.546875 28.96875 291.324219 29.667969 C 291.097656 30.367188 290.980469 31.082031 290.976562 31.816406 Z M 290.976562 31.816406 " fill-opacity="1" fill-rule="nonzero"/></svg>