<svg xmlns="http://www.w3.org/2000/svg" xmlns:xlink="http://www.w3.org/1999/xlink" width="500" zoomAndPan="magnify" viewBox="0 0 375 299.999988" height="400" preserveAspectRatio="xMidYMid meet" version="1.0"><defs><clipPath id="cd8d54e313"><path d="M 37.5 0 L 337.5 0 L 337.5 300 L 37.5 300 Z M 37.5 0 " clip-rule="nonzero"/></clipPath></defs><g clip-path="url(#cd8d54e313)"><path fill="#13889b" d="M 309.203125 257.449219 C 324.417969 263.550781 335.542969 277.675781 337.351562 294.589844 C 337.496094 295.953125 337.058594 297.316406 336.140625 298.335938 C 335.222656 299.355469 333.914062 299.941406 332.542969 299.941406 L 252.214844 299.941406 C 250.839844 299.941406 249.535156 299.355469 248.617188 298.335938 C 247.699219 297.3125 247.257812 295.949219 247.40625 294.585938 C 249.222656 277.671875 260.351562 263.546875 275.5625 257.449219 C 270.390625 252.816406 267.125 246.089844 267.125 238.625 C 267.125 224.714844 278.464844 213.363281 292.378906 213.363281 C 306.300781 213.363281 317.640625 224.714844 317.640625 238.625 C 317.640625 246.089844 314.378906 252.816406 309.203125 257.449219 Z M 292.378906 263.890625 C 275.917969 263.890625 262.070312 275.078125 258.015625 290.265625 C 258.015625 290.265625 326.742188 290.265625 326.742188 290.265625 C 322.695312 275.078125 308.847656 263.890625 292.378906 263.890625 Z M 292.378906 254.21875 C 300.972656 254.21875 307.96875 247.210938 307.96875 238.625 C 307.96875 230.042969 300.972656 223.035156 292.378906 223.035156 C 283.792969 223.035156 276.796875 230.042969 276.796875 238.625 C 276.796875 247.210938 283.792969 254.21875 292.378906 254.21875 Z M 309.203125 150.796875 C 324.417969 156.898438 335.542969 171.023438 337.351562 187.9375 C 337.496094 189.300781 337.058594 190.664062 336.140625 191.683594 C 335.222656 192.703125 333.914062 193.289062 332.542969 193.289062 L 252.214844 193.289062 C 250.839844 193.289062 249.535156 192.703125 248.617188 191.683594 C 247.699219 190.664062 247.257812 189.300781 247.40625 187.933594 C 249.222656 171.023438 260.351562 156.894531 275.5625 150.796875 C 270.390625 146.164062 267.125 139.4375 267.125 131.976562 C 267.125 118.0625 278.464844 106.710938 292.378906 106.710938 C 306.300781 106.710938 317.640625 118.066406 317.640625 131.976562 C 317.640625 139.4375 314.378906 146.164062 309.203125 150.796875 Z M 292.378906 157.238281 C 275.917969 157.238281 262.070312 168.425781 258.015625 183.613281 C 258.015625 183.613281 326.742188 183.613281 326.742188 183.613281 C 322.695312 168.425781 308.847656 157.238281 292.378906 157.238281 Z M 292.378906 147.566406 C 300.972656 147.566406 307.96875 140.558594 307.96875 131.976562 C 307.96875 123.390625 300.972656 116.386719 292.378906 116.386719 C 283.792969 116.386719 276.796875 123.390625 276.796875 131.976562 C 276.796875 140.558594 283.792969 147.566406 292.378906 147.566406 Z M 309.203125 44.144531 C 324.417969 50.246094 335.542969 64.371094 337.351562 81.285156 C 337.496094 82.648438 337.058594 84.011719 336.140625 85.035156 C 335.222656 86.054688 333.914062 86.636719 332.542969 86.636719 L 252.214844 86.636719 C 250.839844 86.636719 249.535156 86.054688 248.617188 85.03125 C 247.699219 84.011719 247.257812 82.648438 247.40625 81.28125 C 249.222656 64.371094 260.351562 50.246094 275.5625 44.144531 C 270.390625 39.511719 267.125 32.785156 267.125 25.324219 C 267.125 11.414062 278.464844 0.0585938 292.378906 0.0585938 C 306.300781 0.0585938 317.640625 11.414062 317.640625 25.324219 C 317.640625 32.789062 314.378906 39.515625 309.203125 44.144531 Z M 292.378906 50.585938 C 275.917969 50.585938 262.070312 61.773438 258.015625 76.964844 C 258.015625 76.964844 326.742188 76.964844 326.742188 76.964844 C 322.695312 61.773438 308.847656 50.585938 292.378906 50.585938 Z M 292.378906 40.914062 C 300.972656 40.914062 307.96875 33.910156 307.96875 25.324219 C 307.96875 16.738281 300.972656 9.734375 292.378906 9.734375 C 283.792969 9.734375 276.796875 16.742188 276.796875 25.324219 C 276.796875 33.90625 283.792969 40.914062 292.378906 40.914062 Z M 216.820312 180.648438 C 204.132812 216.484375 169.867188 242.285156 129.785156 242.285156 C 78.964844 242.285156 37.5 200.820312 37.5 150 C 37.5 99.179688 78.964844 57.714844 129.785156 57.714844 C 170.449219 57.714844 205.125 84.265625 217.355469 120.914062 L 239.601562 90.425781 C 241.175781 88.269531 244.203125 87.796875 246.359375 89.371094 C 248.515625 90.945312 248.988281 93.972656 247.414062 96.128906 L 222.035156 130.914062 C 225.726562 134.765625 228.316406 139.6875 229.285156 145.164062 L 256.914062 145.164062 C 259.582031 145.164062 261.75 147.332031 261.75 150 C 261.75 152.667969 259.582031 154.835938 256.914062 154.835938 L 229.285156 154.835938 C 228.246094 160.695312 225.359375 165.914062 221.246094 169.875 L 249.792969 212.503906 C 251.277344 214.722656 250.683594 217.730469 248.464844 219.214844 C 246.246094 220.699219 243.242188 220.105469 241.753906 217.886719 Z M 207.851562 123.007812 C 196.621094 90.695312 165.832031 67.390625 129.785156 67.390625 C 84.292969 67.390625 47.171875 104.507812 47.171875 150 C 47.171875 195.492188 84.292969 232.609375 129.785156 232.609375 C 165.832031 232.609375 196.621094 209.304688 207.851562 176.992188 C 206.003906 177.382812 204.085938 177.589844 202.121094 177.589844 C 200.058594 177.589844 198.050781 177.363281 196.121094 176.933594 C 185.441406 203.09375 159.699219 221.609375 129.785156 221.609375 C 90.351562 221.609375 58.175781 189.433594 58.175781 150 C 58.175781 110.566406 90.351562 78.390625 129.785156 78.390625 C 159.699219 78.390625 185.441406 96.90625 196.121094 123.066406 C 198.050781 122.636719 200.058594 122.410156 202.121094 122.410156 C 204.085938 122.410156 206.003906 122.617188 207.851562 123.007812 Z M 187.195312 173.203125 C 179.578125 168.289062 174.53125 159.730469 174.53125 150 C 174.53125 140.269531 179.578125 131.710938 187.195312 126.796875 C 177.976562 104.128906 155.691406 88.0625 129.785156 88.0625 C 95.679688 88.0625 67.847656 115.894531 67.847656 150 C 67.847656 184.105469 95.679688 211.9375 129.785156 211.9375 C 155.691406 211.9375 177.976562 195.871094 187.195312 173.203125 Z M 202.121094 132.085938 C 192.230469 132.085938 184.203125 140.113281 184.203125 150 C 184.203125 159.886719 192.230469 167.914062 202.121094 167.914062 C 212.007812 167.914062 220.035156 159.886719 220.035156 150 C 220.035156 140.113281 212.007812 132.085938 202.121094 132.085938 Z M 124.945312 112.792969 L 124.945312 107.738281 C 124.945312 105.070312 127.113281 102.902344 129.785156 102.902344 C 132.453125 102.902344 134.621094 105.070312 134.621094 107.738281 L 134.621094 112.730469 C 142.601562 114.054688 150.128906 118.863281 153.898438 127.832031 C 154.933594 130.292969 153.777344 133.132812 151.3125 134.167969 C 148.855469 135.199219 146.015625 134.042969 144.980469 131.582031 C 141.078125 122.292969 130.699219 120.328125 123.226562 123.269531 C 118.710938 125.046875 115.167969 128.75 115.425781 134.050781 C 115.632812 138.28125 118.296875 140.753906 121.558594 142.347656 C 124.355469 143.714844 127.582031 144.492188 130.628906 144.992188 C 141.824219 146.824219 154.269531 151.730469 155.894531 165.042969 L 155.894531 165.046875 C 157.511719 178.429688 146.035156 185.761719 134.621094 187.328125 L 134.621094 192.261719 C 134.621094 194.929688 132.453125 197.097656 129.785156 197.097656 C 127.113281 197.097656 124.945312 194.929688 124.945312 192.261719 L 124.945312 187.257812 C 115.03125 185.707031 106.265625 179.542969 103.671875 169.128906 C 103.027344 166.539062 104.609375 163.910156 107.199219 163.265625 C 109.789062 162.621094 112.414062 164.203125 113.058594 166.792969 C 115.015625 174.644531 122.867188 178.148438 130.539062 177.96875 C 134.574219 177.871094 139.058594 176.839844 142.367188 174.558594 C 144.992188 172.746094 146.753906 170.023438 146.292969 166.210938 C 145.828125 162.421875 143.691406 159.96875 140.921875 158.300781 C 137.441406 156.199219 133.078125 155.195312 129.066406 154.539062 L 129.0625 154.539062 C 118.171875 152.746094 106.394531 147.46875 105.761719 134.523438 L 105.761719 134.519531 C 105.289062 124.726562 111.34375 117.550781 119.683594 114.269531 C 121.363281 113.609375 123.128906 113.113281 124.945312 112.792969 Z M 124.945312 112.792969 " fill-opacity="1" fill-rule="evenodd"/></g></svg>