<svg xmlns="http://www.w3.org/2000/svg" xmlns:xlink="http://www.w3.org/1999/xlink" width="500" zoomAndPan="magnify" viewBox="0 0 375 299.999988" height="400" preserveAspectRatio="xMidYMid meet" version="1.0"><defs><clipPath id="7730fa29e5"><path d="M 224 125 L 332.8125 125 L 332.8125 235 L 224 235 Z M 224 125 " clip-rule="nonzero"/></clipPath><clipPath id="c41eaae015"><path d="M 42.5625 125 L 150 125 L 150 235 L 42.5625 235 Z M 42.5625 125 " clip-rule="nonzero"/></clipPath></defs><path fill="#13889b" d="M 272.394531 120.011719 C 255.855469 120.011719 242.40625 106.5625 242.40625 90.027344 C 242.40625 73.488281 255.855469 60.039062 272.394531 60.039062 C 288.929688 60.039062 302.378906 73.488281 302.378906 90.027344 C 302.378906 106.5625 288.925781 120.011719 272.394531 120.011719 Z M 272.394531 70.035156 C 261.367188 70.035156 252.402344 79 252.402344 90.027344 C 252.402344 101.050781 261.367188 110.015625 272.394531 110.015625 C 283.417969 110.015625 292.382812 101.050781 292.382812 90.027344 C 292.382812 79 283.414062 70.035156 272.394531 70.035156 Z M 272.394531 70.035156 " fill-opacity="1" fill-rule="nonzero"/><path fill="#13889b" d="M 302.378906 259.953125 C 299.621094 259.953125 297.382812 257.714844 297.382812 254.953125 L 297.382812 159.996094 C 297.382812 157.238281 299.621094 154.996094 302.378906 154.996094 C 305.140625 154.996094 307.378906 157.238281 307.378906 159.996094 L 307.378906 254.953125 C 307.378906 257.714844 305.140625 259.953125 302.378906 259.953125 Z M 302.378906 259.953125 " fill-opacity="1" fill-rule="nonzero"/><path fill="#13889b" d="M 242.40625 279.945312 C 239.648438 279.945312 237.410156 277.703125 237.410156 274.945312 L 237.410156 159.996094 C 237.410156 157.238281 239.648438 154.996094 242.40625 154.996094 C 245.164062 154.996094 247.402344 157.238281 247.402344 159.996094 L 247.402344 274.945312 C 247.402344 277.703125 245.164062 279.945312 242.40625 279.945312 Z M 242.40625 279.945312 " fill-opacity="1" fill-rule="nonzero"/><path fill="#13889b" d="M 272.394531 269.949219 C 269.632812 269.949219 267.394531 267.710938 267.394531 264.949219 L 267.394531 234.964844 C 267.394531 232.203125 269.632812 229.964844 272.394531 229.964844 C 275.152344 229.964844 277.390625 232.203125 277.390625 234.964844 L 277.390625 264.949219 C 277.390625 267.710938 275.152344 269.949219 272.394531 269.949219 Z M 272.394531 269.949219 " fill-opacity="1" fill-rule="nonzero"/><g clip-path="url(#7730fa29e5)"><path fill="#13889b" d="M 312.375 234.964844 L 302.378906 234.964844 C 299.621094 234.964844 297.382812 232.722656 297.382812 229.964844 C 297.382812 227.207031 299.621094 224.96875 302.378906 224.96875 L 312.375 224.96875 C 317.890625 224.96875 322.371094 220.484375 322.371094 214.972656 L 322.371094 159.996094 C 322.371094 146.214844 311.160156 135.007812 297.382812 135.007812 L 247.425781 135.007812 C 242.117188 135.007812 237.109375 136.625 232.941406 139.683594 C 230.710938 141.3125 227.585938 140.832031 225.953125 138.613281 C 224.320312 136.394531 224.800781 133.261719 227.023438 131.628906 C 232.914062 127.300781 239.972656 125.011719 247.425781 125.011719 L 297.382812 125.011719 C 316.675781 125.011719 332.367188 140.703125 332.367188 159.996094 L 332.367188 214.972656 C 332.367188 225.996094 323.394531 234.964844 312.375 234.964844 Z M 312.375 234.964844 " fill-opacity="1" fill-rule="nonzero"/></g><path fill="#13889b" d="M 242.425781 234.964844 L 232.429688 234.964844 C 221.40625 234.964844 212.4375 225.996094 212.4375 214.972656 L 212.4375 204.976562 C 212.4375 202.21875 214.679688 199.976562 217.4375 199.976562 C 220.195312 199.976562 222.433594 202.21875 222.433594 204.976562 L 222.433594 214.972656 C 222.433594 220.484375 226.917969 224.96875 232.429688 224.96875 L 242.425781 224.96875 C 245.183594 224.96875 247.425781 227.207031 247.425781 229.964844 C 247.425781 232.722656 245.183594 234.964844 242.425781 234.964844 Z M 242.425781 234.964844 " fill-opacity="1" fill-rule="nonzero"/><path fill="#13889b" d="M 102.472656 120.011719 C 85.933594 120.011719 72.484375 106.5625 72.484375 90.027344 C 72.484375 73.488281 85.933594 60.039062 102.472656 60.039062 C 119.007812 60.039062 132.457031 73.488281 132.457031 90.027344 C 132.457031 106.5625 119.003906 120.011719 102.472656 120.011719 Z M 102.472656 70.035156 C 91.445312 70.035156 82.480469 79 82.480469 90.027344 C 82.480469 101.050781 91.445312 110.015625 102.472656 110.015625 C 113.496094 110.015625 122.464844 101.050781 122.464844 90.027344 C 122.464844 79 113.492188 70.035156 102.472656 70.035156 Z M 102.472656 70.035156 " fill-opacity="1" fill-rule="nonzero"/><path fill="#13889b" d="M 72.484375 259.953125 C 69.726562 259.953125 67.488281 257.714844 67.488281 254.953125 L 67.488281 159.996094 C 67.488281 157.238281 69.726562 154.996094 72.484375 154.996094 C 75.242188 154.996094 77.484375 157.238281 77.484375 159.996094 L 77.484375 254.953125 C 77.484375 257.714844 75.242188 259.953125 72.484375 259.953125 Z M 72.484375 259.953125 " fill-opacity="1" fill-rule="nonzero"/><path fill="#13889b" d="M 132.457031 279.945312 C 129.699219 279.945312 127.460938 277.703125 127.460938 274.945312 L 127.460938 159.996094 C 127.460938 157.238281 129.699219 154.996094 132.457031 154.996094 C 135.21875 154.996094 137.457031 157.238281 137.457031 159.996094 L 137.457031 274.945312 C 137.457031 277.703125 135.21875 279.945312 132.457031 279.945312 Z M 132.457031 279.945312 " fill-opacity="1" fill-rule="nonzero"/><path fill="#13889b" d="M 102.472656 269.949219 C 99.710938 269.949219 97.472656 267.710938 97.472656 264.949219 L 97.472656 234.964844 C 97.472656 232.203125 99.710938 229.964844 102.472656 229.964844 C 105.230469 229.964844 107.46875 232.203125 107.46875 234.964844 L 107.46875 264.949219 C 107.46875 267.710938 105.230469 269.949219 102.472656 269.949219 Z M 102.472656 269.949219 " fill-opacity="1" fill-rule="nonzero"/><g clip-path="url(#c41eaae015)"><path fill="#13889b" d="M 72.484375 234.964844 L 62.488281 234.964844 C 51.464844 234.964844 42.496094 225.996094 42.496094 214.972656 L 42.496094 159.996094 C 42.496094 140.703125 58.191406 125.011719 77.484375 125.011719 L 127.476562 125.011719 C 134.917969 125.011719 141.988281 127.316406 147.925781 131.679688 C 150.152344 133.3125 150.632812 136.441406 148.996094 138.664062 C 147.363281 140.894531 144.230469 141.367188 142.007812 139.734375 C 137.800781 136.640625 132.773438 135.007812 127.476562 135.007812 L 77.484375 135.007812 C 63.703125 135.007812 52.492188 146.214844 52.492188 159.996094 L 52.492188 214.972656 C 52.492188 220.484375 56.976562 224.96875 62.488281 224.96875 L 72.484375 224.96875 C 75.242188 224.96875 77.484375 227.207031 77.484375 229.964844 C 77.484375 232.722656 75.242188 234.964844 72.484375 234.964844 Z M 72.484375 234.964844 " fill-opacity="1" fill-rule="nonzero"/></g><path fill="#13889b" d="M 142.46875 234.964844 L 132.472656 234.964844 C 129.714844 234.964844 127.476562 232.722656 127.476562 229.964844 C 127.476562 227.207031 129.714844 224.96875 132.472656 224.96875 L 142.46875 224.96875 C 147.980469 224.96875 152.464844 220.484375 152.464844 214.972656 L 152.464844 204.976562 C 152.464844 202.21875 154.703125 199.976562 157.464844 199.976562 C 160.222656 199.976562 162.460938 202.21875 162.460938 204.976562 L 162.460938 214.972656 C 162.460938 225.996094 153.496094 234.964844 142.46875 234.964844 Z M 142.46875 234.964844 " fill-opacity="1" fill-rule="nonzero"/><path fill="#13889b" d="M 142.519531 60.039062 C 125.980469 60.039062 112.53125 46.589844 112.53125 30.050781 C 112.53125 13.515625 125.980469 0.0664062 142.519531 0.0664062 C 159.058594 0.0664062 172.507812 13.515625 172.507812 30.050781 C 172.507812 46.589844 159.058594 60.039062 142.519531 60.039062 Z M 142.519531 10.058594 C 131.496094 10.058594 122.527344 19.027344 122.527344 30.050781 C 122.527344 41.078125 131.496094 50.042969 142.519531 50.042969 C 153.542969 50.042969 162.511719 41.078125 162.511719 30.050781 C 162.511719 19.027344 153.542969 10.058594 142.519531 10.058594 Z M 142.519531 10.058594 " fill-opacity="1" fill-rule="nonzero"/><path fill="#13889b" d="M 232.480469 60.039062 C 215.941406 60.039062 202.492188 46.589844 202.492188 30.050781 C 202.492188 13.515625 215.941406 0.0664062 232.480469 0.0664062 C 249.019531 0.0664062 262.46875 13.515625 262.46875 30.050781 C 262.46875 46.589844 249.019531 60.039062 232.480469 60.039062 Z M 232.480469 10.058594 C 221.457031 10.058594 212.488281 19.027344 212.488281 30.050781 C 212.488281 41.078125 221.457031 50.042969 232.480469 50.042969 C 243.503906 50.042969 252.472656 41.078125 252.472656 30.050781 C 252.472656 19.027344 243.503906 10.058594 232.480469 10.058594 Z M 232.480469 10.058594 " fill-opacity="1" fill-rule="nonzero"/><path fill="#13889b" d="M 187.5 120.011719 C 170.960938 120.011719 157.511719 106.5625 157.511719 90.027344 C 157.511719 73.488281 170.960938 60.039062 187.5 60.039062 C 204.039062 60.039062 217.488281 73.488281 217.488281 90.027344 C 217.488281 106.5625 204.039062 120.011719 187.5 120.011719 Z M 187.5 70.035156 C 176.476562 70.035156 167.507812 79 167.507812 90.027344 C 167.507812 101.050781 176.476562 110.015625 187.5 110.015625 C 198.523438 110.015625 207.492188 101.050781 207.492188 90.027344 C 207.492188 79 198.523438 70.035156 187.5 70.035156 Z M 187.5 70.035156 " fill-opacity="1" fill-rule="nonzero"/><path fill="#13889b" d="M 217.488281 289.941406 C 214.726562 289.941406 212.488281 287.699219 212.488281 284.941406 L 212.488281 209.972656 L 162.511719 209.972656 L 162.511719 284.941406 C 162.511719 287.699219 160.273438 289.941406 157.511719 289.941406 C 154.753906 289.941406 152.515625 287.699219 152.515625 284.941406 L 152.515625 204.976562 C 152.515625 202.21875 154.753906 199.976562 157.511719 199.976562 L 217.488281 199.976562 C 220.246094 199.976562 222.484375 202.21875 222.484375 204.976562 L 222.484375 284.941406 C 222.484375 287.699219 220.246094 289.941406 217.488281 289.941406 Z M 217.488281 289.941406 " fill-opacity="1" fill-rule="nonzero"/><path fill="#13889b" d="M 187.5 299.933594 C 184.742188 299.933594 182.503906 297.695312 182.503906 294.9375 L 182.503906 234.964844 C 182.503906 232.203125 184.742188 229.964844 187.5 229.964844 C 190.257812 229.964844 192.496094 232.203125 192.496094 234.964844 L 192.496094 294.9375 C 192.496094 297.695312 190.257812 299.933594 187.5 299.933594 Z M 187.5 299.933594 " fill-opacity="1" fill-rule="nonzero"/><path fill="#13889b" d="M 227.484375 209.972656 L 147.515625 209.972656 C 136.492188 209.972656 127.527344 201.007812 127.527344 189.984375 L 127.527344 159.996094 C 127.527344 140.703125 143.21875 125.011719 162.511719 125.011719 L 212.488281 125.011719 C 231.78125 125.011719 247.472656 140.703125 247.472656 159.996094 L 247.472656 189.984375 C 247.472656 201.007812 238.507812 209.972656 227.484375 209.972656 Z M 162.511719 135.007812 C 148.730469 135.007812 137.523438 146.214844 137.523438 159.996094 L 137.523438 189.984375 C 137.523438 195.496094 142.003906 199.976562 147.515625 199.976562 L 227.484375 199.976562 C 232.996094 199.976562 237.476562 195.496094 237.476562 189.984375 L 237.476562 159.996094 C 237.476562 146.214844 226.269531 135.007812 212.488281 135.007812 Z M 162.511719 135.007812 " fill-opacity="1" fill-rule="nonzero"/><path fill="#13889b" d="M 152.519531 184.984375 C 152.195312 184.984375 151.867188 184.953125 151.535156 184.886719 C 148.828125 184.34375 147.074219 181.710938 147.617188 179.003906 L 152.613281 154.011719 C 153.15625 151.308594 155.773438 149.550781 158.496094 150.09375 C 161.207031 150.632812 162.960938 153.269531 162.414062 155.976562 L 157.417969 180.964844 C 156.941406 183.339844 154.855469 184.984375 152.519531 184.984375 Z M 152.519531 184.984375 " fill-opacity="1" fill-rule="nonzero"/><path fill="#13889b" d="M 212.488281 209.972656 C 211.847656 209.972656 211.199219 209.847656 210.570312 209.585938 L 150.597656 184.59375 C 148.398438 183.679688 147.152344 181.339844 147.617188 179.003906 L 150.699219 163.585938 C 150.964844 162.257812 151.753906 161.101562 152.890625 160.367188 C 154.023438 159.628906 155.410156 159.390625 156.722656 159.691406 L 216.066406 173.375 L 212.589844 155.976562 C 212.050781 153.269531 213.804688 150.640625 216.507812 150.09375 C 219.214844 149.554688 221.851562 151.308594 222.390625 154.011719 L 227.386719 179.003906 C 227.722656 180.667969 227.1875 182.386719 225.96875 183.570312 C 224.75 184.753906 223.019531 185.238281 221.367188 184.855469 L 159.492188 170.589844 L 158.222656 176.949219 L 214.414062 200.363281 C 216.960938 201.421875 218.160156 204.351562 217.101562 206.902344 C 216.300781 208.820312 214.445312 209.972656 212.488281 209.972656 Z M 212.488281 209.972656 " fill-opacity="1" fill-rule="nonzero"/></svg>