<svg xmlns="http://www.w3.org/2000/svg" xmlns:xlink="http://www.w3.org/1999/xlink" width="1024" zoomAndPan="magnify" viewBox="0 0 768 767.999994" height="1024" preserveAspectRatio="xMidYMid meet" version="1.0"><defs><clipPath id="ae43b0ce6c"><path d="M 3 8.160156 L 756 8.160156 L 756 749.910156 L 3 749.910156 Z M 3 8.160156 " clip-rule="nonzero"/></clipPath></defs><g clip-path="url(#ae43b0ce6c)"><path fill="#ff3131" d="M 354.957031 8.160156 C 308.792969 8.160156 268.578125 17.550781 233.953125 32.542969 C 233.019531 32.945312 232.136719 33.433594 231.304688 34.011719 C 230.46875 34.589844 229.699219 35.242188 228.992188 35.972656 C 228.285156 36.699219 227.65625 37.492188 227.109375 38.34375 C 226.558594 39.195312 226.09375 40.09375 225.722656 41.039062 C 225.347656 41.980469 225.070312 42.953125 224.890625 43.949219 C 224.707031 44.949219 224.625 45.957031 224.640625 46.96875 C 224.65625 47.984375 224.769531 48.988281 224.984375 49.980469 C 225.199219 50.972656 225.507812 51.933594 225.910156 52.867188 C 226.3125 53.796875 226.804688 54.679688 227.378906 55.515625 C 227.957031 56.347656 228.609375 57.121094 229.339844 57.824219 C 230.070312 58.53125 230.859375 59.160156 231.710938 59.710938 C 232.566406 60.261719 233.460938 60.722656 234.40625 61.09375 C 235.351562 61.46875 236.320312 61.746094 237.320312 61.929688 C 238.316406 62.109375 239.324219 62.195312 240.339844 62.175781 C 241.351562 62.160156 242.355469 62.046875 243.347656 61.832031 C 244.339844 61.617188 245.300781 61.308594 246.234375 60.90625 C 277.207031 47.5 312.960938 39.058594 354.957031 39.058594 C 416.726562 39.058594 467.644531 53.222656 510.058594 75.300781 C 510.960938 75.769531 511.898438 76.144531 512.871094 76.429688 C 513.847656 76.714844 514.839844 76.898438 515.851562 76.988281 C 516.863281 77.078125 517.871094 77.066406 518.882812 76.953125 C 519.890625 76.84375 520.878906 76.636719 521.847656 76.332031 C 522.816406 76.023438 523.746094 75.628906 524.632812 75.140625 C 525.523438 74.652344 526.359375 74.082031 527.136719 73.429688 C 527.914062 72.773438 528.621094 72.054688 529.253906 71.261719 C 529.890625 70.46875 530.441406 69.625 530.910156 68.722656 C 531.378906 67.820312 531.753906 66.882812 532.039062 65.910156 C 532.324219 64.933594 532.507812 63.941406 532.597656 62.929688 C 532.6875 61.917969 532.675781 60.910156 532.5625 59.898438 C 532.453125 58.890625 532.246094 57.902344 531.941406 56.933594 C 531.636719 55.964844 531.238281 55.039062 530.75 54.148438 C 530.261719 53.257812 529.691406 52.421875 529.039062 51.644531 C 528.386719 50.867188 527.664062 50.164062 526.871094 49.527344 C 526.078125 48.890625 525.234375 48.339844 524.332031 47.871094 C 477.695312 23.597656 421.480469 8.160156 354.957031 8.160156 Z M 188.777344 59.550781 C 185.769531 59.71875 183.042969 60.683594 180.601562 62.445312 C 137.273438 92.707031 105.699219 130.433594 82.347656 162.265625 C 70.675781 178.183594 61.027344 192.671875 53.199219 203.878906 C 45.371094 215.089844 38.574219 223.164062 36.601562 224.699219 C 36.195312 225.007812 35.800781 225.335938 35.425781 225.679688 C 35.050781 226.027344 34.691406 226.390625 34.351562 226.773438 C 34.011719 227.15625 33.691406 227.554688 33.390625 227.96875 C 33.089844 228.382812 32.8125 228.808594 32.554688 229.25 C 32.296875 229.691406 32.058594 230.144531 31.847656 230.609375 C 31.632812 231.074219 31.445312 231.550781 31.277344 232.03125 C 31.113281 232.515625 30.972656 233.007812 30.855469 233.503906 C 30.738281 234.003906 30.644531 234.503906 30.578125 235.011719 C 30.507812 235.519531 30.46875 236.027344 30.449219 236.539062 C 30.433594 237.050781 30.441406 237.558594 30.476562 238.070312 C 30.511719 238.582031 30.570312 239.089844 30.652344 239.59375 C 30.738281 240.097656 30.847656 240.597656 30.980469 241.089844 C 31.113281 241.582031 31.273438 242.070312 31.453125 242.546875 C 31.636719 243.023438 31.839844 243.492188 32.070312 243.949219 C 32.296875 244.40625 32.546875 244.851562 32.820312 245.285156 C 33.09375 245.71875 33.386719 246.136719 33.699219 246.539062 C 34.015625 246.941406 34.347656 247.328125 34.699219 247.699219 C 35.054688 248.070312 35.421875 248.421875 35.8125 248.753906 C 36.199219 249.089844 36.601562 249.402344 37.019531 249.695312 C 37.4375 249.992188 37.871094 250.261719 38.316406 250.511719 C 38.761719 250.765625 39.21875 250.992188 39.6875 251.199219 C 40.15625 251.402344 40.632812 251.585938 41.121094 251.742188 C 41.605469 251.902344 42.097656 252.035156 42.597656 252.144531 C 43.097656 252.253906 43.601562 252.335938 44.109375 252.394531 C 44.617188 252.453125 45.125 252.488281 45.636719 252.496094 C 46.148438 252.503906 46.660156 252.488281 47.167969 252.445312 C 47.679688 252.402344 48.183594 252.335938 48.6875 252.242188 C 49.191406 252.152344 49.6875 252.035156 50.179688 251.890625 C 50.671875 251.75 51.152344 251.585938 51.628906 251.394531 C 52.101562 251.207031 52.566406 250.992188 53.019531 250.757812 C 53.476562 250.519531 53.914062 250.261719 54.34375 249.984375 C 54.773438 249.703125 55.183594 249.402344 55.582031 249.082031 C 64.273438 242.308594 70.394531 233.238281 78.546875 221.5625 C 86.699219 209.886719 96.09375 195.765625 107.273438 180.523438 C 129.632812 150.039062 159.078125 115.175781 198.285156 87.792969 C 198.953125 87.34375 199.585938 86.839844 200.175781 86.289062 C 200.765625 85.738281 201.308594 85.144531 201.808594 84.511719 C 202.304688 83.875 202.75 83.203125 203.144531 82.496094 C 203.535156 81.789062 203.871094 81.058594 204.148438 80.300781 C 204.425781 79.542969 204.644531 78.765625 204.800781 77.972656 C 204.957031 77.179688 205.050781 76.382812 205.082031 75.574219 C 205.113281 74.765625 205.078125 73.960938 204.984375 73.160156 C 204.890625 72.359375 204.730469 71.570312 204.511719 70.792969 C 204.292969 70.015625 204.015625 69.257812 203.675781 68.523438 C 203.339844 67.789062 202.945312 67.089844 202.496094 66.414062 C 202.050781 65.742188 201.550781 65.109375 201.003906 64.515625 C 200.457031 63.921875 199.867188 63.375 199.234375 62.875 C 198.601562 62.371094 197.933594 61.921875 197.230469 61.527344 C 196.527344 61.128906 195.796875 60.789062 195.039062 60.507812 C 194.28125 60.226562 193.507812 60.003906 192.714844 59.84375 C 191.925781 59.683594 191.125 59.585938 190.316406 59.550781 C 189.804688 59.523438 189.292969 59.523438 188.777344 59.550781 Z M 369.773438 85.410156 C 368.789062 85.445312 367.816406 85.574219 366.855469 85.796875 C 365.898438 86.019531 364.96875 86.332031 364.066406 86.730469 C 363.167969 87.128906 362.3125 87.613281 361.503906 88.175781 C 360.695312 88.738281 359.949219 89.371094 359.261719 90.078125 C 358.578125 90.785156 357.964844 91.550781 357.421875 92.375 C 356.882812 93.195312 356.425781 94.0625 356.050781 94.976562 C 355.675781 95.886719 355.390625 96.824219 355.195312 97.789062 C 355 98.753906 354.898438 99.730469 354.890625 100.714844 C 354.882812 101.699219 354.964844 102.675781 355.144531 103.644531 C 355.324219 104.613281 355.589844 105.558594 355.949219 106.472656 C 356.308594 107.390625 356.75 108.265625 357.277344 109.101562 C 357.800781 109.933594 358.402344 110.707031 359.074219 111.425781 C 359.75 112.144531 360.484375 112.792969 361.285156 113.371094 C 362.082031 113.945312 362.925781 114.441406 363.820312 114.859375 C 364.714844 115.273438 365.636719 115.601562 366.59375 115.839844 C 367.546875 116.078125 368.519531 116.226562 369.5 116.28125 C 473.910156 122.378906 537.382812 163.421875 577.472656 218.875 C 617.5625 274.332031 633.625 345.542969 636.796875 410.613281 C 636.847656 411.625 637 412.621094 637.246094 413.605469 C 637.492188 414.589844 637.835938 415.539062 638.269531 416.453125 C 638.703125 417.367188 639.222656 418.234375 639.828125 419.046875 C 640.429688 419.859375 641.109375 420.605469 641.859375 421.289062 C 642.613281 421.96875 643.421875 422.566406 644.292969 423.089844 C 645.160156 423.609375 646.074219 424.039062 647.027344 424.382812 C 647.980469 424.722656 648.960938 424.96875 649.964844 425.117188 C 650.964844 425.265625 651.972656 425.3125 652.984375 425.265625 C 653.996094 425.214844 654.996094 425.066406 655.976562 424.820312 C 656.960938 424.578125 657.910156 424.238281 658.828125 423.804688 C 659.746094 423.371094 660.609375 422.855469 661.425781 422.25 C 662.238281 421.648438 662.988281 420.972656 663.667969 420.222656 C 664.351562 419.472656 664.953125 418.660156 665.472656 417.792969 C 665.996094 416.925781 666.429688 416.015625 666.773438 415.058594 C 667.113281 414.105469 667.363281 413.128906 667.511719 412.125 C 667.664062 411.125 667.714844 410.117188 667.667969 409.105469 C 664.304688 340.128906 647.613281 263.148438 602.519531 200.769531 C 557.425781 138.394531 483.246094 91.980469 371.3125 85.441406 C 370.800781 85.40625 370.285156 85.394531 369.773438 85.410156 Z M 577.503906 86.222656 C 576.671875 86.207031 575.847656 86.257812 575.023438 86.375 C 574.203125 86.492188 573.394531 86.675781 572.601562 86.921875 C 571.8125 87.167969 571.042969 87.476562 570.300781 87.847656 C 569.558594 88.21875 568.851562 88.648438 568.175781 89.132812 C 567.503906 89.617188 566.871094 90.152344 566.285156 90.738281 C 565.695312 91.324219 565.160156 91.953125 564.675781 92.628906 C 564.1875 93.300781 563.757812 94.007812 563.386719 94.75 C 563.015625 95.492188 562.707031 96.257812 562.457031 97.050781 C 562.210938 97.84375 562.027344 98.652344 561.90625 99.472656 C 561.789062 100.292969 561.738281 101.121094 561.753906 101.949219 C 561.765625 102.78125 561.847656 103.601562 561.996094 104.417969 C 562.144531 105.238281 562.355469 106.035156 562.632812 106.820312 C 562.910156 107.601562 563.246094 108.355469 563.644531 109.085938 C 564.042969 109.8125 564.496094 110.503906 565.007812 111.160156 C 565.515625 111.816406 566.074219 112.425781 566.683594 112.992188 C 567.289062 113.554688 567.941406 114.070312 568.628906 114.53125 C 689.445312 197.957031 708.765625 386.503906 708.765625 386.503906 C 708.859375 387.515625 709.046875 388.507812 709.335938 389.480469 C 709.621094 390.457031 710 391.394531 710.472656 392.292969 C 710.945312 393.191406 711.5 394.035156 712.140625 394.828125 C 712.777344 395.617188 713.488281 396.335938 714.269531 396.988281 C 715.050781 397.636719 715.886719 398.203125 716.777344 398.6875 C 717.671875 399.175781 718.601562 399.566406 719.574219 399.867188 C 720.542969 400.171875 721.535156 400.375 722.542969 400.480469 C 723.554688 400.585938 724.566406 400.59375 725.578125 400.5 C 726.589844 400.40625 727.582031 400.214844 728.554688 399.925781 C 729.527344 399.636719 730.464844 399.257812 731.363281 398.78125 C 732.261719 398.308594 733.105469 397.753906 733.894531 397.113281 C 734.683594 396.472656 735.402344 395.761719 736.050781 394.980469 C 736.699219 394.199219 737.265625 393.359375 737.75 392.464844 C 738.234375 391.574219 738.625 390.640625 738.925781 389.671875 C 739.226562 388.699219 739.425781 387.710938 739.53125 386.699219 C 739.636719 385.6875 739.640625 384.675781 739.546875 383.667969 C 739.546875 383.667969 723.175781 183.707031 586.164062 89.089844 C 584.894531 88.1875 583.523438 87.492188 582.046875 87.003906 C 580.574219 86.515625 579.058594 86.253906 577.503906 86.222656 Z M 307.160156 91.203125 C 306.285156 91.242188 305.417969 91.351562 304.5625 91.535156 C 197.796875 112.730469 146.292969 186.523438 106.308594 248.75 C 105.761719 249.605469 105.300781 250.503906 104.929688 251.449219 C 104.554688 252.394531 104.28125 253.363281 104.101562 254.363281 C 103.917969 255.363281 103.839844 256.371094 103.855469 257.386719 C 103.875 258.398438 103.992188 259.402344 104.207031 260.394531 C 104.421875 261.386719 104.734375 262.347656 105.140625 263.28125 C 105.542969 264.210938 106.035156 265.09375 106.613281 265.925781 C 107.195312 266.761719 107.847656 267.53125 108.578125 268.234375 C 109.308594 268.941406 110.101562 269.566406 110.957031 270.113281 C 111.808594 270.664062 112.710938 271.125 113.652344 271.496094 C 114.597656 271.867188 115.570312 272.144531 116.570312 272.324219 C 117.566406 272.503906 118.574219 272.585938 119.589844 272.566406 C 120.605469 272.550781 121.609375 272.433594 122.601562 272.214844 C 123.59375 272 124.554688 271.691406 125.484375 271.285156 C 126.414062 270.878906 127.296875 270.386719 128.132812 269.808594 C 128.964844 269.230469 129.734375 268.574219 130.441406 267.84375 C 131.144531 267.113281 131.769531 266.320312 132.320312 265.46875 C 171.871094 203.914062 215.15625 140.773438 310.566406 121.832031 C 311.519531 121.652344 312.441406 121.390625 313.34375 121.039062 C 314.242188 120.6875 315.101562 120.253906 315.921875 119.742188 C 316.738281 119.230469 317.503906 118.644531 318.214844 117.988281 C 318.921875 117.332031 319.566406 116.617188 320.140625 115.839844 C 320.714844 115.0625 321.210938 114.238281 321.632812 113.371094 C 322.054688 112.5 322.390625 111.597656 322.640625 110.664062 C 322.894531 109.730469 323.054688 108.785156 323.128906 107.820312 C 323.203125 106.855469 323.1875 105.894531 323.078125 104.933594 C 322.972656 103.976562 322.777344 103.03125 322.492188 102.109375 C 322.210938 101.183594 321.84375 100.296875 321.390625 99.441406 C 320.941406 98.585938 320.414062 97.78125 319.8125 97.023438 C 319.210938 96.269531 318.546875 95.574219 317.8125 94.945312 C 317.082031 94.3125 316.296875 93.753906 315.460938 93.273438 C 314.625 92.789062 313.75 92.386719 312.839844 92.066406 C 311.929688 91.746094 310.996094 91.511719 310.039062 91.367188 C 309.085938 91.222656 308.125 91.167969 307.160156 91.203125 Z M 370.40625 162.660156 C 316.699219 162.660156 275.464844 179.976562 243.730469 205.71875 C 243.320312 206.035156 242.929688 206.367188 242.554688 206.71875 C 242.179688 207.070312 241.824219 207.441406 241.484375 207.832031 C 241.148438 208.21875 240.832031 208.625 240.53125 209.042969 C 240.234375 209.464844 239.960938 209.898438 239.707031 210.34375 C 239.453125 210.792969 239.21875 211.25 239.011719 211.722656 C 238.804688 212.191406 238.621094 212.671875 238.460938 213.160156 C 238.300781 213.648438 238.164062 214.144531 238.054688 214.648438 C 237.941406 215.152344 237.855469 215.65625 237.796875 216.167969 C 237.738281 216.679688 237.703125 217.191406 237.695312 217.707031 C 237.683594 218.222656 237.703125 218.734375 237.742188 219.25 C 237.785156 219.761719 237.855469 220.269531 237.949219 220.777344 C 238.042969 221.28125 238.160156 221.78125 238.304688 222.277344 C 238.445312 222.769531 238.613281 223.257812 238.804688 223.734375 C 238.996094 224.210938 239.210938 224.679688 239.453125 225.136719 C 239.691406 225.589844 239.949219 226.035156 240.234375 226.464844 C 240.515625 226.894531 240.820312 227.308594 241.144531 227.707031 C 241.46875 228.109375 241.8125 228.488281 242.171875 228.855469 C 242.535156 229.222656 242.914062 229.566406 243.3125 229.894531 C 243.710938 230.222656 244.121094 230.527344 244.550781 230.816406 C 244.976562 231.101562 245.417969 231.363281 245.871094 231.605469 C 246.328125 231.847656 246.792969 232.066406 247.269531 232.265625 C 247.742188 232.460938 248.226562 232.632812 248.722656 232.777344 C 249.214844 232.925781 249.714844 233.046875 250.21875 233.144531 C 250.722656 233.242188 251.234375 233.316406 251.746094 233.359375 C 252.257812 233.40625 252.773438 233.429688 253.285156 233.421875 C 253.800781 233.417969 254.3125 233.386719 254.824219 233.332031 C 255.335938 233.277344 255.84375 233.195312 256.347656 233.089844 C 256.851562 232.980469 257.347656 232.851562 257.839844 232.695312 C 258.328125 232.539062 258.808594 232.355469 259.28125 232.152344 C 259.753906 231.949219 260.214844 231.71875 260.664062 231.46875 C 261.113281 231.21875 261.550781 230.945312 261.972656 230.652344 C 262.394531 230.359375 262.800781 230.042969 263.191406 229.710938 C 290.230469 207.777344 323.132812 193.558594 370.40625 193.558594 C 384.054688 193.558594 397.085938 194.722656 409.515625 196.9375 C 410.015625 197.039062 410.523438 197.113281 411.03125 197.160156 C 411.539062 197.207031 412.050781 197.230469 412.5625 197.230469 C 413.074219 197.226562 413.585938 197.199219 414.09375 197.148438 C 414.601562 197.09375 415.109375 197.015625 415.609375 196.914062 C 416.109375 196.808594 416.605469 196.683594 417.09375 196.53125 C 417.582031 196.378906 418.0625 196.203125 418.53125 196 C 419.003906 195.800781 419.464844 195.578125 419.914062 195.332031 C 420.363281 195.085938 420.796875 194.820312 421.21875 194.53125 C 421.640625 194.242188 422.050781 193.933594 422.441406 193.605469 C 422.832031 193.273438 423.207031 192.925781 423.5625 192.558594 C 423.921875 192.195312 424.257812 191.808594 424.578125 191.410156 C 424.898438 191.011719 425.195312 190.59375 425.472656 190.164062 C 425.75 189.734375 426.007812 189.292969 426.242188 188.839844 C 426.472656 188.382812 426.683594 187.917969 426.871094 187.441406 C 427.058594 186.964844 427.222656 186.480469 427.363281 185.988281 C 427.503906 185.496094 427.617188 185 427.707031 184.496094 C 427.796875 183.992188 427.863281 183.484375 427.902344 182.972656 C 427.941406 182.464844 427.957031 181.953125 427.945312 181.441406 C 427.933594 180.929688 427.894531 180.417969 427.835938 179.910156 C 427.773438 179.402344 427.6875 178.898438 427.574219 178.402344 C 427.460938 177.902344 427.324219 177.410156 427.164062 176.921875 C 427.003906 176.4375 426.820312 175.960938 426.613281 175.492188 C 426.402344 175.027344 426.171875 174.570312 425.917969 174.125 C 425.664062 173.679688 425.390625 173.25 425.09375 172.832031 C 424.796875 172.414062 424.480469 172.015625 424.144531 171.628906 C 423.808594 171.242188 423.457031 170.875 423.082031 170.523438 C 422.710938 170.171875 422.320312 169.839844 421.914062 169.53125 C 421.507812 169.21875 421.089844 168.925781 420.65625 168.65625 C 420.21875 168.386719 419.773438 168.136719 419.3125 167.914062 C 418.855469 167.6875 418.386719 167.484375 417.90625 167.304688 C 417.425781 167.125 416.941406 166.96875 416.445312 166.839844 C 415.949219 166.710938 415.449219 166.601562 414.945312 166.523438 C 400.675781 163.980469 385.804688 162.660156 370.40625 162.660156 Z M 468.839844 185.109375 C 467.976562 185.121094 467.121094 185.203125 466.269531 185.355469 C 465.421875 185.507812 464.589844 185.730469 463.777344 186.023438 C 462.96875 186.316406 462.183594 186.675781 461.433594 187.101562 C 460.679688 187.523438 459.96875 188.007812 459.296875 188.550781 C 458.628906 189.09375 458.007812 189.6875 457.4375 190.335938 C 456.863281 190.984375 456.351562 191.671875 455.894531 192.40625 C 455.441406 193.140625 455.046875 193.90625 454.722656 194.703125 C 454.394531 195.503906 454.136719 196.324219 453.945312 197.164062 C 453.757812 198.007812 453.636719 198.859375 453.589844 199.71875 C 453.542969 200.582031 453.570312 201.441406 453.667969 202.300781 C 453.761719 203.15625 453.929688 204 454.167969 204.832031 C 454.410156 205.660156 454.714844 206.464844 455.085938 207.242188 C 455.460938 208.019531 455.894531 208.761719 456.394531 209.46875 C 456.890625 210.171875 457.445312 210.832031 458.050781 211.445312 C 458.660156 212.058594 459.316406 212.613281 460.015625 213.117188 C 460.71875 213.621094 461.457031 214.0625 462.230469 214.441406 C 516.007812 241.867188 552.933594 294.710938 566.097656 366.316406 C 567.839844 375.800781 569.148438 385.609375 570.019531 395.738281 C 570.050781 396.25 570.105469 396.761719 570.191406 397.265625 C 570.273438 397.773438 570.378906 398.277344 570.511719 398.773438 C 570.644531 399.269531 570.800781 399.757812 570.984375 400.238281 C 571.164062 400.722656 571.367188 401.191406 571.597656 401.652344 C 571.824219 402.113281 572.078125 402.5625 572.347656 402.996094 C 572.621094 403.433594 572.917969 403.851562 573.230469 404.257812 C 573.546875 404.664062 573.878906 405.054688 574.234375 405.425781 C 574.589844 405.800781 574.960938 406.15625 575.347656 406.488281 C 575.738281 406.824219 576.144531 407.140625 576.566406 407.4375 C 576.984375 407.730469 577.417969 408.003906 577.867188 408.257812 C 578.316406 408.507812 578.773438 408.738281 579.246094 408.945312 C 579.71875 409.152344 580.195312 409.332031 580.6875 409.492188 C 581.175781 409.648438 581.671875 409.78125 582.171875 409.890625 C 582.675781 410 583.183594 410.082031 583.691406 410.140625 C 584.203125 410.199219 584.714844 410.230469 585.230469 410.238281 C 585.742188 410.246094 586.257812 410.226562 586.769531 410.183594 C 587.28125 410.140625 587.789062 410.070312 588.296875 409.976562 C 588.800781 409.878906 589.300781 409.761719 589.792969 409.617188 C 590.285156 409.46875 590.769531 409.300781 591.246094 409.109375 C 591.722656 408.914062 592.1875 408.699219 592.644531 408.460938 C 593.097656 408.21875 593.539062 407.957031 593.96875 407.675781 C 594.398438 407.390625 594.8125 407.085938 595.210938 406.761719 C 595.609375 406.4375 595.988281 406.09375 596.351562 405.730469 C 596.714844 405.367188 597.0625 404.984375 597.386719 404.589844 C 597.714844 404.191406 598.019531 403.777344 598.304688 403.351562 C 598.589844 402.921875 598.851562 402.480469 599.09375 402.027344 C 599.332031 401.574219 599.550781 401.109375 599.746094 400.632812 C 599.9375 400.15625 600.109375 399.671875 600.253906 399.179688 C 600.402344 398.6875 600.523438 398.1875 600.621094 397.683594 C 600.714844 397.179688 600.785156 396.667969 600.832031 396.15625 C 600.878906 395.644531 600.898438 395.132812 600.890625 394.617188 C 600.886719 394.105469 600.855469 393.59375 600.796875 393.082031 C 599.847656 382.011719 598.414062 371.207031 596.484375 360.703125 C 581.925781 281.515625 539.351562 219.070312 476.261719 186.890625 C 473.941406 185.667969 471.464844 185.074219 468.839844 185.109375 Z M 370.40625 239.910156 C 330.175781 239.910156 298.957031 252.636719 275.351562 272.527344 C 251.75 292.421875 235.589844 318.609375 221.246094 345.554688 C 220.984375 346.003906 220.742188 346.460938 220.523438 346.933594 C 220.304688 347.40625 220.113281 347.890625 219.945312 348.382812 C 219.773438 348.875 219.628906 349.371094 219.511719 349.878906 C 219.390625 350.386719 219.300781 350.894531 219.230469 351.414062 C 219.164062 351.929688 219.125 352.445312 219.109375 352.964844 C 219.09375 353.484375 219.105469 354.003906 219.144531 354.523438 C 219.179688 355.042969 219.242188 355.558594 219.332031 356.070312 C 219.421875 356.582031 219.539062 357.089844 219.679688 357.589844 C 219.820312 358.089844 219.984375 358.585938 220.175781 359.066406 C 220.367188 359.550781 220.582031 360.027344 220.820312 360.488281 C 221.058594 360.949219 221.316406 361.398438 221.601562 361.835938 C 221.886719 362.273438 222.191406 362.691406 222.515625 363.097656 C 222.84375 363.503906 223.1875 363.890625 223.554688 364.261719 C 223.917969 364.632812 224.300781 364.980469 224.703125 365.3125 C 225.105469 365.644531 225.519531 365.957031 225.953125 366.246094 C 226.386719 366.535156 226.832031 366.800781 227.289062 367.046875 C 227.75 367.292969 228.21875 367.511719 228.699219 367.710938 C 229.183594 367.90625 229.671875 368.078125 230.171875 368.226562 C 230.667969 368.375 231.175781 368.496094 231.6875 368.59375 C 232.195312 368.6875 232.710938 368.757812 233.230469 368.804688 C 233.75 368.847656 234.269531 368.867188 234.789062 368.859375 C 235.308594 368.851562 235.828125 368.816406 236.34375 368.757812 C 236.859375 368.695312 237.371094 368.609375 237.878906 368.5 C 238.386719 368.386719 238.890625 368.25 239.382812 368.085938 C 239.878906 367.925781 240.363281 367.738281 240.835938 367.527344 C 241.3125 367.3125 241.777344 367.078125 242.226562 366.820312 C 242.679688 366.5625 243.117188 366.28125 243.539062 365.980469 C 243.964844 365.675781 244.371094 365.355469 244.761719 365.011719 C 245.152344 364.667969 245.523438 364.304688 245.878906 363.921875 C 246.230469 363.542969 246.566406 363.144531 246.878906 362.730469 C 247.191406 362.3125 247.484375 361.882812 247.753906 361.441406 C 248.023438 360.996094 248.273438 360.539062 248.496094 360.070312 C 262.164062 334.390625 276.664062 311.839844 295.269531 296.15625 C 313.875 280.476562 336.398438 270.808594 370.40625 270.808594 C 432.328125 270.808594 492.40625 323.496094 492.40625 425.308594 C 492.398438 425.820312 492.417969 426.328125 492.460938 426.835938 C 492.503906 427.347656 492.574219 427.851562 492.664062 428.355469 C 492.757812 428.855469 492.878906 429.351562 493.019531 429.84375 C 493.164062 430.332031 493.328125 430.816406 493.519531 431.289062 C 493.710938 431.761719 493.921875 432.226562 494.160156 432.679688 C 494.394531 433.132812 494.652344 433.570312 494.933594 434 C 495.214844 434.425781 495.515625 434.835938 495.835938 435.234375 C 496.15625 435.632812 496.496094 436.011719 496.851562 436.375 C 497.210938 436.738281 497.585938 437.085938 497.980469 437.410156 C 498.375 437.738281 498.78125 438.042969 499.203125 438.328125 C 499.628906 438.617188 500.0625 438.878906 500.511719 439.121094 C 500.960938 439.367188 501.421875 439.585938 501.894531 439.78125 C 502.363281 439.980469 502.84375 440.152344 503.332031 440.300781 C 503.820312 440.453125 504.316406 440.578125 504.816406 440.675781 C 505.316406 440.777344 505.820312 440.855469 506.328125 440.902344 C 506.835938 440.953125 507.347656 440.980469 507.855469 440.980469 C 508.367188 440.980469 508.875 440.953125 509.386719 440.902344 C 509.894531 440.855469 510.398438 440.777344 510.898438 440.675781 C 511.398438 440.578125 511.894531 440.453125 512.382812 440.300781 C 512.871094 440.152344 513.347656 439.980469 513.820312 439.78125 C 514.292969 439.585938 514.75 439.367188 515.199219 439.121094 C 515.648438 438.878906 516.085938 438.617188 516.507812 438.328125 C 516.933594 438.042969 517.339844 437.738281 517.734375 437.410156 C 518.125 437.085938 518.5 436.738281 518.859375 436.375 C 519.21875 436.011719 519.558594 435.632812 519.878906 435.234375 C 520.199219 434.835938 520.5 434.425781 520.78125 434 C 521.058594 433.570312 521.316406 433.132812 521.554688 432.679688 C 521.789062 432.226562 522.003906 431.761719 522.195312 431.289062 C 522.382812 430.816406 522.550781 430.332031 522.695312 429.84375 C 522.835938 429.351562 522.953125 428.855469 523.046875 428.355469 C 523.140625 427.851562 523.210938 427.347656 523.253906 426.835938 C 523.296875 426.328125 523.3125 425.820312 523.308594 425.308594 C 523.308594 310.820312 450.285156 239.910156 370.40625 239.910156 Z M 210.414062 248.8125 C 209.160156 248.785156 207.917969 248.910156 206.695312 249.1875 C 205.46875 249.464844 204.296875 249.882812 203.171875 250.445312 C 202.050781 251.007812 201.011719 251.699219 200.058594 252.511719 C 199.101562 253.328125 198.261719 254.246094 197.53125 255.269531 C 166.707031 296.96875 144.6875 343.476562 119.101562 376.695312 C 93.519531 409.914062 67.808594 429.519531 22.660156 425.367188 C 21.652344 425.277344 20.644531 425.285156 19.632812 425.390625 C 18.625 425.496094 17.636719 425.699219 16.667969 426.003906 C 15.699219 426.304688 14.769531 426.695312 13.878906 427.179688 C 12.988281 427.664062 12.152344 428.230469 11.371094 428.878906 C 10.59375 429.527344 9.882812 430.246094 9.246094 431.035156 C 8.609375 431.824219 8.054688 432.664062 7.582031 433.5625 C 7.109375 434.460938 6.726562 435.394531 6.441406 436.367188 C 6.152344 437.339844 5.960938 438.332031 5.867188 439.339844 C 5.773438 440.351562 5.78125 441.359375 5.886719 442.371094 C 5.992188 443.378906 6.195312 444.367188 6.496094 445.335938 C 6.796875 446.304688 7.1875 447.234375 7.671875 448.125 C 8.15625 449.019531 8.71875 449.855469 9.367188 450.632812 C 10.015625 451.414062 10.734375 452.125 11.523438 452.761719 C 12.308594 453.402344 13.152344 453.957031 14.046875 454.429688 C 14.945312 454.902344 15.878906 455.285156 16.851562 455.574219 C 17.824219 455.863281 18.816406 456.054688 19.824219 456.148438 C 75.84375 461.296875 114.890625 432.800781 143.574219 395.554688 C 172.261719 358.308594 194.027344 311.992188 222.394531 273.617188 C 223.257812 272.480469 223.949219 271.25 224.472656 269.921875 C 224.996094 268.597656 225.328125 267.222656 225.472656 265.804688 C 225.613281 264.386719 225.5625 262.976562 225.3125 261.570312 C 225.066406 260.167969 224.632812 258.824219 224.011719 257.539062 C 223.390625 256.253906 222.609375 255.078125 221.664062 254.011719 C 220.71875 252.945312 219.644531 252.027344 218.445312 251.257812 C 217.246094 250.484375 215.964844 249.894531 214.597656 249.476562 C 213.234375 249.0625 211.839844 248.839844 210.414062 248.8125 Z M 85.910156 292.355469 C 84.65625 292.332031 83.417969 292.460938 82.195312 292.742188 C 80.972656 293.023438 79.800781 293.445312 78.679688 294.007812 C 77.5625 294.574219 76.523438 295.265625 75.574219 296.082031 C 74.621094 296.902344 73.78125 297.820312 73.054688 298.84375 C 54.941406 323.542969 36.875 341.230469 14.542969 348.902344 C 14.050781 349.058594 13.570312 349.234375 13.09375 349.4375 C 12.621094 349.640625 12.15625 349.863281 11.707031 350.113281 C 11.253906 350.359375 10.816406 350.628906 10.390625 350.921875 C 9.96875 351.214844 9.558594 351.527344 9.164062 351.859375 C 8.769531 352.191406 8.394531 352.542969 8.039062 352.914062 C 7.679688 353.285156 7.339844 353.671875 7.019531 354.078125 C 6.703125 354.480469 6.402344 354.902344 6.125 355.335938 C 5.847656 355.769531 5.59375 356.21875 5.359375 356.675781 C 5.128906 357.136719 4.917969 357.605469 4.734375 358.085938 C 4.546875 358.570312 4.386719 359.058594 4.25 359.554688 C 4.113281 360.050781 4 360.554688 3.914062 361.0625 C 3.828125 361.570312 3.765625 362.082031 3.730469 362.59375 C 3.695312 363.109375 3.6875 363.625 3.703125 364.140625 C 3.71875 364.652344 3.761719 365.167969 3.828125 365.679688 C 3.894531 366.1875 3.988281 366.695312 4.105469 367.195312 C 4.226562 367.699219 4.367188 368.191406 4.535156 368.679688 C 4.703125 369.167969 4.894531 369.644531 5.109375 370.113281 C 5.324219 370.582031 5.5625 371.039062 5.824219 371.484375 C 6.085938 371.925781 6.367188 372.355469 6.671875 372.773438 C 6.976562 373.1875 7.300781 373.589844 7.644531 373.972656 C 7.988281 374.355469 8.351562 374.722656 8.734375 375.070312 C 9.113281 375.417969 9.511719 375.742188 9.925781 376.050781 C 10.339844 376.359375 10.765625 376.644531 11.207031 376.910156 C 11.648438 377.175781 12.105469 377.417969 12.570312 377.636719 C 13.035156 377.855469 13.511719 378.050781 14 378.222656 C 14.484375 378.394531 14.976562 378.542969 15.480469 378.664062 C 15.980469 378.785156 16.484375 378.882812 16.996094 378.953125 C 17.503906 379.027344 18.019531 379.074219 18.535156 379.09375 C 19.046875 379.113281 19.5625 379.109375 20.078125 379.078125 C 20.59375 379.046875 21.105469 378.988281 21.613281 378.90625 C 22.121094 378.824219 22.625 378.71875 23.121094 378.585938 C 23.621094 378.453125 24.109375 378.296875 24.59375 378.113281 C 55.78125 367.398438 78.273438 343.972656 97.980469 317.097656 C 98.835938 315.960938 99.523438 314.726562 100.039062 313.398438 C 100.554688 312.074219 100.882812 310.699219 101.019531 309.28125 C 101.152344 307.863281 101.09375 306.453125 100.84375 305.050781 C 100.589844 303.652344 100.148438 302.308594 99.523438 301.03125 C 98.898438 299.75 98.113281 298.578125 97.164062 297.515625 C 96.214844 296.453125 95.140625 295.539062 93.941406 294.773438 C 92.738281 294.007812 91.457031 293.417969 90.09375 293.007812 C 88.726562 292.597656 87.335938 292.378906 85.910156 292.355469 Z M 345.996094 307.503906 C 343.535156 307.605469 341.230469 308.261719 339.085938 309.464844 C 312.152344 324.066406 299.503906 353.53125 289.082031 382.941406 C 278.660156 412.355469 270.558594 443.429688 260.054688 463.660156 C 229.75 522.039062 171.644531 579.808594 92.308594 579.808594 C 91.796875 579.800781 91.289062 579.820312 90.777344 579.863281 C 90.269531 579.90625 89.765625 579.972656 89.261719 580.066406 C 88.761719 580.160156 88.265625 580.277344 87.773438 580.421875 C 87.285156 580.5625 86.800781 580.730469 86.328125 580.921875 C 85.855469 581.113281 85.390625 581.324219 84.9375 581.5625 C 84.484375 581.796875 84.046875 582.054688 83.617188 582.335938 C 83.191406 582.617188 82.78125 582.914062 82.382812 583.238281 C 81.984375 583.558594 81.605469 583.898438 81.242188 584.253906 C 80.878906 584.613281 80.53125 584.988281 80.207031 585.382812 C 79.878906 585.773438 79.574219 586.183594 79.289062 586.605469 C 79 587.027344 78.738281 587.464844 78.496094 587.914062 C 78.253906 588.363281 78.03125 588.824219 77.835938 589.296875 C 77.636719 589.765625 77.464844 590.246094 77.316406 590.734375 C 77.164062 591.222656 77.039062 591.714844 76.941406 592.21875 C 76.839844 592.71875 76.765625 593.222656 76.714844 593.730469 C 76.664062 594.238281 76.636719 594.746094 76.636719 595.257812 C 76.636719 595.769531 76.664062 596.277344 76.714844 596.785156 C 76.765625 597.292969 76.839844 597.796875 76.941406 598.300781 C 77.039062 598.800781 77.164062 599.292969 77.316406 599.78125 C 77.464844 600.269531 77.636719 600.75 77.835938 601.222656 C 78.03125 601.691406 78.253906 602.152344 78.496094 602.601562 C 78.738281 603.050781 79 603.488281 79.289062 603.910156 C 79.574219 604.332031 79.878906 604.742188 80.207031 605.132812 C 80.53125 605.527344 80.878906 605.902344 81.242188 606.261719 C 81.605469 606.621094 81.984375 606.957031 82.382812 607.28125 C 82.78125 607.601562 83.191406 607.902344 83.617188 608.179688 C 84.046875 608.460938 84.484375 608.71875 84.9375 608.953125 C 85.390625 609.191406 85.855469 609.40625 86.328125 609.59375 C 86.800781 609.785156 87.285156 609.953125 87.773438 610.09375 C 88.265625 610.238281 88.761719 610.355469 89.261719 610.449219 C 89.765625 610.542969 90.269531 610.609375 90.777344 610.652344 C 91.289062 610.699219 91.796875 610.714844 92.308594 610.707031 C 186.503906 610.707031 253.546875 543.28125 287.484375 477.90625 C 300.726562 452.402344 308.464844 420.738281 318.203125 393.261719 C 327.9375 365.789062 339.769531 344.234375 353.808594 336.621094 C 354.582031 336.21875 355.3125 335.75 356.003906 335.222656 C 356.695312 334.695312 357.339844 334.109375 357.933594 333.472656 C 358.527344 332.835938 359.0625 332.152344 359.542969 331.425781 C 360.019531 330.699219 360.433594 329.933594 360.78125 329.136719 C 361.132812 328.339844 361.410156 327.519531 361.621094 326.671875 C 361.832031 325.828125 361.96875 324.96875 362.035156 324.101562 C 362.101562 323.234375 362.09375 322.367188 362.011719 321.5 C 361.929688 320.632812 361.777344 319.777344 361.550781 318.9375 C 361.324219 318.09375 361.03125 317.277344 360.667969 316.488281 C 360.304688 315.695312 359.875 314.941406 359.382812 314.222656 C 358.894531 313.503906 358.34375 312.828125 357.738281 312.203125 C 357.132812 311.578125 356.480469 311.007812 355.777344 310.492188 C 355.078125 309.976562 354.335938 309.523438 353.558594 309.132812 C 352.78125 308.742188 351.972656 308.417969 351.140625 308.164062 C 350.308594 307.910156 349.460938 307.726562 348.59375 307.617188 C 347.730469 307.503906 346.863281 307.46875 345.996094 307.503906 Z M 401.066406 310.339844 C 400.234375 310.328125 399.410156 310.382812 398.585938 310.503906 C 397.765625 310.628906 396.960938 310.8125 396.167969 311.066406 C 395.378906 311.316406 394.613281 311.632812 393.871094 312.007812 C 393.128906 312.382812 392.425781 312.816406 391.753906 313.304688 C 391.082031 313.792969 390.453125 314.332031 389.871094 314.921875 C 389.289062 315.515625 388.753906 316.148438 388.273438 316.824219 C 387.789062 317.5 387.367188 318.210938 387 318.953125 C 386.632812 319.699219 386.328125 320.46875 386.082031 321.261719 C 385.839844 322.058594 385.660156 322.867188 385.546875 323.6875 C 385.4375 324.511719 385.390625 325.335938 385.410156 326.167969 C 385.429688 326.996094 385.515625 327.820312 385.667969 328.636719 C 385.824219 329.453125 386.039062 330.25 386.320312 331.03125 C 386.605469 331.8125 386.945312 332.566406 387.347656 333.292969 C 387.753906 334.019531 388.210938 334.707031 388.726562 335.359375 C 389.238281 336.011719 389.804688 336.617188 390.414062 337.179688 C 391.027344 337.738281 391.679688 338.25 392.375 338.703125 C 407.621094 349.058594 416.757812 376.671875 416.757812 411.878906 C 416.757812 435.167969 408.242188 489.988281 386.21875 546.613281 C 364.195312 603.242188 328.777344 662.246094 276.863281 699.304688 C 276.433594 699.589844 276.023438 699.898438 275.625 700.226562 C 275.226562 700.554688 274.847656 700.902344 274.484375 701.269531 C 274.125 701.636719 273.78125 702.019531 273.457031 702.421875 C 273.132812 702.824219 272.828125 703.238281 272.546875 703.671875 C 272.265625 704.101562 272.003906 704.546875 271.765625 705.003906 C 271.53125 705.460938 271.316406 705.929688 271.125 706.40625 C 270.933594 706.886719 270.765625 707.371094 270.625 707.867188 C 270.484375 708.363281 270.367188 708.863281 270.273438 709.371094 C 270.179688 709.878906 270.113281 710.390625 270.074219 710.902344 C 270.03125 711.417969 270.015625 711.929688 270.027344 712.445312 C 270.039062 712.960938 270.074219 713.476562 270.136719 713.988281 C 270.199219 714.496094 270.285156 715.003906 270.398438 715.507812 C 270.511719 716.011719 270.648438 716.507812 270.8125 716.996094 C 270.972656 717.484375 271.160156 717.964844 271.371094 718.4375 C 271.578125 718.90625 271.8125 719.363281 272.070312 719.8125 C 272.324219 720.257812 272.601562 720.691406 272.902344 721.113281 C 273.203125 721.53125 273.523438 721.933594 273.863281 722.324219 C 274.203125 722.710938 274.558594 723.078125 274.9375 723.429688 C 275.3125 723.78125 275.707031 724.113281 276.117188 724.425781 C 276.527344 724.738281 276.953125 725.027344 277.390625 725.300781 C 277.832031 725.570312 278.28125 725.816406 278.746094 726.039062 C 279.210938 726.265625 279.683594 726.464844 280.167969 726.640625 C 280.652344 726.820312 281.144531 726.972656 281.644531 727.101562 C 282.140625 727.226562 282.648438 727.332031 283.15625 727.40625 C 283.664062 727.484375 284.179688 727.535156 284.691406 727.5625 C 285.207031 727.589844 285.722656 727.589844 286.238281 727.5625 C 286.75 727.539062 287.265625 727.488281 287.773438 727.410156 C 288.28125 727.335938 288.789062 727.234375 289.285156 727.105469 C 289.785156 726.976562 290.277344 726.828125 290.761719 726.648438 C 291.246094 726.472656 291.722656 726.273438 292.183594 726.050781 C 292.648438 725.828125 293.101562 725.578125 293.542969 725.3125 C 293.980469 725.042969 294.40625 724.75 294.816406 724.441406 C 353.847656 682.304688 391.609375 618.035156 415.035156 557.808594 C 438.460938 497.585938 447.65625 442 447.65625 411.878906 C 447.65625 371.847656 439.191406 333.132812 409.753906 313.144531 C 408.480469 312.25 407.105469 311.5625 405.621094 311.085938 C 404.140625 310.605469 402.621094 310.359375 401.066406 310.339844 Z M 369.683594 378.746094 C 368.734375 378.792969 367.796875 378.925781 366.871094 379.140625 C 365.945312 379.359375 365.050781 379.660156 364.179688 380.042969 C 363.3125 380.429688 362.484375 380.886719 361.699219 381.421875 C 360.917969 381.960938 360.1875 382.5625 359.515625 383.234375 C 358.839844 383.902344 358.234375 384.628906 357.695312 385.414062 C 357.15625 386.195312 356.691406 387.019531 356.304688 387.886719 C 355.917969 388.753906 355.613281 389.648438 355.394531 390.574219 C 355.171875 391.496094 355.035156 392.433594 354.988281 393.382812 C 354.988281 393.382812 351.558594 444.277344 324.933594 504.066406 C 324.710938 504.53125 324.511719 505.003906 324.339844 505.488281 C 324.164062 505.972656 324.015625 506.464844 323.890625 506.964844 C 323.765625 507.460938 323.667969 507.964844 323.589844 508.476562 C 323.515625 508.984375 323.46875 509.496094 323.445312 510.007812 C 323.421875 510.523438 323.421875 511.035156 323.449219 511.550781 C 323.476562 512.0625 323.53125 512.574219 323.609375 513.082031 C 323.6875 513.589844 323.792969 514.09375 323.921875 514.589844 C 324.050781 515.089844 324.203125 515.578125 324.382812 516.0625 C 324.558594 516.542969 324.761719 517.015625 324.988281 517.480469 C 325.210938 517.941406 325.460938 518.390625 325.730469 518.828125 C 326 519.265625 326.289062 519.6875 326.601562 520.097656 C 326.914062 520.507812 327.246094 520.898438 327.597656 521.273438 C 327.949219 521.648438 328.316406 522.007812 328.707031 522.34375 C 329.09375 522.683594 329.496094 523.003906 329.914062 523.300781 C 330.332031 523.597656 330.765625 523.875 331.210938 524.128906 C 331.660156 524.386719 332.117188 524.617188 332.585938 524.828125 C 333.054688 525.035156 333.535156 525.222656 334.023438 525.382812 C 334.511719 525.546875 335.003906 525.683594 335.507812 525.796875 C 336.007812 525.90625 336.515625 525.996094 337.027344 526.054688 C 337.535156 526.117188 338.050781 526.152344 338.5625 526.164062 C 339.078125 526.175781 339.589844 526.160156 340.101562 526.117188 C 340.617188 526.078125 341.125 526.011719 341.632812 525.921875 C 342.136719 525.828125 342.636719 525.710938 343.132812 525.570312 C 343.625 525.429688 344.113281 525.265625 344.589844 525.074219 C 345.066406 524.882812 345.535156 524.671875 345.992188 524.433594 C 346.449219 524.195312 346.890625 523.9375 347.320312 523.65625 C 347.753906 523.375 348.167969 523.074219 348.570312 522.75 C 348.96875 522.429688 349.351562 522.085938 349.71875 521.726562 C 350.085938 521.367188 350.433594 520.988281 350.761719 520.59375 C 351.089844 520.199219 351.398438 519.785156 351.6875 519.359375 C 351.972656 518.933594 352.238281 518.496094 352.484375 518.042969 C 352.726562 517.589844 352.949219 517.125 353.144531 516.652344 C 382.046875 451.757812 385.828125 395.433594 385.828125 395.433594 C 385.871094 394.890625 385.886719 394.34375 385.871094 393.792969 C 385.859375 393.246094 385.816406 392.703125 385.746094 392.160156 C 385.671875 391.613281 385.570312 391.078125 385.441406 390.546875 C 385.3125 390.011719 385.15625 389.488281 384.972656 388.972656 C 384.789062 388.457031 384.578125 387.953125 384.339844 387.460938 C 384.101562 386.964844 383.835938 386.488281 383.546875 386.023438 C 383.257812 385.554688 382.945312 385.109375 382.609375 384.675781 C 382.269531 384.242188 381.910156 383.832031 381.53125 383.4375 C 381.148438 383.042969 380.75 382.671875 380.328125 382.320312 C 379.90625 381.96875 379.46875 381.640625 379.015625 381.335938 C 378.558594 381.03125 378.089844 380.753906 377.605469 380.5 C 377.117188 380.242188 376.621094 380.015625 376.113281 379.8125 C 375.601562 379.613281 375.085938 379.4375 374.558594 379.292969 C 374.027344 379.144531 373.496094 379.027344 372.953125 378.9375 C 372.414062 378.847656 371.871094 378.789062 371.324219 378.753906 C 370.777344 378.722656 370.230469 378.722656 369.683594 378.746094 Z M 205.226562 394.5 C 203.839844 394.53125 202.484375 394.742188 201.15625 395.140625 C 199.828125 395.535156 198.574219 396.101562 197.398438 396.832031 C 196.222656 397.566406 195.164062 398.441406 194.226562 399.457031 C 193.285156 400.476562 192.496094 401.597656 191.855469 402.828125 C 176.941406 430.597656 160.539062 455.601562 138.265625 473.378906 C 115.992188 491.152344 87.804688 502.558594 45.503906 502.558594 C 44.996094 502.550781 44.484375 502.570312 43.976562 502.613281 C 43.46875 502.65625 42.960938 502.722656 42.460938 502.816406 C 41.957031 502.910156 41.460938 503.027344 40.972656 503.171875 C 40.480469 503.3125 40 503.480469 39.523438 503.671875 C 39.050781 503.859375 38.585938 504.074219 38.136719 504.3125 C 37.683594 504.546875 37.242188 504.804688 36.816406 505.085938 C 36.386719 505.363281 35.976562 505.664062 35.578125 505.984375 C 35.179688 506.308594 34.800781 506.648438 34.4375 507.003906 C 34.074219 507.363281 33.730469 507.738281 33.402344 508.132812 C 33.074219 508.523438 32.769531 508.933594 32.484375 509.355469 C 32.199219 509.777344 31.933594 510.214844 31.691406 510.664062 C 31.449219 511.113281 31.226562 511.574219 31.03125 512.042969 C 30.832031 512.515625 30.660156 512.996094 30.511719 513.484375 C 30.363281 513.972656 30.238281 514.464844 30.136719 514.96875 C 30.035156 515.46875 29.960938 515.972656 29.910156 516.480469 C 29.859375 516.988281 29.832031 517.496094 29.832031 518.007812 C 29.832031 518.519531 29.859375 519.027344 29.910156 519.535156 C 29.960938 520.042969 30.035156 520.550781 30.136719 521.050781 C 30.238281 521.550781 30.363281 522.046875 30.511719 522.535156 C 30.660156 523.023438 30.832031 523.5 31.03125 523.972656 C 31.226562 524.441406 31.449219 524.902344 31.691406 525.351562 C 31.933594 525.800781 32.199219 526.238281 32.484375 526.660156 C 32.769531 527.085938 33.074219 527.492188 33.402344 527.886719 C 33.730469 528.277344 34.074219 528.652344 34.4375 529.011719 C 34.800781 529.371094 35.179688 529.710938 35.578125 530.03125 C 35.976562 530.351562 36.386719 530.652344 36.816406 530.933594 C 37.242188 531.210938 37.683594 531.46875 38.136719 531.707031 C 38.585938 531.941406 39.050781 532.15625 39.523438 532.347656 C 40 532.535156 40.480469 532.703125 40.972656 532.84375 C 41.460938 532.988281 41.957031 533.105469 42.460938 533.199219 C 42.960938 533.292969 43.46875 533.359375 43.976562 533.40625 C 44.484375 533.449219 44.996094 533.464844 45.503906 533.457031 C 93.601562 533.457031 130.09375 519.425781 157.546875 497.519531 C 185 475.613281 203.386719 446.671875 219.074219 417.464844 C 219.738281 416.273438 220.234375 415.019531 220.5625 413.699219 C 220.894531 412.378906 221.046875 411.039062 221.023438 409.679688 C 221 408.316406 220.800781 406.984375 220.425781 405.675781 C 220.046875 404.367188 219.507812 403.132812 218.804688 401.964844 C 218.101562 400.800781 217.261719 399.746094 216.28125 398.804688 C 215.296875 397.863281 214.210938 397.0625 213.019531 396.40625 C 211.828125 395.75 210.570312 395.261719 209.25 394.9375 C 207.925781 394.613281 206.585938 394.46875 205.226562 394.5 Z M 600.554688 440.757812 C 515.582031 440.757812 446.058594 510.285156 446.058594 595.257812 C 446.058594 680.234375 515.582031 749.757812 600.554688 749.757812 C 685.53125 749.757812 755.054688 680.234375 755.054688 595.257812 C 755.054688 510.285156 685.53125 440.757812 600.554688 440.757812 Z M 310.960938 545.527344 C 309.703125 545.566406 308.46875 545.753906 307.257812 546.09375 C 306.046875 546.433594 304.894531 546.914062 303.800781 547.535156 C 302.707031 548.152344 301.703125 548.898438 300.792969 549.761719 C 299.878906 550.628906 299.085938 551.589844 298.40625 552.648438 C 271.707031 593.117188 232.945312 631.78125 175.652344 656.816406 C 175.175781 657.007812 174.707031 657.226562 174.25 657.464844 C 173.796875 657.703125 173.351562 657.964844 172.921875 658.25 C 172.492188 658.535156 172.078125 658.839844 171.679688 659.164062 C 171.28125 659.488281 170.898438 659.835938 170.53125 660.199219 C 170.167969 660.5625 169.820312 660.941406 169.496094 661.339844 C 169.167969 661.738281 168.859375 662.152344 168.574219 662.582031 C 168.289062 663.011719 168.027344 663.453125 167.785156 663.90625 C 167.542969 664.363281 167.328125 664.828125 167.132812 665.304688 C 166.9375 665.78125 166.765625 666.269531 166.621094 666.761719 C 166.472656 667.257812 166.351562 667.757812 166.257812 668.261719 C 166.160156 668.769531 166.089844 669.277344 166.046875 669.792969 C 166 670.304688 165.980469 670.820312 165.988281 671.335938 C 165.992188 671.847656 166.027344 672.363281 166.082031 672.875 C 166.140625 673.386719 166.222656 673.894531 166.332031 674.398438 C 166.441406 674.902344 166.574219 675.398438 166.734375 675.890625 C 166.890625 676.378906 167.074219 676.859375 167.28125 677.332031 C 167.484375 677.804688 167.714844 678.265625 167.96875 678.714844 C 168.21875 679.164062 168.496094 679.597656 168.789062 680.019531 C 169.085938 680.441406 169.402344 680.847656 169.738281 681.238281 C 170.074219 681.628906 170.429688 682 170.804688 682.355469 C 171.179688 682.710938 171.570312 683.042969 171.976562 683.359375 C 172.382812 683.675781 172.804688 683.96875 173.242188 684.242188 C 173.679688 684.515625 174.128906 684.765625 174.589844 684.996094 C 175.050781 685.222656 175.523438 685.429688 176.007812 685.609375 C 176.488281 685.789062 176.980469 685.949219 177.476562 686.078125 C 177.976562 686.210938 178.476562 686.320312 178.988281 686.398438 C 179.496094 686.480469 180.007812 686.539062 180.519531 686.570312 C 181.035156 686.597656 181.550781 686.605469 182.066406 686.582031 C 182.578125 686.5625 183.09375 686.515625 183.601562 686.441406 C 184.113281 686.371094 184.617188 686.273438 185.117188 686.152344 C 185.617188 686.027344 186.113281 685.882812 186.597656 685.707031 C 187.082031 685.535156 187.558594 685.339844 188.023438 685.121094 C 251.367188 657.441406 294.886719 614.082031 324.207031 569.640625 C 325.003906 568.460938 325.628906 567.199219 326.078125 565.847656 C 326.527344 564.496094 326.785156 563.113281 326.847656 561.691406 C 326.914062 560.269531 326.789062 558.867188 326.464844 557.480469 C 326.144531 556.097656 325.640625 554.78125 324.957031 553.53125 C 324.273438 552.285156 323.429688 551.15625 322.433594 550.140625 C 321.4375 549.125 320.320312 548.265625 319.085938 547.558594 C 317.851562 546.855469 316.542969 546.328125 315.164062 545.984375 C 313.78125 545.636719 312.382812 545.488281 310.960938 545.527344 Z M 523.308594 579.808594 L 677.804688 579.808594 C 686.335938 579.808594 693.257812 586.730469 693.257812 595.257812 C 693.257812 603.785156 686.335938 610.707031 677.804688 610.707031 L 523.308594 610.707031 C 514.777344 610.707031 507.855469 603.785156 507.855469 595.257812 C 507.855469 586.730469 514.777344 579.808594 523.308594 579.808594 Z M 523.308594 579.808594 " fill-opacity="1" fill-rule="nonzero"/></g></svg>