<svg xmlns="http://www.w3.org/2000/svg" xmlns:xlink="http://www.w3.org/1999/xlink" width="1024" zoomAndPan="magnify" viewBox="0 0 768 767.999994" height="1024" preserveAspectRatio="xMidYMid meet" version="1.0"><path stroke-linecap="round" transform="matrix(0.941407, 0, 0, 0.940977, -83.596956, -84.254009)" fill="none" stroke-linejoin="round" d="M 778.210088 616.164876 C 842.280563 616.164876 894.409141 668.205202 894.409141 732.167977 C 894.409141 768.541408 877.554386 801.054158 851.23906 822.341873 " stroke="#11a0dc" stroke-width="20.475" stroke-opacity="1" stroke-miterlimit="10"/><path stroke-linecap="round" transform="matrix(0.941407, 0, 0, 0.940977, -83.596956, -84.254009)" fill="none" stroke-linejoin="round" d="M 817.122912 597.313957 C 804.786825 603.370661 790.068997 608.418605 776.633326 611.868311 C 773.396815 612.698565 772.753662 617.036643 775.608431 618.767723 C 787.471489 625.953572 800.093883 635.040703 810.147815 644.405969 " stroke="#11a0dc" stroke-width="20.475" stroke-opacity="1" stroke-miterlimit="10"/><path stroke-linecap="round" transform="matrix(0.941407, 0, 0, 0.940977, -83.596956, -84.254009)" fill="none" stroke-linejoin="round" d="M 778.210088 848.175229 C 714.139613 848.175229 662.015185 796.134903 662.015185 732.167977 C 662.015185 697.002565 677.770355 665.436305 702.608505 644.144439 " stroke="#11a0dc" stroke-width="20.475" stroke-opacity="1" stroke-miterlimit="10"/><path stroke-linecap="round" transform="matrix(0.941407, 0, 0, 0.940977, -83.596956, -84.254009)" fill="none" stroke-linejoin="round" d="M 737.118843 867.142384 C 749.425885 861.023411 764.118816 855.900743 777.53789 852.384617 C 780.770251 851.537758 781.388508 847.195529 778.52544 845.481054 C 766.629187 838.353323 753.957 829.332612 743.857426 820.017162 " stroke="#11a0dc" stroke-width="20.475" stroke-opacity="1" stroke-miterlimit="10"/><path stroke-linecap="round" transform="matrix(0.941407, 0, 0, 0.940977, -83.596956, -84.254009)" fill="none" stroke-linejoin="round" d="M 792.824181 487.815897 C 792.027501 510.979986 788.944517 533.546292 783.803443 555.282344 " stroke="#204482" stroke-width="20.475" stroke-opacity="1" stroke-miterlimit="10"/><path stroke-linecap="round" transform="matrix(0.941407, 0, 0, 0.940977, -83.596956, -84.254009)" fill="none" stroke-linejoin="round" d="M 548.326503 147.320394 C 662.417674 181.493652 750.886464 273.020862 781.459047 387.384211 " stroke="#204482" stroke-width="20.475" stroke-opacity="1" stroke-miterlimit="10"/><path stroke-linecap="round" transform="matrix(0.941407, 0, 0, 0.940977, -83.596956, -84.254009)" fill="none" stroke-linejoin="round" d="M 461.123272 133.064931 C 271.41392 126.547437 112.326944 274.805909 105.799979 464.220076 C 99.273015 653.617638 247.779089 812.445244 437.488441 818.958588 C 501.322401 821.150458 561.691635 805.823968 613.944694 777.296438 " stroke="#204482" stroke-width="20.475" stroke-opacity="1" stroke-miterlimit="10"/><path stroke-linecap="round" transform="matrix(0.941407, 0, 0, 0.940977, -83.596956, -84.254009)" fill="none" stroke-linejoin="round" d="M 723.691471 559.749111 C 730.886484 536.290282 735.135443 511.527954 736.019259 485.8648 C 741.459088 328.025196 617.268342 195.201147 459.168917 189.771285 C 301.08194 184.345575 168.04058 308.331569 162.604901 466.171173 C 157.165073 623.994172 281.355818 756.818221 439.442796 762.248082 C 499.214519 764.302961 555.384587 747.86393 602.44678 718.082716 " stroke="#204482" stroke-width="20.475" stroke-opacity="1" stroke-miterlimit="10"/><path stroke-linecap="round" transform="matrix(0.941407, 0, 0, 0.940977, -83.596956, -84.254009)" fill="none" stroke-linejoin="round" d="M 621.442612 484.565452 C 621.442612 436.485438 603.587858 391.269801 571.168803 357.241837 " stroke="#11a0dc" stroke-width="20.475" stroke-opacity="1" stroke-miterlimit="10"/><path stroke-linecap="round" transform="matrix(0.941407, 0, 0, 0.940977, -83.596956, -84.254009)" fill="none" stroke-linejoin="round" d="M 507.114926 314.716223 C 375.31008 265.53197 243.343409 394.773473 284.700213 537.116384 " stroke="#11a0dc" stroke-width="20.475" stroke-opacity="1" stroke-miterlimit="10"/><path stroke-linecap="round" transform="matrix(0.941407, 0, 0, 0.940977, -83.596956, -84.254009)" fill="none" stroke-linejoin="round" d="M 597.289109 596.089332 C 603.513169 582.560342 608.081629 568.271669 610.865859 553.621836 " stroke="#11a0dc" stroke-width="20.475" stroke-opacity="1" stroke-miterlimit="10"/><path stroke-linecap="round" transform="matrix(0.941407, 0, 0, 0.940977, -83.596956, -84.254009)" fill="none" stroke-linejoin="round" d="M 550.143928 565.490318 C 559.563006 536.232164 559.563006 509.481377 559.563006 487.986099 C 559.563006 434.829081 523.226943 402.889206 521.969683 401.814027 C 450.940709 336.99194 337.43045 388.833005 337.43045 487.986099 C 337.43045 529.669005 361.019638 543.870501 340.364057 610.423669 " stroke="#11a0dc" stroke-width="20.475" stroke-opacity="1" stroke-miterlimit="10"/><path stroke-linecap="round" transform="matrix(0.941407, 0, 0, 0.940977, -83.596956, -84.254009)" fill="none" stroke-linejoin="round" d="M 488.392954 647.951154 C 494.264317 621.769091 512.239402 532.466962 496.907468 482.726439 C 486.500839 448.955854 463.18551 437.348902 444.77474 437.398718 C 416.837009 437.751575 396.139935 463.759285 401.745738 493.299725 " stroke="#11a0dc" stroke-width="20.475" stroke-opacity="1" stroke-miterlimit="10"/><path stroke-linecap="round" transform="matrix(0.941407, 0, 0, 0.940977, -83.596956, -84.254009)" fill="none" stroke-linejoin="round" d="M 406.787227 540.354375 C 415.965641 579.982403 409.866062 610.423669 396.376449 638.614946 " stroke="#11a0dc" stroke-width="20.475" stroke-opacity="1" stroke-miterlimit="10"/></svg>