<svg xmlns="http://www.w3.org/2000/svg" xmlns:xlink="http://www.w3.org/1999/xlink" width="1024" zoomAndPan="magnify" viewBox="0 0 768 767.999994" height="1024" preserveAspectRatio="xMidYMid meet" version="1.0"><defs><clipPath id="f8d7377a54"><path d="M 198 8.710938 L 767.710938 8.710938 L 767.710938 579 L 198 579 Z M 198 8.710938 " clip-rule="nonzero"/></clipPath><clipPath id="10230e65d1"><path d="M 8.710938 494 L 283 494 L 283 767.710938 L 8.710938 767.710938 Z M 8.710938 494 " clip-rule="nonzero"/></clipPath></defs><path fill="#12367d" d="M 267.183594 453.550781 L 200.070312 520.65625 C 193.898438 526.839844 193.898438 536.851562 200.070312 543.039062 L 233.621094 576.585938 C 236.589844 579.554688 240.609375 581.222656 244.816406 581.222656 C 249.007812 581.222656 253.027344 579.554688 255.996094 576.585938 L 323.097656 509.488281 C 301.824219 493.683594 282.976562 474.824219 267.183594 453.550781 Z M 267.183594 453.550781 " fill-opacity="1" fill-rule="nonzero"/><g clip-path="url(#f8d7377a54)"><path fill="#12367d" d="M 483.261719 578.1875 C 407.203125 578.1875 335.710938 548.574219 281.933594 494.796875 C 228.152344 441.019531 198.53125 369.511719 198.53125 293.46875 C 198.53125 217.398438 228.15625 145.894531 281.933594 92.117188 C 335.710938 38.359375 407.203125 8.722656 483.261719 8.722656 C 559.308594 8.722656 630.8125 38.335938 684.613281 92.113281 C 738.367188 145.894531 767.980469 217.398438 767.980469 293.464844 C 767.980469 369.511719 738.367188 441.019531 684.613281 494.792969 C 630.8125 548.574219 559.308594 578.1875 483.261719 578.1875 Z M 483.261719 40.375 C 415.648438 40.375 352.105469 66.699219 304.304688 114.5 C 256.503906 162.300781 230.171875 225.855469 230.171875 293.46875 C 230.171875 361.054688 256.492188 424.613281 304.304688 472.414062 C 352.105469 520.238281 415.648438 546.558594 483.261719 546.558594 C 550.875 546.558594 614.40625 520.214844 662.230469 472.414062 C 710.03125 424.613281 736.351562 361.054688 736.351562 293.46875 C 736.351562 225.855469 710.03125 162.300781 662.230469 114.5 C 614.40625 66.699219 550.875 40.375 483.261719 40.375 Z M 483.261719 40.375 " fill-opacity="1" fill-rule="nonzero"/></g><path fill="#737373" d="M 378.714844 464.003906 C 375.832031 464.003906 372.925781 463.238281 370.316406 461.59375 C 362.914062 456.933594 360.691406 447.179688 365.335938 439.765625 C 379.703125 416.917969 372.542969 383.996094 364.964844 349.097656 C 357.804688 316.171875 350.414062 282.136719 359.058594 249.996094 C 369.183594 212.4375 399.199219 185.839844 450.824219 168.714844 C 485.765625 157.105469 520.867188 163.777344 552.308594 187.992188 C 578.792969 208.359375 600.644531 239.664062 615.566406 278.542969 C 630.464844 317.445312 636.976562 360.355469 634.378906 402.644531 C 633.824219 411.359375 626.316406 417.984375 617.605469 417.472656 C 608.894531 416.917969 602.265625 409.433594 602.777344 400.699219 C 607.410156 325.394531 578.722656 248.234375 533.035156 213.0625 C 509.957031 195.289062 485.648438 190.472656 460.789062 198.742188 C 419.449219 212.460938 396.847656 231.367188 389.609375 258.222656 C 382.957031 282.921875 389.527344 313.160156 395.875 342.378906 C 404.472656 381.929688 413.355469 422.824219 392.121094 456.609375 C 389.121094 461.382812 383.976562 464.003906 378.714844 464.003906 Z M 378.714844 464.003906 " fill-opacity="1" fill-rule="nonzero"/><path fill="#737373" d="M 440.628906 487.21875 C 438.820312 487.21875 437.011719 486.917969 435.207031 486.269531 C 427.003906 483.28125 422.789062 474.195312 425.753906 465.992188 C 437.570312 433.578125 431.824219 395.023438 426.261719 357.71875 C 422.324219 331.09375 418.570312 305.90625 421.816406 284.523438 C 425.9375 257.296875 441.164062 239.59375 467.042969 231.855469 C 486.367188 226.109375 505.089844 229.679688 521.171875 242.214844 C 535.582031 253.453125 555.601562 278.382812 568.945312 333.386719 C 577.703125 369.394531 581.78125 411.472656 580.207031 448.847656 C 579.859375 457.582031 572.46875 464.347656 563.757812 464 C 555.019531 463.628906 548.234375 456.261719 548.605469 447.527344 C 551.429688 380.539062 534.332031 292.539062 501.730469 267.167969 C 493.734375 260.933594 485.578125 259.359375 476.078125 262.1875 C 448.183594 270.503906 448.925781 294.996094 457.566406 353.082031 C 463.40625 392.335938 470.011719 436.84375 455.503906 476.816406 C 453.140625 483.234375 447.09375 487.21875 440.628906 487.21875 Z M 440.628906 487.21875 " fill-opacity="1" fill-rule="nonzero"/><path fill="#737373" d="M 502.539062 487.21875 C 501.382812 487.21875 500.222656 487.105469 499.042969 486.824219 C 490.539062 484.902344 485.164062 476.445312 487.109375 467.917969 C 502.539062 399.496094 479.996094 330.050781 479.761719 329.355469 C 477.027344 321.0625 481.523438 312.117188 489.820312 309.382812 C 498.113281 306.625 507.058594 311.144531 509.816406 319.414062 C 510.859375 322.589844 535.304688 397.988281 517.949219 474.890625 C 516.304688 482.238281 509.769531 487.21875 502.539062 487.21875 Z M 502.539062 487.21875 " fill-opacity="1" fill-rule="nonzero"/><path fill="#737373" d="M 324.554688 409.761719 C 316.652344 409.761719 309.828125 403.851562 308.867188 395.8125 C 307.546875 384.851562 305.441406 372.710938 303.191406 359.851562 C 295.660156 316.636719 286.289062 262.882812 302.148438 215.152344 C 311.011719 188.457031 327.058594 165.867188 349.847656 147.980469 C 375.019531 128.238281 409.429688 113.527344 452.121094 104.257812 C 502.03125 93.414062 549.203125 102.148438 588.546875 129.488281 C 611.394531 145.363281 631.460938 167.558594 646.542969 193.671875 C 660.214844 217.308594 669.320312 243.003906 672.933594 268.003906 C 674.164062 276.648438 668.160156 284.664062 659.496094 285.890625 C 650.851562 287.144531 642.859375 281.140625 641.609375 272.476562 C 636.652344 237.859375 615.035156 186.421875 570.476562 155.464844 C 538.082031 132.964844 500.5 126.132812 458.816406 135.167969 C 388.644531 150.414062 347.214844 179.816406 332.167969 225.113281 C 318.832031 265.292969 327.082031 312.628906 334.359375 354.40625 C 336.675781 367.707031 338.863281 380.265625 340.277344 392.058594 C 341.320312 400.746094 335.121094 408.601562 326.457031 409.644531 C 325.808594 409.714844 325.179688 409.761719 324.554688 409.761719 Z M 324.554688 409.761719 " fill-opacity="1" fill-rule="nonzero"/><g clip-path="url(#10230e65d1)"><path fill="#5271ff" d="M 277.519531 566.300781 L 210.40625 499.171875 C 207.441406 496.207031 203.421875 494.539062 199.214844 494.539062 C 195.023438 494.539062 191.003906 496.207031 188.035156 499.171875 L 27.242188 659.976562 C 15.300781 671.910156 8.71875 687.804688 8.71875 704.695312 C 8.71875 721.609375 15.300781 737.507812 27.242188 749.4375 C 39.199219 761.394531 55.082031 767.976562 71.984375 767.976562 C 88.890625 767.976562 104.785156 761.394531 116.730469 749.4375 L 277.519531 588.65625 C 280.484375 585.691406 282.15625 581.660156 282.15625 577.46875 C 282.15625 573.273438 280.484375 569.265625 277.519531 566.300781 Z M 277.519531 566.300781 " fill-opacity="1" fill-rule="nonzero"/></g></svg>