<svg xmlns="http://www.w3.org/2000/svg" xmlns:xlink="http://www.w3.org/1999/xlink" width="1024" zoomAndPan="magnify" viewBox="0 0 768 767.999994" height="1024" preserveAspectRatio="xMidYMid meet" version="1.0"><path fill="#444b54" d="M 151.738281 81.753906 C 145.542969 81.753906 139.351562 78.65625 135.636719 72.464844 C 130.679688 63.792969 133.777344 52.027344 142.449219 47.070312 C 195.710938 16.101562 257.027344 0 318.964844 0 C 380.898438 0 442.214844 16.101562 495.480469 47.070312 C 504.152344 52.027344 507.246094 63.792969 502.292969 72.464844 C 497.339844 81.136719 485.570312 84.230469 476.898438 79.277344 C 429.210938 52.027344 374.707031 37.160156 318.964844 37.160156 C 263.222656 37.160156 208.71875 52.027344 161.027344 79.277344 C 157.933594 81.136719 154.835938 81.753906 151.738281 81.753906 Z M 151.738281 81.753906 " fill-opacity="1" fill-rule="nonzero"/><path fill="#444b54" d="M 523.351562 210.582031 C 517.777344 210.582031 512.203125 208.101562 508.488281 203.769531 C 462.652344 144.929688 393.285156 111.484375 318.964844 111.484375 C 300.382812 111.484375 281.183594 113.960938 263.222656 118.296875 C 253.3125 120.773438 243.402344 114.582031 240.925781 104.671875 C 238.449219 94.761719 244.640625 84.851562 254.550781 82.375 C 275.609375 76.800781 297.285156 74.324219 318.964844 74.324219 C 404.433594 74.324219 484.332031 112.722656 537.597656 180.230469 C 543.789062 188.285156 542.550781 200.050781 534.5 206.246094 C 531.402344 209.34375 527.066406 210.582031 523.351562 210.582031 Z M 114.578125 210.582031 C 110.242188 210.582031 106.523438 209.34375 102.808594 206.863281 C 94.757812 200.671875 93.519531 188.902344 99.710938 180.851562 C 121.390625 153.601562 147.402344 130.683594 177.75 112.722656 C 186.421875 107.769531 198.191406 110.246094 203.144531 119.535156 C 208.097656 128.207031 205.621094 139.972656 196.332031 144.929688 C 170.320312 160.414062 147.402344 180.230469 128.820312 203.769531 C 125.726562 208.722656 120.152344 210.582031 114.578125 210.582031 Z M 504.769531 421.160156 C 494.242188 421.160156 486.191406 413.109375 486.191406 402.582031 L 486.191406 353.03125 C 486.191406 325.78125 479.375 298.527344 466.371094 274.375 C 461.414062 265.082031 465.132812 253.933594 473.800781 248.980469 C 483.09375 244.027344 494.242188 247.742188 499.195312 256.414062 C 515.300781 286.140625 523.351562 319.585938 523.351562 353.03125 L 523.351562 402.582031 C 523.351562 413.109375 515.300781 421.160156 504.769531 421.160156 Z M 504.769531 421.160156 " fill-opacity="1" fill-rule="nonzero"/><path fill="#444b54" d="M 428.589844 221.730469 C 424.875 221.730469 421.15625 220.492188 417.441406 218.011719 C 388.949219 196.953125 354.886719 185.804688 318.964844 185.804688 C 288.617188 185.804688 258.265625 193.859375 232.875 209.960938 C 224.203125 215.535156 212.433594 212.4375 207.480469 203.769531 C 201.90625 195.097656 205.003906 183.328125 213.671875 178.375 C 245.261719 158.554688 281.800781 148.644531 318.964844 148.644531 C 362.9375 148.644531 404.433594 162.269531 439.738281 187.664062 C 447.789062 193.859375 449.648438 205.625 444.074219 213.675781 C 439.738281 218.632812 434.164062 221.730469 428.589844 221.730469 Z M 133.15625 371.613281 C 122.628906 371.613281 114.578125 363.5625 114.578125 353.03125 C 114.578125 317.109375 123.867188 281.804688 141.828125 250.839844 C 146.785156 242.167969 158.550781 239.070312 167.222656 244.027344 C 175.894531 248.980469 178.988281 260.75 174.035156 269.417969 C 159.171875 294.8125 151.738281 323.921875 151.738281 353.03125 C 151.738281 363.5625 143.6875 371.613281 133.15625 371.613281 Z M 133.15625 371.613281 " fill-opacity="1" fill-rule="nonzero"/><path fill="#444b54" d="M 133.15625 445.933594 L 71.222656 445.933594 C 60.691406 445.933594 52.640625 437.882812 52.640625 427.355469 C 52.640625 416.824219 60.691406 408.773438 71.222656 408.773438 L 133.15625 408.773438 C 164.125 408.773438 188.898438 384 188.898438 353.03125 C 188.898438 307.199219 212.433594 265.703125 251.453125 242.167969 C 260.125 236.59375 271.894531 239.691406 276.847656 248.359375 C 282.421875 257.03125 279.324219 268.800781 270.652344 273.753906 C 242.785156 290.476562 226.0625 320.207031 226.0625 353.03125 C 226.0625 404.4375 184.5625 445.933594 133.15625 445.933594 Z M 424.875 340.027344 C 416.820312 340.027344 409.390625 335.070312 406.914062 327.019531 C 395.765625 292.335938 366.652344 266.324219 331.351562 261.367188 C 321.441406 260.128906 314.007812 250.21875 315.867188 240.308594 C 317.105469 230.398438 327.015625 222.96875 336.925781 224.824219 C 385.855469 231.640625 427.351562 267.5625 442.214844 316.492188 C 445.3125 326.398438 439.738281 336.929688 429.828125 340.027344 C 428.589844 339.40625 426.730469 340.027344 424.875 340.027344 Z M 430.449219 470.710938 C 419.917969 470.710938 411.867188 462.65625 411.867188 452.128906 L 411.867188 397.625 C 411.867188 387.097656 419.917969 379.046875 430.449219 379.046875 C 440.976562 379.046875 449.027344 387.097656 449.027344 397.625 L 449.027344 452.128906 C 449.027344 462.65625 440.976562 470.710938 430.449219 470.710938 Z M 430.449219 470.710938 " fill-opacity="1" fill-rule="nonzero"/><path fill="#444b54" d="M 135.636719 594.582031 L 120.769531 594.582031 C 110.242188 594.582031 102.191406 586.527344 102.191406 576 C 102.191406 565.472656 110.242188 557.417969 120.769531 557.417969 L 135.636719 557.417969 C 247.117188 557.417969 337.542969 466.992188 337.542969 355.507812 C 337.542969 344.359375 329.492188 334.453125 319.582031 334.453125 L 318.964844 334.453125 C 312.769531 334.453125 308.433594 337.546875 305.957031 339.40625 C 304.71875 340.644531 302.242188 343.742188 301.003906 347.457031 C 300.382812 349.316406 300.382812 351.175781 300.382812 353.03125 C 300.382812 363.5625 292.332031 371.613281 281.800781 371.613281 C 271.273438 371.613281 263.222656 363.5625 263.222656 353.03125 C 263.222656 347.457031 263.839844 342.503906 265.699219 337.546875 C 269.414062 325.78125 275.609375 317.730469 280.5625 313.394531 C 286.757812 307.199219 300.382812 297.289062 321.441406 297.910156 C 351.171875 299.148438 374.707031 325.160156 374.707031 356.128906 C 374.707031 487.433594 267.558594 594.582031 135.636719 594.582031 Z M 135.636719 594.582031 " fill-opacity="1" fill-rule="nonzero"/><path fill="#444b54" d="M 133.15625 520.257812 L 83.609375 520.257812 C 73.082031 520.257812 65.027344 512.207031 65.027344 501.675781 C 65.027344 491.148438 73.082031 483.097656 83.609375 483.097656 L 133.15625 483.097656 C 183.324219 483.097656 227.917969 455.226562 250.214844 410.011719 C 254.550781 400.722656 265.699219 397.007812 274.988281 401.34375 C 284.28125 405.675781 287.996094 416.824219 283.660156 426.117188 C 255.171875 484.335938 197.570312 520.257812 133.15625 520.257812 Z M 184.5625 664.566406 C 175.894531 664.566406 167.839844 658.375 165.984375 649.082031 C 164.125 639.175781 170.9375 629.265625 180.847656 627.40625 C 239.066406 617.496094 292.949219 589.007812 332.589844 548.128906 C 348.691406 532.027344 372.226562 526.453125 393.285156 534.503906 C 402.578125 538.21875 407.53125 548.75 403.816406 558.65625 C 400.097656 567.949219 389.570312 572.902344 379.660156 569.1875 C 372.847656 566.710938 364.796875 568.566406 359.222656 574.140625 C 314.007812 620.59375 252.691406 652.800781 187.042969 663.949219 C 187.042969 664.566406 185.800781 664.566406 184.5625 664.566406 Z M 184.5625 664.566406 " fill-opacity="1" fill-rule="nonzero"/><path fill="#444b54" d="M 58.835938 371.613281 C 48.304688 371.613281 40.253906 363.5625 40.253906 353.03125 C 40.253906 327.019531 43.96875 301.625 50.785156 276.851562 C 63.171875 234.117188 85.46875 193.859375 116.433594 161.652344 C 123.246094 154.21875 135.015625 153.601562 142.449219 161.03125 C 149.878906 167.84375 150.5 179.613281 143.066406 187.046875 C 116.433594 215.535156 96.617188 249.601562 86.085938 287.378906 C 79.894531 309.058594 76.796875 330.734375 76.796875 353.652344 C 77.414062 363.5625 69.363281 371.613281 58.835938 371.613281 Z M 58.835938 371.613281 " fill-opacity="1" fill-rule="nonzero"/><path fill="#444b54" d="M 579.09375 408.773438 C 568.5625 408.773438 560.511719 400.722656 560.511719 390.195312 L 560.511719 353.03125 C 560.511719 272.515625 520.875 197.574219 453.984375 152.980469 C 445.3125 147.40625 443.453125 135.640625 449.027344 126.96875 C 454.601562 118.296875 466.371094 116.4375 475.042969 122.011719 C 551.839844 174.039062 597.671875 260.128906 597.671875 353.03125 L 597.671875 390.195312 C 597.671875 400.722656 589.621094 408.773438 579.09375 408.773438 Z M 579.09375 408.773438 " fill-opacity="1" fill-rule="nonzero"/><path fill="#00bf63" d="M 460.523438 500.800781 C 459.089844 502.234375 457.695312 503.703125 456.332031 505.207031 C 454.972656 506.707031 453.648438 508.242188 452.363281 509.808594 C 451.074219 511.375 449.828125 512.972656 448.621094 514.601562 C 447.414062 516.230469 446.246094 517.886719 445.121094 519.574219 C 443.992188 521.257812 442.910156 522.972656 441.867188 524.710938 C 440.824219 526.449219 439.828125 528.210938 438.871094 530 C 437.914062 531.789062 437.003906 533.597656 436.136719 535.429688 C 435.269531 537.265625 434.449219 539.117188 433.671875 540.988281 C 432.898438 542.863281 432.167969 544.753906 431.484375 546.660156 C 430.804688 548.570312 430.167969 550.496094 429.578125 552.433594 C 428.992188 554.375 428.449219 556.328125 427.957031 558.292969 C 427.464844 560.261719 427.019531 562.238281 426.625 564.226562 C 426.230469 566.214844 425.882812 568.210938 425.585938 570.21875 C 425.289062 572.222656 425.039062 574.234375 424.839844 576.25 C 424.644531 578.269531 424.492188 580.289062 424.394531 582.316406 C 424.296875 584.339844 424.246094 586.367188 424.246094 588.394531 C 424.246094 590.421875 424.296875 592.445312 424.394531 594.472656 C 424.496094 596.496094 424.644531 598.515625 424.84375 600.535156 C 425.039062 602.550781 425.289062 604.5625 425.585938 606.570312 C 425.882812 608.574219 426.230469 610.570312 426.625 612.558594 C 427.023438 614.546875 427.464844 616.523438 427.957031 618.492188 C 428.449219 620.457031 428.992188 622.410156 429.578125 624.351562 C 430.167969 626.289062 430.804688 628.214844 431.488281 630.125 C 432.171875 632.03125 432.898438 633.921875 433.675781 635.796875 C 434.453125 637.667969 435.273438 639.523438 436.140625 641.355469 C 437.007812 643.1875 437.917969 644.996094 438.871094 646.785156 C 439.828125 648.574219 440.828125 650.335938 441.871094 652.074219 C 442.910156 653.8125 443.996094 655.527344 445.121094 657.210938 C 446.25 658.898438 447.414062 660.554688 448.625 662.183594 C 449.832031 663.8125 451.078125 665.410156 452.363281 666.976562 C 453.652344 668.542969 454.972656 670.078125 456.335938 671.578125 C 457.695312 673.082031 459.09375 674.550781 460.527344 675.980469 C 461.960938 677.414062 463.429688 678.8125 464.929688 680.175781 C 466.433594 681.535156 467.96875 682.859375 469.535156 684.144531 C 471.101562 685.433594 472.699219 686.679688 474.328125 687.886719 C 475.957031 689.09375 477.613281 690.261719 479.300781 691.386719 C 480.984375 692.511719 482.695312 693.597656 484.4375 694.640625 C 486.175781 695.683594 487.9375 696.679688 489.726562 697.636719 C 491.515625 698.59375 493.324219 699.503906 495.15625 700.371094 C 496.988281 701.238281 498.84375 702.058594 500.714844 702.832031 C 502.589844 703.609375 504.480469 704.339844 506.386719 705.019531 C 508.296875 705.703125 510.21875 706.339844 512.160156 706.929688 C 514.101562 707.515625 516.054688 708.058594 518.019531 708.550781 C 519.988281 709.042969 521.964844 709.488281 523.953125 709.882812 C 525.941406 710.277344 527.9375 710.625 529.941406 710.921875 C 531.949219 711.21875 533.960938 711.464844 535.976562 711.664062 C 537.996094 711.863281 540.015625 712.011719 542.039062 712.113281 C 544.066406 712.210938 546.089844 712.261719 548.117188 712.261719 C 550.144531 712.261719 552.171875 712.210938 554.195312 712.113281 C 556.222656 712.011719 558.242188 711.863281 560.261719 711.664062 C 562.277344 711.464844 564.289062 711.21875 566.292969 710.921875 C 568.300781 710.625 570.296875 710.277344 572.285156 709.882812 C 574.273438 709.484375 576.25 709.042969 578.214844 708.550781 C 580.183594 708.054688 582.136719 707.515625 584.078125 706.925781 C 586.015625 706.339844 587.941406 705.703125 589.847656 705.019531 C 591.757812 704.335938 593.648438 703.609375 595.523438 702.832031 C 597.394531 702.054688 599.246094 701.234375 601.078125 700.367188 C 602.914062 699.5 604.722656 698.589844 606.511719 697.632812 C 608.296875 696.679688 610.0625 695.679688 611.800781 694.636719 C 613.539062 693.59375 615.25 692.511719 616.9375 691.382812 C 618.621094 690.257812 620.28125 689.089844 621.90625 687.882812 C 623.535156 686.675781 625.132812 685.429688 626.699219 684.144531 C 628.269531 682.855469 629.800781 681.53125 631.304688 680.171875 C 632.808594 678.808594 634.273438 677.414062 635.707031 675.980469 C 637.140625 674.546875 638.539062 673.078125 639.898438 671.574219 C 641.261719 670.074219 642.585938 668.539062 643.871094 666.972656 C 645.15625 665.40625 646.402344 663.808594 647.613281 662.179688 C 648.820312 660.550781 649.988281 658.894531 651.113281 657.207031 C 652.238281 655.523438 653.324219 653.808594 654.363281 652.070312 C 655.40625 650.332031 656.40625 648.570312 657.363281 646.78125 C 658.316406 644.992188 659.230469 643.183594 660.09375 641.351562 C 660.960938 639.519531 661.785156 637.664062 662.558594 635.792969 C 663.335938 633.917969 664.0625 632.027344 664.746094 630.121094 C 665.429688 628.210938 666.066406 626.285156 666.652344 624.347656 C 667.242188 622.40625 667.78125 620.453125 668.277344 618.488281 C 668.769531 616.519531 669.210938 614.542969 669.609375 612.554688 C 670.003906 610.566406 670.347656 608.570312 670.648438 606.5625 C 670.945312 604.558594 671.191406 602.546875 671.390625 600.53125 C 671.589844 598.511719 671.738281 596.492188 671.839844 594.464844 C 671.9375 592.441406 671.988281 590.414062 671.988281 588.386719 C 671.988281 586.363281 671.9375 584.335938 671.839844 582.3125 C 671.738281 580.285156 671.589844 578.265625 671.390625 576.246094 C 671.191406 574.230469 670.945312 572.21875 670.644531 570.214844 C 670.347656 568.207031 670.003906 566.210938 669.605469 564.222656 C 669.210938 562.234375 668.765625 560.257812 668.273438 558.289062 C 667.78125 556.324219 667.242188 554.371094 666.652344 552.429688 C 666.0625 550.492188 665.429688 548.566406 664.746094 546.65625 C 664.0625 544.75 663.332031 542.859375 662.558594 540.984375 C 661.78125 539.113281 660.960938 537.257812 660.09375 535.425781 C 659.226562 533.59375 658.316406 531.785156 657.359375 529.996094 C 656.402344 528.207031 655.40625 526.445312 654.363281 524.707031 C 653.320312 522.96875 652.238281 521.253906 651.109375 519.570312 C 649.984375 517.882812 648.816406 516.226562 647.609375 514.597656 C 646.402344 512.972656 645.15625 511.375 643.867188 509.804688 C 642.582031 508.238281 641.257812 506.703125 639.898438 505.203125 C 638.535156 503.699219 637.136719 502.234375 635.703125 500.800781 C 634.269531 499.367188 632.804688 497.96875 631.300781 496.605469 C 629.800781 495.246094 628.265625 493.921875 626.699219 492.636719 C 625.128906 491.351562 623.53125 490.101562 621.90625 488.894531 C 620.277344 487.6875 618.621094 486.519531 616.933594 485.394531 C 615.246094 484.269531 613.535156 483.183594 611.796875 482.140625 C 610.058594 481.101562 608.292969 480.101562 606.507812 479.144531 C 604.71875 478.191406 602.910156 477.277344 601.074219 476.410156 C 599.242188 475.546875 597.390625 474.722656 595.519531 473.949219 C 593.644531 473.171875 591.753906 472.441406 589.84375 471.761719 C 587.9375 471.078125 586.011719 470.441406 584.070312 469.851562 C 582.132812 469.265625 580.179688 468.722656 578.210938 468.230469 C 576.246094 467.738281 574.269531 467.296875 572.28125 466.898438 C 570.292969 466.503906 568.296875 466.15625 566.289062 465.859375 C 564.285156 465.5625 562.273438 465.316406 560.253906 465.117188 C 558.238281 464.917969 556.21875 464.769531 554.191406 464.667969 C 552.167969 464.570312 550.140625 464.519531 548.113281 464.519531 C 546.085938 464.519531 544.0625 464.570312 542.035156 464.667969 C 540.011719 464.769531 537.992188 464.917969 535.972656 465.117188 C 533.957031 465.316406 531.945312 465.5625 529.9375 465.859375 C 527.933594 466.160156 525.9375 466.503906 523.949219 466.898438 C 521.960938 467.296875 519.984375 467.738281 518.015625 468.234375 C 516.050781 468.726562 514.097656 469.265625 512.15625 469.855469 C 510.214844 470.441406 508.292969 471.078125 506.382812 471.761719 C 504.476562 472.445312 502.585938 473.175781 500.710938 473.949219 C 498.839844 474.726562 496.984375 475.546875 495.152344 476.414062 C 493.320312 477.28125 491.511719 478.191406 489.722656 479.148438 C 487.933594 480.101562 486.171875 481.101562 484.433594 482.144531 C 482.695312 483.1875 480.980469 484.269531 479.296875 485.398438 C 477.609375 486.523438 475.953125 487.691406 474.324219 488.898438 C 472.695312 490.105469 471.097656 491.351562 469.53125 492.636719 C 467.964844 493.925781 466.429688 495.25 464.929688 496.609375 C 463.425781 497.972656 461.957031 499.367188 460.523438 500.800781 Z M 460.523438 500.800781 " fill-opacity="1" fill-rule="nonzero"/><path fill="#ffffff" d="M 590.859375 606.96875 L 504.152344 606.96875 C 493.621094 606.96875 485.570312 598.917969 485.570312 588.386719 C 485.570312 577.859375 493.621094 569.804688 504.152344 569.804688 L 590.859375 569.804688 C 601.390625 569.804688 609.441406 577.859375 609.441406 588.386719 C 609.441406 598.917969 601.390625 606.96875 590.859375 606.96875 Z M 590.859375 606.96875 " fill-opacity="1" fill-rule="nonzero"/><path fill="#ffffff" d="M 547.507812 650.324219 C 536.976562 650.324219 528.925781 642.269531 528.925781 631.742188 L 528.925781 545.03125 C 528.925781 534.503906 536.976562 526.453125 547.507812 526.453125 C 558.035156 526.453125 566.085938 534.503906 566.085938 545.03125 L 566.085938 631.742188 C 566.085938 642.269531 558.035156 650.324219 547.507812 650.324219 Z M 547.507812 650.324219 " fill-opacity="1" fill-rule="nonzero"/></svg>