<svg xmlns="http://www.w3.org/2000/svg" xmlns:xlink="http://www.w3.org/1999/xlink" width="1024" zoomAndPan="magnify" viewBox="0 0 768 767.999994" height="1024" preserveAspectRatio="xMidYMid meet" version="1.0"><path fill="#00bf63" d="M 646.675781 492.359375 C 646.445312 492.359375 646.210938 492.359375 646.019531 492.359375 C 642.769531 492.128906 639.484375 493.09375 636.890625 495.105469 C 634.53125 496.652344 632.636719 498.742188 631.359375 501.214844 C 631.011719 501.910156 630.625 502.609375 630.164062 503.226562 L 565.925781 586.261719 C 563.527344 589.390625 558.769531 589.894531 555.675781 587.382812 L 516.035156 554.855469 C 514.914062 553.617188 513.597656 552.535156 512.089844 551.648438 C 508.6875 549.09375 504.277344 548.4375 500.371094 549.636719 C 492.90625 550.988281 487.144531 557.097656 486.953125 564.640625 C 486.796875 569.746094 489.273438 574.347656 493.179688 577.289062 C 494.105469 578.023438 494.957031 578.835938 495.730469 579.722656 C 496.15625 580.1875 496.621094 580.652344 497.125 581.078125 L 556.410156 629.691406 C 558.652344 631.507812 561.4375 632.550781 564.339844 632.589844 C 564.917969 632.628906 565.5 632.589844 566.117188 632.515625 C 569.597656 632.164062 572.808594 630.386719 574.859375 627.679688 L 656.34375 522.371094 C 656.808594 521.75 657.195312 521.132812 657.503906 520.515625 C 658.046875 519.46875 658.664062 518.464844 659.398438 517.535156 C 661.449219 515.023438 662.6875 511.890625 662.765625 508.449219 C 662.996094 499.785156 655.804688 492.550781 646.675781 492.359375 " fill-opacity="1" fill-rule="nonzero"/><path fill="#1f2f3d" d="M 84.703125 434.773438 C 170.675781 357.65625 173.539062 352.28125 174.929688 349.769531 C 175.511719 348.722656 175.972656 347.640625 176.285156 346.480469 C 199.992188 261.824219 280.433594 213.441406 357.625 237.417969 C 358.398438 237.691406 359.132812 237.921875 359.90625 238.195312 C 360.371094 238.347656 360.835938 238.503906 361.300781 238.65625 C 362.304688 239.003906 363.273438 239.355469 364.238281 239.703125 C 364.433594 239.777344 364.664062 239.855469 364.898438 239.972656 C 426.117188 263.175781 465.257812 327.375 464.171875 396.449219 C 472.527344 391.226562 481.421875 386.742188 490.742188 383.105469 C 486.914062 306.839844 441.859375 237.804688 373.558594 211.972656 C 373.367188 211.894531 373.132812 211.816406 372.941406 211.742188 C 371.742188 211.277344 370.542969 210.851562 369.34375 210.425781 C 368.804688 210.230469 368.261719 210.078125 367.71875 209.882812 C 366.871094 209.613281 366.019531 209.304688 365.128906 209.03125 C 365.089844 209.03125 365.050781 208.996094 365.011719 208.996094 C 274.710938 180.957031 180.460938 236.609375 151.378906 335.1875 C 144.726562 342.109375 99.050781 383.800781 67.839844 411.800781 C 62.078125 416.984375 61.226562 426.265625 65.871094 432.609375 C 70.546875 438.949219 78.980469 439.917969 84.703125 434.773438 " fill-opacity="1" fill-rule="nonzero"/><path fill="#1f2f3d" d="M 329.898438 397.800781 C 329.972656 397.53125 330.011719 397.257812 330.050781 396.949219 C 331.714844 389.410156 327.808594 381.636719 321 379.355469 C 313.925781 376.957031 306.460938 381.324219 304.292969 389.136719 C 304.257812 389.332031 304.21875 389.484375 304.179688 389.640625 C 285.421875 461.265625 209.773438 524.769531 164.527344 562.707031 C 153.8125 571.253906 143.488281 580.421875 133.703125 590.242188 C 133.703125 590.242188 133.703125 590.242188 133.664062 590.242188 C 128.484375 596.042969 128.484375 605.402344 133.703125 611.164062 C 136.21875 613.910156 139.582031 615.457031 143.140625 615.457031 C 146.660156 615.496094 150.101562 613.910156 152.613281 611.164062 C 154.703125 609.078125 156.871094 607.027344 159.035156 605.015625 C 159.152344 604.902344 159.265625 604.746094 159.421875 604.628906 C 159.769531 604.320312 160.15625 603.972656 160.503906 603.625 C 167.039062 597.589844 173.769531 591.789062 180.691406 586.296875 C 228.609375 546.117188 308.820312 478.863281 329.898438 397.800781 " fill-opacity="1" fill-rule="nonzero"/><path fill="#1f2f3d" d="M 357.046875 716.667969 C 356.425781 706.769531 354.183594 681.628906 346.605469 658.929688 C 338.945312 635.996094 325.914062 615.457031 303.636719 615.457031 C 297.101562 616.308594 290.757812 617.972656 284.6875 620.332031 C 264.382812 628.261719 247.210938 644.230469 236.769531 665.617188 C 233.832031 670.296875 230.621094 674.785156 227.179688 678.960938 C 222.035156 684.839844 222.191406 694.199219 227.527344 699.882812 C 231.394531 704.0625 237 705.066406 241.757812 702.976562 C 243.382812 702.320312 244.890625 701.238281 246.207031 699.84375 C 250.613281 694.546875 254.714844 688.976562 258.464844 683.101562 C 269.71875 666.160156 283.796875 645.042969 303.636719 645.042969 C 318.140625 645.042969 328.699219 689.402344 330.359375 719.878906 C 330.824219 727.691406 336.664062 733.761719 343.742188 733.761719 L 344.59375 733.761719 C 351.515625 733.261719 356.890625 727.070312 357.164062 719.570312 C 357.164062 719.066406 357.164062 718.5625 357.125 718.023438 C 357.125 717.636719 357.085938 717.171875 357.046875 716.667969 " fill-opacity="1" fill-rule="nonzero"/><path fill="#1f2f3d" d="M 427.199219 684.027344 C 414.398438 679.195312 403.417969 664.960938 395.332031 646.976562 C 382.222656 617.703125 376.925781 578.5625 384.273438 554.199219 C 387.019531 546.617188 383.691406 538.035156 376.847656 535.015625 C 370.003906 531.960938 362.226562 535.675781 359.445312 543.253906 C 359.328125 543.5625 359.25 543.875 359.171875 544.222656 C 359.097656 544.414062 358.980469 544.609375 358.902344 544.839844 C 350.972656 570.828125 353.875 611.011719 365.980469 645.855469 C 376.691406 676.601562 394.558594 703.210938 418.539062 712.296875 C 419.890625 712.722656 421.246094 712.957031 422.636719 712.917969 C 425.691406 712.996094 428.515625 711.875 430.796875 710.015625 C 433.039062 708.277344 434.78125 705.761719 435.710938 702.667969 C 438.03125 694.933594 434.238281 686.582031 427.199219 684.027344 " fill-opacity="1" fill-rule="nonzero"/><path fill="#1f2f3d" d="M 380.019531 418.492188 C 380.445312 417.0625 380.832031 415.589844 381.21875 414.160156 C 381.488281 412.960938 381.679688 411.761719 381.914062 410.5625 C 381.992188 410.097656 382.03125 409.636719 382.105469 409.171875 C 382.222656 408.4375 382.339844 407.703125 382.417969 406.96875 C 382.492188 406.386719 382.53125 405.84375 382.609375 405.265625 C 382.6875 404.648438 382.765625 404.027344 382.804688 403.410156 C 382.839844 402.789062 382.878906 402.171875 382.917969 401.550781 C 382.957031 400.972656 382.996094 400.390625 382.996094 399.851562 C 383.035156 399.195312 383.035156 398.535156 383.035156 397.878906 C 383.035156 397.375 383.074219 396.835938 383.074219 396.332031 C 383.035156 395.636719 383.035156 394.9375 382.996094 394.28125 C 382.996094 393.777344 382.996094 393.316406 382.957031 392.8125 C 382.917969 392.117188 382.878906 391.421875 382.839844 390.722656 C 382.804688 390.257812 382.765625 389.796875 382.726562 389.332031 C 382.648438 388.636719 382.570312 387.9375 382.492188 387.242188 C 382.417969 386.777344 382.378906 386.355469 382.300781 385.890625 C 382.222656 385.195312 382.105469 384.496094 381.992188 383.800781 C 381.914062 383.335938 381.835938 382.910156 381.757812 382.484375 C 381.644531 381.789062 381.527344 381.09375 381.371094 380.398438 C 381.257812 379.972656 381.179688 379.507812 381.0625 379.082031 C 380.945312 378.386719 380.792969 377.730469 380.597656 377.070312 C 380.484375 376.609375 380.367188 376.183594 380.25 375.71875 C 380.058594 375.0625 379.902344 374.441406 379.710938 373.785156 C 379.554688 373.320312 379.398438 372.855469 379.246094 372.390625 C 379.050781 371.773438 378.859375 371.15625 378.664062 370.535156 C 378.511719 370.070312 378.316406 369.609375 378.125 369.105469 C 377.929688 368.523438 377.699219 367.945312 377.464844 367.363281 C 377.273438 366.863281 377.078125 366.359375 376.847656 365.855469 C 376.613281 365.316406 376.421875 364.773438 376.191406 364.269531 C 375.917969 363.691406 375.648438 363.109375 375.339844 362.492188 C 375.144531 362.066406 374.953125 361.640625 374.757812 361.253906 C 374.292969 360.324219 373.832031 359.476562 373.367188 358.585938 C 373.289062 358.46875 373.25 358.390625 373.171875 358.277344 C 372.632812 357.269531 372.050781 356.304688 371.472656 355.335938 C 371.355469 355.144531 371.238281 354.949219 371.125 354.757812 C 370.621094 354.023438 370.15625 353.25 369.652344 352.515625 C 369.460938 352.242188 369.265625 351.933594 369.035156 351.664062 C 368.609375 351.042969 368.183594 350.425781 367.71875 349.808594 C 367.488281 349.457031 367.21875 349.148438 366.945312 348.800781 C 366.519531 348.257812 366.097656 347.71875 365.671875 347.214844 C 365.398438 346.828125 365.050781 346.480469 364.78125 346.132812 C 364.355469 345.628906 363.929688 345.164062 363.542969 344.703125 C 363.195312 344.316406 362.847656 343.96875 362.5 343.582031 C 362.074219 343.15625 361.6875 342.730469 361.261719 342.304688 C 360.875 341.917969 360.488281 341.53125 360.101562 341.144531 C 359.714844 340.796875 359.328125 340.410156 358.941406 340.0625 C 358.476562 339.675781 358.050781 339.25 357.585938 338.863281 C 357.238281 338.550781 356.851562 338.242188 356.503906 337.933594 C 356 337.507812 355.5 337.121094 354.996094 336.734375 C 354.648438 336.425781 354.339844 336.195312 353.953125 335.921875 C 353.410156 335.496094 352.871094 335.109375 352.328125 334.722656 C 352.019531 334.492188 351.671875 334.257812 351.359375 334.027344 C 350.78125 333.640625 350.164062 333.253906 349.582031 332.867188 C 349.273438 332.675781 348.964844 332.480469 348.652344 332.289062 C 348.035156 331.902344 347.378906 331.515625 346.71875 331.164062 C 346.449219 330.972656 346.140625 330.816406 345.832031 330.664062 C 345.171875 330.316406 344.515625 329.929688 343.820312 329.582031 C 343.511719 329.464844 343.199219 329.308594 342.890625 329.15625 C 342.234375 328.84375 341.539062 328.496094 340.839844 328.226562 C 340.492188 328.070312 340.144531 327.917969 339.796875 327.761719 C 339.140625 327.492188 338.484375 327.222656 337.824219 326.988281 C 337.746094 326.949219 337.632812 326.871094 337.554688 326.871094 C 337.207031 326.71875 336.898438 326.640625 336.550781 326.523438 C 335.929688 326.292969 335.3125 326.097656 334.691406 325.867188 C 334.035156 325.675781 333.417969 325.519531 332.796875 325.324219 C 332.449219 325.210938 332.140625 325.09375 331.792969 325.015625 C 331.675781 325.015625 331.558594 324.976562 331.484375 324.9375 C 330.785156 324.785156 330.128906 324.628906 329.433594 324.476562 C 329.085938 324.398438 328.699219 324.28125 328.3125 324.203125 C 327.613281 324.050781 326.878906 323.933594 326.144531 323.816406 C 325.796875 323.777344 325.488281 323.703125 325.140625 323.664062 C 324.40625 323.546875 323.671875 323.429688 322.9375 323.355469 C 322.585938 323.316406 322.277344 323.277344 321.929688 323.277344 C 321.195312 323.199219 320.5 323.121094 319.765625 323.082031 C 319.417969 323.082031 319.066406 323.042969 318.71875 323.042969 C 318.023438 323.003906 317.328125 323.003906 316.632812 323.003906 C 316.246094 322.96875 315.859375 322.96875 315.472656 323.003906 C 314.8125 323.003906 314.15625 323.003906 313.5 323.042969 C 313.074219 323.042969 312.6875 323.082031 312.261719 323.121094 C 311.644531 323.160156 311.023438 323.199219 310.40625 323.238281 C 309.941406 323.316406 309.476562 323.355469 309.011719 323.390625 C 308.472656 323.46875 307.890625 323.546875 307.3125 323.625 C 306.808594 323.703125 306.304688 323.777344 305.804688 323.894531 C 305.300781 323.972656 304.757812 324.050781 304.257812 324.164062 C 303.714844 324.28125 303.171875 324.398438 302.632812 324.515625 C 302.128906 324.628906 301.664062 324.746094 301.199219 324.863281 C 300.621094 325.015625 300.039062 325.171875 299.460938 325.324219 C 299.035156 325.480469 298.609375 325.597656 298.183594 325.710938 C 297.527344 325.90625 296.945312 326.136719 296.328125 326.332031 C 295.941406 326.449219 295.554688 326.601562 295.167969 326.71875 C 294.511719 326.949219 293.851562 327.257812 293.195312 327.492188 C 292.847656 327.644531 292.539062 327.761719 292.226562 327.878906 C 291.453125 328.226562 290.71875 328.574219 289.945312 328.921875 C 289.753906 329 289.519531 329.117188 289.328125 329.195312 C 288.359375 329.65625 287.433594 330.160156 286.464844 330.664062 C 286.386719 330.742188 286.273438 330.777344 286.15625 330.855469 C 285.34375 331.320312 284.53125 331.785156 283.71875 332.289062 C 283.332031 332.480469 282.984375 332.75 282.597656 332.984375 C 282.097656 333.332031 281.554688 333.640625 281.050781 333.988281 C 280.625 334.296875 280.199219 334.609375 279.738281 334.917969 C 279.3125 335.265625 278.886719 335.535156 278.460938 335.882812 C 277.996094 336.230469 277.53125 336.582031 277.066406 336.96875 C 276.679688 337.277344 276.332031 337.546875 275.945312 337.855469 C 275.484375 338.242188 275.019531 338.667969 274.554688 339.09375 C 274.207031 339.363281 273.859375 339.675781 273.511719 339.984375 C 273.046875 340.410156 272.582031 340.871094 272.117188 341.296875 C 271.769531 341.609375 271.460938 341.917969 271.152344 342.226562 C 270.6875 342.691406 270.261719 343.195312 269.796875 343.65625 C 269.488281 343.96875 269.179688 344.277344 268.90625 344.625 C 268.445312 345.128906 268.019531 345.628906 267.59375 346.132812 C 267.285156 346.441406 267.011719 346.789062 266.742188 347.136719 C 266.316406 347.640625 265.890625 348.183594 265.464844 348.683594 C 265.195312 349.070312 264.925781 349.382812 264.691406 349.769531 C 264.265625 350.308594 263.878906 350.851562 263.492188 351.390625 C 263.222656 351.777344 262.953125 352.128906 262.71875 352.515625 C 262.332031 353.054688 261.945312 353.636719 261.597656 354.175781 C 261.328125 354.601562 261.097656 354.988281 260.824219 355.414062 C 260.476562 355.957031 260.167969 356.535156 259.820312 357.117188 C 259.585938 357.542969 259.316406 357.96875 259.085938 358.429688 C 258.777344 358.972656 258.464844 359.550781 258.15625 360.132812 C 257.925781 360.597656 257.691406 361.097656 257.421875 361.601562 C 257.152344 362.144531 256.878906 362.683594 256.648438 363.265625 C 256.378906 363.808594 256.144531 364.386719 255.875 364.96875 C 255.679688 365.46875 255.449219 365.972656 255.21875 366.476562 C 254.945312 367.171875 254.675781 367.867188 254.445312 368.5625 C 254.25 368.988281 254.097656 369.414062 253.941406 369.839844 C 253.554688 370.960938 253.167969 372.121094 252.820312 373.28125 C 238.511719 428.003906 141.863281 512.507812 105.394531 544.335938 C 102.6875 546.695312 101.023438 550.023438 100.519531 553.503906 C 99.863281 557.410156 100.597656 561.546875 102.917969 564.988281 C 107.328125 571.523438 115.679688 572.917969 121.636719 568.042969 C 121.832031 567.851562 122.0625 567.695312 122.257812 567.503906 C 191.367188 507.054688 264.035156 437.675781 278.613281 381.441406 C 283.410156 363.070312 298.03125 350.734375 314.3125 349.457031 C 318.796875 349.109375 323.4375 349.652344 328 351.082031 C 349.3125 357.851562 361.609375 382.449219 355.5 406 C 333.609375 490.078125 249.222656 569.359375 171.796875 637.039062 C 165.996094 642.144531 165.03125 651.425781 169.632812 657.84375 C 172.300781 661.558594 176.285156 663.492188 180.304688 663.414062 L 180.191406 663.414062 C 180.421875 663.414062 180.652344 663.414062 180.886719 663.414062 C 180.964844 663.375 181.078125 663.414062 181.195312 663.375 C 183.824219 663.183594 186.378906 662.101562 188.503906 660.242188 C 267.902344 590.746094 354.378906 509.261719 380.019531 418.492188 " fill-opacity="1" fill-rule="nonzero"/><path fill="#1f2f3d" d="M 227.023438 365.121094 C 232.863281 342.84375 244.851562 324.398438 260.398438 311.363281 C 283.0625 292.375 313.265625 285.027344 342.699219 294.269531 C 391.777344 311.480469 419.890625 368.292969 406.585938 423.25 C 401.945312 446.722656 398.582031 467.839844 396.570312 486.828125 C 403.648438 461.457031 416.992188 438.679688 434.78125 420.269531 C 446.113281 353.09375 410.222656 286.304688 350.277344 265.84375 C 347.417969 264.957031 344.515625 264.144531 341.613281 263.484375 C 280.472656 249.449219 218.980469 289.589844 201.34375 356.960938 C 197.59375 371.269531 180.578125 398.769531 81.144531 485.707031 C 80.140625 486.558594 79.289062 487.5625 78.59375 488.648438 C 78.554688 488.722656 78.515625 488.761719 78.476562 488.839844 C 78.398438 488.957031 78.324219 489.109375 78.246094 489.265625 C 75.152344 494.332031 75.113281 501.136719 78.59375 506.28125 C 83 512.855469 91.355469 514.210938 97.3125 509.375 C 97.503906 509.183594 97.738281 508.988281 97.929688 508.796875 C 207.609375 412.921875 221.839844 385.230469 227.023438 365.121094 " fill-opacity="1" fill-rule="nonzero"/><path fill="#1f2f3d" d="M 63.007812 352.4375 C 63.085938 352.824219 63.160156 353.25 63.277344 353.597656 C 63.316406 353.675781 63.316406 353.75 63.316406 353.828125 C 63.355469 353.828125 63.355469 353.867188 63.355469 353.867188 C 63.394531 353.984375 63.394531 354.0625 63.433594 354.136719 C 63.511719 354.484375 63.664062 354.835938 63.78125 355.144531 C 63.78125 355.183594 63.820312 355.222656 63.820312 355.257812 C 66.527344 362.257812 73.71875 365.933594 80.371094 363.457031 C 106.4375 354.097656 121.945312 326.410156 139.929688 294.308594 C 167.117188 245.773438 200.261719 186.640625 283.835938 174.304688 C 294.125 172.796875 305.144531 171.984375 317.019531 171.984375 C 422.210938 172.097656 508.492188 261.628906 516.964844 375.523438 C 525.585938 373.824219 534.484375 372.816406 543.570312 372.625 C 533.746094 243.761719 436.097656 142.550781 317.019531 142.398438 C 307.351562 142.398438 298.183594 142.902344 289.484375 143.789062 C 186.765625 154.582031 146.890625 225.703125 117.191406 278.722656 C 101.953125 305.835938 88.839844 329.308594 72.097656 335.304688 C 68.035156 336.695312 65.019531 340.0625 63.625 344.160156 C 63.585938 344.199219 63.585938 344.199219 63.585938 344.238281 C 63.433594 344.664062 63.316406 345.050781 63.199219 345.476562 C 63.199219 345.550781 63.160156 345.628906 63.160156 345.707031 C 63.085938 346.09375 63.007812 346.441406 62.929688 346.789062 C 62.929688 346.945312 62.890625 347.097656 62.890625 347.253906 C 62.851562 347.5625 62.8125 347.871094 62.773438 348.183594 C 62.773438 348.414062 62.738281 348.609375 62.738281 348.839844 C 62.738281 349.070312 62.738281 349.34375 62.738281 349.613281 C 62.738281 349.882812 62.738281 350.15625 62.773438 350.425781 C 62.773438 350.617188 62.773438 350.8125 62.8125 351.003906 C 62.851562 351.355469 62.890625 351.703125 62.929688 352.050781 C 62.96875 352.164062 62.96875 352.320312 63.007812 352.4375 " fill-opacity="1" fill-rule="nonzero"/><path fill="#1f2f3d" d="M 118.773438 195.148438 C 118.8125 195.226562 118.851562 195.304688 118.929688 195.417969 C 119.933594 196.96875 121.25 198.320312 122.835938 199.402344 C 122.953125 199.480469 123.066406 199.519531 123.183594 199.597656 C 123.53125 199.828125 123.878906 200.023438 124.226562 200.175781 C 124.421875 200.292969 124.613281 200.371094 124.847656 200.484375 C 125.15625 200.601562 125.464844 200.71875 125.773438 200.835938 C 125.96875 200.910156 126.160156 200.988281 126.355469 201.027344 C 126.859375 201.183594 127.359375 201.296875 127.824219 201.375 C 128.019531 201.414062 128.171875 201.414062 128.367188 201.414062 C 128.714844 201.453125 129.0625 201.492188 129.410156 201.492188 C 129.527344 201.53125 129.644531 201.53125 129.757812 201.53125 C 129.875 201.53125 129.992188 201.53125 130.144531 201.492188 C 130.417969 201.492188 130.648438 201.492188 130.917969 201.453125 C 131.191406 201.414062 131.421875 201.414062 131.652344 201.375 C 132.117188 201.296875 132.542969 201.222656 132.96875 201.105469 C 133.199219 201.027344 133.433594 200.949219 133.664062 200.871094 C 133.9375 200.757812 134.207031 200.679688 134.4375 200.601562 C 134.671875 200.484375 134.863281 200.410156 135.097656 200.292969 C 135.367188 200.136719 135.636719 200.023438 135.945312 199.828125 C 136.101562 199.75 136.257812 199.675781 136.449219 199.558594 C 136.835938 199.289062 137.261719 198.976562 137.6875 198.667969 C 137.765625 198.589844 137.878906 198.476562 137.996094 198.398438 C 138.304688 198.128906 138.578125 197.855469 138.847656 197.546875 C 139 197.429688 139.117188 197.316406 139.234375 197.160156 C 139.503906 196.890625 139.738281 196.582031 139.96875 196.269531 C 140.085938 196.117188 140.199219 196 140.316406 195.84375 C 140.625 195.382812 140.9375 194.917969 141.207031 194.414062 C 154.160156 170.785156 225.285156 114.628906 325.566406 112.890625 C 327.191406 112.851562 328.777344 112.851562 330.359375 112.851562 C 337.089844 112.851562 343.550781 113.082031 349.851562 113.507812 C 444.371094 120.238281 495.304688 174.574219 506.171875 194.414062 C 506.210938 194.414062 506.210938 194.453125 506.210938 194.453125 C 506.328125 194.644531 506.445312 194.839844 506.558594 195.03125 C 510.3125 201.683594 518.164062 203.96875 524.425781 200.097656 C 530.847656 196.117188 533.167969 187.105469 529.570312 179.988281 C 529.453125 179.71875 529.300781 179.484375 529.183594 179.253906 C 529.144531 179.214844 529.105469 179.136719 529.066406 179.097656 C 525.898438 173.257812 520.289062 165.410156 512.285156 156.667969 C 488.34375 130.5625 442.59375 96.722656 373.40625 86.398438 C 373.019531 86.320312 372.59375 86.28125 372.167969 86.203125 C 367.371094 85.507812 362.460938 84.929688 357.433594 84.464844 C 348.769531 83.691406 339.757812 83.265625 330.359375 83.265625 C 316.285156 83.265625 302.710938 84.230469 289.675781 86.011719 C 198.445312 98.425781 134.398438 149.824219 118.3125 179.0625 C 115.679688 183.855469 115.835938 189.65625 118.234375 194.222656 C 118.386719 194.53125 118.582031 194.839844 118.773438 195.148438 " fill-opacity="1" fill-rule="nonzero"/><path fill="#1f2f3d" d="M 183.941406 83.265625 C 185.488281 83.265625 187.035156 82.996094 188.503906 82.453125 C 194.152344 80.441406 199.605469 78.316406 204.941406 76.226562 C 241.644531 62.070312 280.898438 54.414062 320.421875 52.984375 C 367.644531 51.242188 411.226562 56.617188 452.996094 79.128906 C 456.128906 80.828125 459.378906 82.53125 462.898438 83.1875 C 469.898438 84.464844 476.164062 80.441406 478.519531 74.214844 C 481.382812 66.597656 477.863281 58.011719 470.671875 54.996094 C 445.917969 43.351562 424.261719 31.675781 396.378906 27.496094 C 328.777344 17.402344 258.425781 23.902344 195.195312 48.496094 C 190.011719 50.507812 184.832031 52.558594 179.378906 54.414062 C 171.992188 56.929688 167.929688 65.242188 170.289062 73.015625 C 172.183594 79.203125 177.753906 83.382812 183.941406 83.265625 " fill-opacity="1" fill-rule="nonzero"/><path fill="#1f2f3d" d="M 77.472656 295.199219 C 77.546875 295.042969 77.625 294.851562 77.703125 294.695312 C 85.632812 275.667969 95.105469 257.492188 105.972656 240.320312 C 108.101562 236.917969 108.757812 232.894531 108.140625 229.144531 C 107.558594 225.429688 105.664062 221.949219 102.609375 219.667969 C 96.539062 215.066406 88.222656 216.804688 83.96875 223.535156 C 71.863281 242.71875 61.382812 263.097656 52.71875 284.410156 C 50.050781 292.066406 53.53125 300.535156 60.417969 303.398438 C 61.691406 303.9375 63.046875 304.25 64.4375 304.324219 C 70.085938 304.597656 75.265625 300.921875 77.472656 295.199219 " fill-opacity="1" fill-rule="nonzero"/><path fill="#1f2f3d" d="M 551.421875 241.675781 C 550.144531 242.253906 549.023438 243.066406 548.058594 244.03125 C 544.035156 248.015625 543.261719 254.359375 546.046875 259.8125 C 546.125 260.003906 546.164062 260.160156 546.277344 260.316406 C 555.019531 278.996094 562.171875 298.214844 567.585938 317.785156 C 568.710938 321.652344 571.222656 324.824219 574.394531 326.871094 C 577.566406 328.921875 581.433594 329.851562 585.183594 329.15625 C 592.648438 327.761719 596.941406 320.414062 594.777344 312.71875 C 588.703125 290.867188 580.621094 269.441406 570.644531 248.710938 C 566.777344 241.597656 558.152344 238.464844 551.421875 241.675781 " fill-opacity="1" fill-rule="nonzero"/><path fill="#1f2f3d" d="M 531.851562 130.988281 C 545.96875 145.644531 559.542969 161.039062 570.679688 178.171875 C 581.859375 195.382812 590.25 214.601562 597.519531 233.707031 C 598.953125 237.457031 601.777344 240.398438 605.101562 242.175781 C 608.464844 243.957031 612.371094 244.535156 616.046875 243.492188 C 623.355469 241.441406 626.992188 233.707031 624.167969 226.28125 C 616.046875 205.011719 606.765625 183.972656 594.390625 164.789062 C 582.324219 145.996094 567.394531 128.707031 551.847656 112.773438 C 551.035156 111.960938 550.183594 111.226562 549.21875 110.570312 C 543.339844 106.664062 535.488281 107.011719 530.691406 111.652344 C 529.6875 112.65625 528.875 113.777344 528.257812 115.015625 C 525.78125 120.042969 527.058594 126.269531 531.464844 130.601562 C 531.582031 130.71875 531.699219 130.871094 531.851562 130.988281 " fill-opacity="1" fill-rule="nonzero"/><path fill="#1f2f3d" d="M 294.585938 694.972656 C 288.089844 692.769531 280.585938 695.746094 277.839844 701.664062 C 269.953125 718.488281 263.839844 735.851562 259.511719 753.5625 C 258.425781 759.828125 263.183594 765.515625 270.144531 766.25 C 271.421875 766.402344 272.777344 766.328125 274.050781 766.132812 C 279.386719 765.203125 283.605469 761.414062 284.648438 756.65625 C 284.6875 756.542969 284.726562 756.386719 284.765625 756.230469 C 288.785156 740.375 294.355469 724.867188 301.433594 709.785156 C 302.824219 706.808594 302.710938 703.675781 301.472656 701.003906 C 300.234375 698.296875 297.835938 696.09375 294.585938 694.972656 " fill-opacity="1" fill-rule="nonzero"/><path fill="#00bf63" d="M 574.859375 699.730469 C 532.820312 699.730469 493.644531 680.855469 467.421875 647.90625 C 456.515625 634.214844 448.433594 618.824219 443.40625 602.15625 C 439.539062 589.316406 437.605469 575.972656 437.605469 562.476562 C 437.605469 486.789062 499.171875 425.183594 574.859375 425.183594 C 578.917969 425.183594 583.097656 425.375 587.273438 425.761719 C 603.167969 427.195312 618.519531 431.332031 632.90625 438.0625 C 681.058594 460.53125 712.152344 509.375 712.152344 562.476562 C 712.152344 638.160156 650.542969 699.730469 574.859375 699.730469 Z M 706.699219 477.003906 C 690.609375 452.253906 667.984375 432.570312 641.300781 420.078125 C 624.824219 412.382812 607.230469 407.664062 589.050781 406 C 584.292969 405.574219 579.5 405.382812 574.859375 405.382812 C 553.664062 405.382812 533.089844 409.519531 513.714844 417.71875 C 494.996094 425.648438 478.210938 436.976562 463.785156 451.363281 C 449.359375 465.828125 438.03125 482.613281 430.101562 501.332031 C 421.902344 520.707031 417.765625 541.28125 417.765625 562.476562 C 417.765625 577.90625 420.007812 593.183594 424.453125 607.878906 C 430.179688 626.984375 439.421875 644.582031 451.914062 660.242188 C 466.300781 678.34375 484.824219 693.269531 505.515625 703.441406 C 516.074219 708.664062 527.25 712.683594 538.699219 715.390625 C 550.492188 718.136719 562.636719 719.570312 574.859375 719.570312 C 596.050781 719.570312 616.625 715.429688 636.003906 707.230469 C 654.71875 699.304688 671.503906 687.972656 685.96875 673.546875 C 700.355469 659.121094 711.6875 642.335938 719.617188 623.617188 C 727.8125 604.242188 731.953125 583.667969 731.953125 562.476562 C 731.953125 532 723.210938 502.453125 706.699219 477.003906 " fill-opacity="1" fill-rule="nonzero"/></svg>