<svg xmlns="http://www.w3.org/2000/svg" xmlns:xlink="http://www.w3.org/1999/xlink" width="1024" zoomAndPan="magnify" viewBox="0 0 768 767.999994" height="1024" preserveAspectRatio="xMidYMid meet" version="1.0"><defs><clipPath id="fe357cd926"><path d="M 20 24.667969 L 256 24.667969 L 256 259 L 20 259 Z M 20 24.667969 " clip-rule="nonzero"/></clipPath><clipPath id="f1f749fbf9"><path d="M 17.828125 39.667969 L 17.828125 728.332031 C 17.828125 737.03125 24.878906 744.082031 33.578125 744.082031 L 752.25 744.082031 C 760.949219 744.082031 768 737.03125 768 728.332031 L 768 39.667969 C 768 30.96875 760.949219 23.917969 752.25 23.917969 L 33.578125 23.917969 C 24.878906 23.917969 17.828125 30.96875 17.828125 39.667969 Z M 17.828125 39.667969 " clip-rule="nonzero"/></clipPath><clipPath id="d3d46cf00d"><path d="M 34.476562 24.816406 L 751.351562 24.816406 C 760.046875 24.816406 767.101562 31.867188 767.101562 40.566406 L 767.101562 727.433594 C 767.101562 736.132812 760.046875 743.183594 751.351562 743.183594 L 34.476562 743.183594 C 25.777344 743.183594 18.726562 736.132812 18.726562 727.433594 L 18.726562 40.566406 C 18.726562 31.867188 25.777344 24.816406 34.476562 24.816406 Z M 34.476562 24.816406 " clip-rule="nonzero"/></clipPath><clipPath id="8c5c51679a"><path d="M 529 24.667969 L 764 24.667969 L 764 259 L 529 259 Z M 529 24.667969 " clip-rule="nonzero"/></clipPath><clipPath id="483341ad5d"><path d="M 17.828125 39.667969 L 17.828125 728.332031 C 17.828125 737.03125 24.878906 744.082031 33.578125 744.082031 L 752.25 744.082031 C 760.949219 744.082031 768 737.03125 768 728.332031 L 768 39.667969 C 768 30.96875 760.949219 23.917969 752.25 23.917969 L 33.578125 23.917969 C 24.878906 23.917969 17.828125 30.96875 17.828125 39.667969 Z M 17.828125 39.667969 " clip-rule="nonzero"/></clipPath><clipPath id="9000ea402c"><path d="M 34.476562 24.816406 L 751.351562 24.816406 C 760.046875 24.816406 767.101562 31.867188 767.101562 40.566406 L 767.101562 727.433594 C 767.101562 736.132812 760.046875 743.183594 751.351562 743.183594 L 34.476562 743.183594 C 25.777344 743.183594 18.726562 736.132812 18.726562 727.433594 L 18.726562 40.566406 C 18.726562 31.867188 25.777344 24.816406 34.476562 24.816406 Z M 34.476562 24.816406 " clip-rule="nonzero"/></clipPath><clipPath id="6723cb748c"><path d="M 20 509 L 256 509 L 256 743.917969 L 20 743.917969 Z M 20 509 " clip-rule="nonzero"/></clipPath><clipPath id="6605877032"><path d="M 17.828125 39.667969 L 17.828125 728.332031 C 17.828125 737.03125 24.878906 744.082031 33.578125 744.082031 L 752.25 744.082031 C 760.949219 744.082031 768 737.03125 768 728.332031 L 768 39.667969 C 768 30.96875 760.949219 23.917969 752.25 23.917969 L 33.578125 23.917969 C 24.878906 23.917969 17.828125 30.96875 17.828125 39.667969 Z M 17.828125 39.667969 " clip-rule="nonzero"/></clipPath><clipPath id="bca470167c"><path d="M 34.476562 24.816406 L 751.351562 24.816406 C 760.046875 24.816406 767.101562 31.867188 767.101562 40.566406 L 767.101562 727.433594 C 767.101562 736.132812 760.046875 743.183594 751.351562 743.183594 L 34.476562 743.183594 C 25.777344 743.183594 18.726562 736.132812 18.726562 727.433594 L 18.726562 40.566406 C 18.726562 31.867188 25.777344 24.816406 34.476562 24.816406 Z M 34.476562 24.816406 " clip-rule="nonzero"/></clipPath><clipPath id="3dd468c387"><path d="M 529 509 L 764 509 L 764 743.917969 L 529 743.917969 Z M 529 509 " clip-rule="nonzero"/></clipPath><clipPath id="a5538afea1"><path d="M 17.828125 39.667969 L 17.828125 728.332031 C 17.828125 737.03125 24.878906 744.082031 33.578125 744.082031 L 752.25 744.082031 C 760.949219 744.082031 768 737.03125 768 728.332031 L 768 39.667969 C 768 30.96875 760.949219 23.917969 752.25 23.917969 L 33.578125 23.917969 C 24.878906 23.917969 17.828125 30.96875 17.828125 39.667969 Z M 17.828125 39.667969 " clip-rule="nonzero"/></clipPath><clipPath id="f96825b897"><path d="M 34.476562 24.816406 L 751.351562 24.816406 C 760.046875 24.816406 767.101562 31.867188 767.101562 40.566406 L 767.101562 727.433594 C 767.101562 736.132812 760.046875 743.183594 751.351562 743.183594 L 34.476562 743.183594 C 25.777344 743.183594 18.726562 736.132812 18.726562 727.433594 L 18.726562 40.566406 C 18.726562 31.867188 25.777344 24.816406 34.476562 24.816406 Z M 34.476562 24.816406 " clip-rule="nonzero"/></clipPath><clipPath id="b297f3c360"><path d="M 18.578125 362 L 767.828125 362 L 767.828125 406 L 18.578125 406 Z M 18.578125 362 " clip-rule="nonzero"/></clipPath><clipPath id="f19d0717cb"><path d="M 17.828125 39.667969 L 17.828125 728.332031 C 17.828125 737.03125 24.878906 744.082031 33.578125 744.082031 L 752.25 744.082031 C 760.949219 744.082031 768 737.03125 768 728.332031 L 768 39.667969 C 768 30.96875 760.949219 23.917969 752.25 23.917969 L 33.578125 23.917969 C 24.878906 23.917969 17.828125 30.96875 17.828125 39.667969 Z M 17.828125 39.667969 " clip-rule="nonzero"/></clipPath><clipPath id="c8afe83acc"><path d="M 34.476562 24.816406 L 751.351562 24.816406 C 760.046875 24.816406 767.101562 31.867188 767.101562 40.566406 L 767.101562 727.433594 C 767.101562 736.132812 760.046875 743.183594 751.351562 743.183594 L 34.476562 743.183594 C 25.777344 743.183594 18.726562 736.132812 18.726562 727.433594 L 18.726562 40.566406 C 18.726562 31.867188 25.777344 24.816406 34.476562 24.816406 Z M 34.476562 24.816406 " clip-rule="nonzero"/></clipPath><clipPath id="eea53e9663"><path d="M 330 439 L 454 439 L 454 518 L 330 518 Z M 330 439 " clip-rule="nonzero"/></clipPath><clipPath id="af1a5d0018"><path d="M 17.828125 39.667969 L 17.828125 728.332031 C 17.828125 737.03125 24.878906 744.082031 33.578125 744.082031 L 752.25 744.082031 C 760.949219 744.082031 768 737.03125 768 728.332031 L 768 39.667969 C 768 30.96875 760.949219 23.917969 752.25 23.917969 L 33.578125 23.917969 C 24.878906 23.917969 17.828125 30.96875 17.828125 39.667969 Z M 17.828125 39.667969 " clip-rule="nonzero"/></clipPath><clipPath id="c50c388a40"><path d="M 34.476562 24.816406 L 751.351562 24.816406 C 760.046875 24.816406 767.101562 31.867188 767.101562 40.566406 L 767.101562 727.433594 C 767.101562 736.132812 760.046875 743.183594 751.351562 743.183594 L 34.476562 743.183594 C 25.777344 743.183594 18.726562 736.132812 18.726562 727.433594 L 18.726562 40.566406 C 18.726562 31.867188 25.777344 24.816406 34.476562 24.816406 Z M 34.476562 24.816406 " clip-rule="nonzero"/></clipPath><clipPath id="0df04a14c2"><path d="M 181 98 L 527 98 L 527 329 L 181 329 Z M 181 98 " clip-rule="nonzero"/></clipPath><clipPath id="c215e98d95"><path d="M 17.828125 39.667969 L 17.828125 728.332031 C 17.828125 737.03125 24.878906 744.082031 33.578125 744.082031 L 752.25 744.082031 C 760.949219 744.082031 768 737.03125 768 728.332031 L 768 39.667969 C 768 30.96875 760.949219 23.917969 752.25 23.917969 L 33.578125 23.917969 C 24.878906 23.917969 17.828125 30.96875 17.828125 39.667969 Z M 17.828125 39.667969 " clip-rule="nonzero"/></clipPath><clipPath id="ea7ea807a4"><path d="M 34.476562 24.816406 L 751.351562 24.816406 C 760.046875 24.816406 767.101562 31.867188 767.101562 40.566406 L 767.101562 727.433594 C 767.101562 736.132812 760.046875 743.183594 751.351562 743.183594 L 34.476562 743.183594 C 25.777344 743.183594 18.726562 736.132812 18.726562 727.433594 L 18.726562 40.566406 C 18.726562 31.867188 25.777344 24.816406 34.476562 24.816406 Z M 34.476562 24.816406 " clip-rule="nonzero"/></clipPath><clipPath id="2f29e2772e"><path d="M 554 239 L 604 239 L 604 329 L 554 329 Z M 554 239 " clip-rule="nonzero"/></clipPath><clipPath id="9292022e2f"><path d="M 17.828125 39.667969 L 17.828125 728.332031 C 17.828125 737.03125 24.878906 744.082031 33.578125 744.082031 L 752.25 744.082031 C 760.949219 744.082031 768 737.03125 768 728.332031 L 768 39.667969 C 768 30.96875 760.949219 23.917969 752.25 23.917969 L 33.578125 23.917969 C 24.878906 23.917969 17.828125 30.96875 17.828125 39.667969 Z M 17.828125 39.667969 " clip-rule="nonzero"/></clipPath><clipPath id="f2c0b945aa"><path d="M 34.476562 24.816406 L 751.351562 24.816406 C 760.046875 24.816406 767.101562 31.867188 767.101562 40.566406 L 767.101562 727.433594 C 767.101562 736.132812 760.046875 743.183594 751.351562 743.183594 L 34.476562 743.183594 C 25.777344 743.183594 18.726562 736.132812 18.726562 727.433594 L 18.726562 40.566406 C 18.726562 31.867188 25.777344 24.816406 34.476562 24.816406 Z M 34.476562 24.816406 " clip-rule="nonzero"/></clipPath><clipPath id="ece7c47c91"><path d="M 258 473 L 601 473 L 601 670 L 258 670 Z M 258 473 " clip-rule="nonzero"/></clipPath><clipPath id="361e033de3"><path d="M 17.828125 39.667969 L 17.828125 728.332031 C 17.828125 737.03125 24.878906 744.082031 33.578125 744.082031 L 752.25 744.082031 C 760.949219 744.082031 768 737.03125 768 728.332031 L 768 39.667969 C 768 30.96875 760.949219 23.917969 752.25 23.917969 L 33.578125 23.917969 C 24.878906 23.917969 17.828125 30.96875 17.828125 39.667969 Z M 17.828125 39.667969 " clip-rule="nonzero"/></clipPath><clipPath id="d9f6329ec9"><path d="M 34.476562 24.816406 L 751.351562 24.816406 C 760.046875 24.816406 767.101562 31.867188 767.101562 40.566406 L 767.101562 727.433594 C 767.101562 736.132812 760.046875 743.183594 751.351562 743.183594 L 34.476562 743.183594 C 25.777344 743.183594 18.726562 736.132812 18.726562 727.433594 L 18.726562 40.566406 C 18.726562 31.867188 25.777344 24.816406 34.476562 24.816406 Z M 34.476562 24.816406 " clip-rule="nonzero"/></clipPath><clipPath id="383a8a8a79"><path d="M 181 439 L 230 439 L 230 529 L 181 529 Z M 181 439 " clip-rule="nonzero"/></clipPath><clipPath id="ea252d0a0c"><path d="M 17.828125 39.667969 L 17.828125 728.332031 C 17.828125 737.03125 24.878906 744.082031 33.578125 744.082031 L 752.25 744.082031 C 760.949219 744.082031 768 737.03125 768 728.332031 L 768 39.667969 C 768 30.96875 760.949219 23.917969 752.25 23.917969 L 33.578125 23.917969 C 24.878906 23.917969 17.828125 30.96875 17.828125 39.667969 Z M 17.828125 39.667969 " clip-rule="nonzero"/></clipPath><clipPath id="33319c2a1b"><path d="M 34.476562 24.816406 L 751.351562 24.816406 C 760.046875 24.816406 767.101562 31.867188 767.101562 40.566406 L 767.101562 727.433594 C 767.101562 736.132812 760.046875 743.183594 751.351562 743.183594 L 34.476562 743.183594 C 25.777344 743.183594 18.726562 736.132812 18.726562 727.433594 L 18.726562 40.566406 C 18.726562 31.867188 25.777344 24.816406 34.476562 24.816406 Z M 34.476562 24.816406 " clip-rule="nonzero"/></clipPath><clipPath id="b5e0e34f5a"><path d="M 324 175 L 529 175 L 529 329 L 324 329 Z M 324 175 " clip-rule="nonzero"/></clipPath><clipPath id="da0bc32608"><path d="M 17.828125 39.667969 L 17.828125 728.332031 C 17.828125 737.03125 24.878906 744.082031 33.578125 744.082031 L 752.25 744.082031 C 760.949219 744.082031 768 737.03125 768 728.332031 L 768 39.667969 C 768 30.96875 760.949219 23.917969 752.25 23.917969 L 33.578125 23.917969 C 24.878906 23.917969 17.828125 30.96875 17.828125 39.667969 Z M 17.828125 39.667969 " clip-rule="nonzero"/></clipPath><clipPath id="08b78db198"><path d="M 34.476562 24.816406 L 751.351562 24.816406 C 760.046875 24.816406 767.101562 31.867188 767.101562 40.566406 L 767.101562 727.433594 C 767.101562 736.132812 760.046875 743.183594 751.351562 743.183594 L 34.476562 743.183594 C 25.777344 743.183594 18.726562 736.132812 18.726562 727.433594 L 18.726562 40.566406 C 18.726562 31.867188 25.777344 24.816406 34.476562 24.816406 Z M 34.476562 24.816406 " clip-rule="nonzero"/></clipPath><clipPath id="9f615e682b"><path d="M 256 439 L 529 439 L 529 593 L 256 593 Z M 256 439 " clip-rule="nonzero"/></clipPath><clipPath id="93f9c371df"><path d="M 17.828125 39.667969 L 17.828125 728.332031 C 17.828125 737.03125 24.878906 744.082031 33.578125 744.082031 L 752.25 744.082031 C 760.949219 744.082031 768 737.03125 768 728.332031 L 768 39.667969 C 768 30.96875 760.949219 23.917969 752.25 23.917969 L 33.578125 23.917969 C 24.878906 23.917969 17.828125 30.96875 17.828125 39.667969 Z M 17.828125 39.667969 " clip-rule="nonzero"/></clipPath><clipPath id="30e635d50a"><path d="M 34.476562 24.816406 L 751.351562 24.816406 C 760.046875 24.816406 767.101562 31.867188 767.101562 40.566406 L 767.101562 727.433594 C 767.101562 736.132812 760.046875 743.183594 751.351562 743.183594 L 34.476562 743.183594 C 25.777344 743.183594 18.726562 736.132812 18.726562 727.433594 L 18.726562 40.566406 C 18.726562 31.867188 25.777344 24.816406 34.476562 24.816406 Z M 34.476562 24.816406 " clip-rule="nonzero"/></clipPath><clipPath id="bbc75c0866"><path d="M 256 274 L 300 274 L 300 329 L 256 329 Z M 256 274 " clip-rule="nonzero"/></clipPath><clipPath id="a0c273bc16"><path d="M 17.828125 39.667969 L 17.828125 728.332031 C 17.828125 737.03125 24.878906 744.082031 33.578125 744.082031 L 752.25 744.082031 C 760.949219 744.082031 768 737.03125 768 728.332031 L 768 39.667969 C 768 30.96875 760.949219 23.917969 752.25 23.917969 L 33.578125 23.917969 C 24.878906 23.917969 17.828125 30.96875 17.828125 39.667969 Z M 17.828125 39.667969 " clip-rule="nonzero"/></clipPath><clipPath id="3e905ea9a1"><path d="M 34.476562 24.816406 L 751.351562 24.816406 C 760.046875 24.816406 767.101562 31.867188 767.101562 40.566406 L 767.101562 727.433594 C 767.101562 736.132812 760.046875 743.183594 751.351562 743.183594 L 34.476562 743.183594 C 25.777344 743.183594 18.726562 736.132812 18.726562 727.433594 L 18.726562 40.566406 C 18.726562 31.867188 25.777344 24.816406 34.476562 24.816406 Z M 34.476562 24.816406 " clip-rule="nonzero"/></clipPath><clipPath id="39bea2b2de"><path d="M 330 250 L 440 250 L 440 329 L 330 329 Z M 330 250 " clip-rule="nonzero"/></clipPath><clipPath id="733e362b61"><path d="M 17.828125 39.667969 L 17.828125 728.332031 C 17.828125 737.03125 24.878906 744.082031 33.578125 744.082031 L 752.25 744.082031 C 760.949219 744.082031 768 737.03125 768 728.332031 L 768 39.667969 C 768 30.96875 760.949219 23.917969 752.25 23.917969 L 33.578125 23.917969 C 24.878906 23.917969 17.828125 30.96875 17.828125 39.667969 Z M 17.828125 39.667969 " clip-rule="nonzero"/></clipPath><clipPath id="3dfff644de"><path d="M 34.476562 24.816406 L 751.351562 24.816406 C 760.046875 24.816406 767.101562 31.867188 767.101562 40.566406 L 767.101562 727.433594 C 767.101562 736.132812 760.046875 743.183594 751.351562 743.183594 L 34.476562 743.183594 C 25.777344 743.183594 18.726562 736.132812 18.726562 727.433594 L 18.726562 40.566406 C 18.726562 31.867188 25.777344 24.816406 34.476562 24.816406 Z M 34.476562 24.816406 " clip-rule="nonzero"/></clipPath><clipPath id="47aafe7839"><path d="M 17.828125 23.917969 L 767.828125 23.917969 L 767.828125 743.917969 L 17.828125 743.917969 Z M 17.828125 23.917969 " clip-rule="nonzero"/></clipPath><clipPath id="be42a68888"><path d="M 17.828125 39.667969 L 17.828125 728.332031 C 17.828125 737.03125 24.878906 744.082031 33.578125 744.082031 L 752.25 744.082031 C 760.949219 744.082031 768 737.03125 768 728.332031 L 768 39.667969 C 768 30.96875 760.949219 23.917969 752.25 23.917969 L 33.578125 23.917969 C 24.878906 23.917969 17.828125 30.96875 17.828125 39.667969 Z M 17.828125 39.667969 " clip-rule="nonzero"/></clipPath><clipPath id="551a062fd6"><path d="M 17.828125 39.667969 L 17.828125 728.332031 C 17.828125 737.03125 24.878906 744.082031 33.578125 744.082031 L 752.242188 744.082031 C 760.941406 744.082031 767.992188 737.03125 767.992188 728.332031 L 767.992188 39.667969 C 767.992188 30.96875 760.941406 23.917969 752.242188 23.917969 L 33.578125 23.917969 C 24.878906 23.917969 17.828125 30.96875 17.828125 39.667969 Z M 17.828125 39.667969 " clip-rule="nonzero"/></clipPath></defs><g clip-path="url(#fe357cd926)"><g clip-path="url(#f1f749fbf9)"><g clip-path="url(#d3d46cf00d)"><path fill="#5271ff" d="M 42.050781 24.035156 C 30.339844 24.035156 20.804688 33.558594 20.804688 45.269531 L 20.804688 237.574219 C 20.804688 249.285156 30.339844 258.820312 42.050781 258.820312 C 53.761719 258.820312 63.296875 249.285156 63.296875 237.574219 L 63.296875 66.515625 L 234.355469 66.515625 C 246.066406 66.515625 255.585938 56.984375 255.585938 45.269531 C 255.585938 33.558594 246.066406 24.035156 234.355469 24.035156 Z M 42.050781 24.035156 " fill-opacity="1" fill-rule="nonzero"/></g></g></g><g clip-path="url(#8c5c51679a)"><g clip-path="url(#483341ad5d)"><g clip-path="url(#9000ea402c)"><path fill="#5271ff" d="M 550.257812 24.035156 C 538.546875 24.035156 529.023438 33.558594 529.023438 45.269531 C 529.023438 56.984375 538.558594 66.515625 550.257812 66.515625 L 721.324219 66.515625 L 721.324219 237.574219 C 721.324219 249.285156 730.859375 258.820312 742.558594 258.820312 C 754.285156 258.820312 763.804688 249.285156 763.804688 237.574219 L 763.804688 45.28125 C 763.804688 33.570312 754.273438 24.046875 742.558594 24.046875 L 550.257812 24.046875 Z M 550.257812 24.035156 " fill-opacity="1" fill-rule="nonzero"/></g></g></g><g clip-path="url(#6723cb748c)"><g clip-path="url(#6605877032)"><g clip-path="url(#bca470167c)"><path fill="#5271ff" d="M 42.050781 509.167969 C 30.339844 509.167969 20.804688 518.699219 20.804688 530.402344 L 20.804688 722.714844 C 20.804688 734.425781 30.339844 743.949219 42.050781 743.949219 L 234.355469 743.949219 C 246.066406 743.949219 255.585938 734.414062 255.585938 722.714844 C 255.585938 710.992188 246.066406 701.46875 234.355469 701.46875 L 63.296875 701.46875 L 63.296875 530.402344 C 63.296875 518.699219 53.761719 509.167969 42.050781 509.167969 Z M 42.050781 509.167969 " fill-opacity="1" fill-rule="nonzero"/></g></g></g><g clip-path="url(#3dd468c387)"><g clip-path="url(#a5538afea1)"><g clip-path="url(#f96825b897)"><path fill="#5271ff" d="M 550.257812 701.46875 C 538.546875 701.46875 529.023438 711.003906 529.023438 722.714844 C 529.023438 734.425781 538.558594 743.949219 550.257812 743.949219 L 742.558594 743.949219 C 754.285156 743.949219 763.804688 734.414062 763.804688 722.714844 L 763.804688 530.402344 C 763.804688 518.6875 754.273438 509.167969 742.558594 509.167969 C 730.847656 509.167969 721.324219 518.699219 721.324219 530.402344 L 721.324219 701.46875 Z M 550.257812 701.46875 " fill-opacity="1" fill-rule="nonzero"/></g></g></g><g clip-path="url(#b297f3c360)"><g clip-path="url(#f19d0717cb)"><g clip-path="url(#c8afe83acc)"><path fill="#5271ff" d="M 38.726562 362.753906 C 27.011719 362.753906 17.480469 372.289062 17.480469 384 C 17.480469 395.710938 27.011719 405.234375 38.726562 405.234375 L 745.910156 405.234375 C 757.621094 405.234375 767.144531 395.699219 767.144531 384 C 767.144531 372.289062 757.609375 362.753906 745.910156 362.753906 Z M 38.726562 362.753906 " fill-opacity="1" fill-rule="nonzero"/></g></g></g><g clip-path="url(#eea53e9663)"><g clip-path="url(#af1a5d0018)"><g clip-path="url(#c50c388a40)"><path fill="#5271ff" d="M 411.65625 439.855469 L 411.65625 455.789062 C 411.65625 459.914062 410.386719 463.71875 408.164062 466.78125 C 404.667969 471.855469 398.855469 475.132812 392.300781 475.132812 C 385.742188 475.132812 379.929688 471.855469 376.4375 466.78125 C 374.210938 463.71875 372.945312 459.914062 372.945312 455.789062 L 372.945312 439.855469 L 330.65625 439.855469 L 330.65625 455.789062 C 330.65625 459.484375 330.976562 463.191406 331.707031 466.78125 C 336.78125 495.539062 361.949219 517.421875 392.289062 517.421875 C 422.625 517.421875 447.796875 495.539062 452.867188 466.78125 C 453.609375 463.179688 453.921875 459.484375 453.921875 455.789062 L 453.921875 439.855469 Z M 411.65625 439.855469 " fill-opacity="1" fill-rule="nonzero"/></g></g></g><g clip-path="url(#0df04a14c2)"><g clip-path="url(#c215e98d95)"><g clip-path="url(#ea7ea807a4)"><path fill="#5271ff" d="M 223.359375 328.144531 L 223.359375 309.78125 C 223.359375 304.601562 223.574219 299.421875 224.101562 294.347656 C 225.789062 274.898438 230.96875 256.390625 238.792969 239.367188 C 250 214.941406 266.917969 193.695312 287.742188 177.304688 C 316.503906 154.46875 352.871094 140.832031 392.300781 140.832031 C 429.289062 140.832031 463.585938 152.828125 491.4375 173.179688 C 495.011719 175.785156 499.246094 177.304688 503.671875 177.304688 L 505.515625 177.304688 C 525.289062 177.304688 533.867188 151.992188 518.015625 140.171875 C 482.917969 114.035156 439.421875 98.542969 392.3125 98.542969 C 325.917969 98.542969 266.714844 129.308594 228.011719 177.304688 C 213.109375 195.703125 201.265625 216.640625 193.128906 239.367188 C 186.992188 256.703125 182.984375 275.210938 181.71875 294.347656 C 181.296875 299.421875 181.082031 304.601562 181.082031 309.78125 L 181.082031 328.144531 Z M 223.359375 328.144531 " fill-opacity="1" fill-rule="nonzero"/></g></g></g><g clip-path="url(#2f29e2772e)"><g clip-path="url(#9292022e2f)"><g clip-path="url(#f2c0b945aa)"><path fill="#5271ff" d="M 560.519531 294.347656 C 561.046875 299.421875 561.261719 304.601562 561.261719 309.78125 L 561.261719 328.144531 L 603.550781 328.144531 L 603.550781 309.78125 C 603.550781 304.601562 603.335938 299.421875 602.917969 294.347656 C 602.019531 280.734375 599.722656 267.433594 596.265625 254.644531 C 593.824219 245.625 585.605469 239.367188 576.277344 239.367188 L 575.222656 239.367188 C 561.394531 239.367188 551.859375 252.597656 555.472656 265.949219 C 557.949219 275.125 559.671875 284.625 560.519531 294.347656 Z M 560.519531 294.347656 " fill-opacity="1" fill-rule="nonzero"/></g></g></g><g clip-path="url(#ece7c47c91)"><g clip-path="url(#361e033de3)"><g clip-path="url(#d9f6329ec9)"><path fill="#5271ff" d="M 579.457031 473.648438 L 578.382812 473.648438 C 568.394531 473.648438 560.042969 480.863281 558.128906 490.671875 C 555.53125 503.9375 551.332031 516.65625 545.832031 528.628906 C 534.621094 553.058594 517.707031 574.304688 496.878906 590.695312 C 468.121094 613.53125 431.753906 627.167969 392.324219 627.167969 C 355.335938 627.167969 321.035156 615.167969 293.1875 594.820312 C 289.609375 592.210938 285.375 590.695312 280.949219 590.695312 L 279.105469 590.695312 C 259.332031 590.695312 250.753906 616.007812 266.605469 627.828125 C 301.714844 653.976562 345.214844 669.46875 392.324219 669.46875 C 458.71875 669.46875 517.921875 638.699219 556.621094 590.707031 C 571.527344 572.304688 583.371094 551.371094 591.503906 528.640625 C 594.9375 518.941406 597.703125 508.878906 599.699219 498.542969 C 602.175781 485.671875 592.546875 473.648438 579.457031 473.648438 Z M 579.457031 473.648438 " fill-opacity="1" fill-rule="nonzero"/></g></g></g><g clip-path="url(#383a8a8a79)"><g clip-path="url(#ea252d0a0c)"><g clip-path="url(#33319c2a1b)"><path fill="#5271ff" d="M 224.101562 473.648438 C 223.574219 468.578125 223.359375 463.398438 223.359375 458.214844 L 223.359375 439.855469 L 181.070312 439.855469 L 181.070312 458.214844 C 181.070312 463.398438 181.285156 468.578125 181.707031 473.648438 C 182.601562 487.261719 184.898438 500.566406 188.355469 513.355469 C 190.796875 522.375 199.015625 528.628906 208.347656 528.628906 L 209.386719 528.628906 C 223.214844 528.628906 232.75 515.398438 229.136719 502.046875 C 226.671875 492.875 224.949219 483.375 224.101562 473.648438 Z M 224.101562 473.648438 " fill-opacity="1" fill-rule="nonzero"/></g></g></g><g clip-path="url(#b5e0e34f5a)"><g clip-path="url(#da0bc32608)"><g clip-path="url(#08b78db198)"><path fill="#5271ff" d="M 346.195312 227.214844 C 349.195312 227.214844 352.128906 226.484375 354.878906 225.277344 C 366.316406 220.25 379.019531 217.488281 392.300781 217.488281 C 407.207031 217.488281 421.371094 220.980469 433.847656 227.214844 C 453.714844 237.15625 469.578125 253.855469 478.359375 274.265625 C 483.230469 285.582031 485.859375 297.949219 485.859375 311.050781 L 485.859375 328.144531 L 528.148438 328.144531 L 528.148438 311.050781 C 528.148438 298.367188 526.355469 286 522.96875 274.265625 C 518.207031 256.929688 509.964844 240.960938 499.078125 227.214844 C 474.125 195.5 435.546875 175.199219 392.300781 175.199219 C 372.765625 175.199219 354.171875 179.339844 337.367188 186.816406 C 316.632812 196.027344 323.5 227.214844 346.195312 227.214844 Z M 346.195312 227.214844 " fill-opacity="1" fill-rule="nonzero"/></g></g></g><g clip-path="url(#9f615e682b)"><g clip-path="url(#93f9c371df)"><g clip-path="url(#30e635d50a)"><path fill="#5271ff" d="M 485.871094 439.855469 L 485.871094 456.949219 C 485.871094 470.058594 483.230469 482.429688 478.371094 493.734375 C 469.589844 514.144531 453.742188 530.84375 433.859375 540.785156 C 421.382812 547.015625 407.21875 550.511719 392.3125 550.511719 C 377.40625 550.511719 363.242188 547.015625 350.765625 540.785156 C 330.894531 530.84375 315.03125 514.144531 306.25 493.734375 C 301.382812 482.417969 298.75 470.046875 298.75 456.949219 L 298.75 439.855469 L 256.460938 439.855469 L 256.460938 456.949219 C 256.460938 469.628906 258.253906 482 261.640625 493.734375 C 266.402344 511.070312 274.644531 527.039062 285.53125 540.785156 C 310.484375 572.496094 349.066406 592.800781 392.3125 592.800781 C 435.558594 592.800781 474.136719 572.496094 499.09375 540.785156 C 509.976562 527.039062 518.230469 511.082031 522.980469 493.734375 C 526.367188 482 528.160156 469.628906 528.160156 456.949219 L 528.160156 439.855469 Z M 485.871094 439.855469 " fill-opacity="1" fill-rule="nonzero"/></g></g></g><g clip-path="url(#bbc75c0866)"><g clip-path="url(#a0c273bc16)"><g clip-path="url(#3e905ea9a1)"><path fill="#5271ff" d="M 298.75 328.144531 L 298.75 311.050781 C 298.75 306.585938 299.0625 302.210938 299.648438 297.9375 C 301.394531 285.367188 291.429688 274.265625 278.734375 274.265625 L 278.6875 274.265625 C 268.449219 274.265625 259.34375 281.550781 257.859375 291.695312 C 256.929688 298.035156 256.449219 304.507812 256.449219 311.0625 L 256.449219 328.15625 L 298.75 328.15625 Z M 298.75 328.144531 " fill-opacity="1" fill-rule="nonzero"/></g></g></g><g clip-path="url(#39bea2b2de)"><g clip-path="url(#733e362b61)"><g clip-path="url(#3dfff644de)"><path fill="#5271ff" d="M 372.96875 328.144531 L 372.96875 312.210938 C 372.96875 308.082031 374.234375 304.277344 376.460938 301.214844 C 379.953125 296.144531 385.769531 292.867188 392.324219 292.867188 C 396.691406 292.867188 400.734375 294.324219 403.976562 296.800781 C 407.359375 299.386719 411.210938 301.226562 415.472656 301.226562 L 419.371094 301.226562 C 437.878906 301.226562 447.03125 278.460938 433.378906 266.25 C 422.492188 256.511719 408.113281 250.589844 392.324219 250.589844 C 361.984375 250.589844 336.816406 272.46875 331.742188 301.226562 C 331 304.828125 330.691406 308.527344 330.691406 312.222656 L 330.691406 328.15625 L 372.96875 328.15625 Z M 372.96875 328.144531 " fill-opacity="1" fill-rule="nonzero"/></g></g></g><g clip-path="url(#47aafe7839)"><g clip-path="url(#be42a68888)"><g clip-path="url(#551a062fd6)"><path stroke-linecap="butt" transform="matrix(0.75, 0, 0, 0.75, 17.827482, 23.917209)" fill="none" stroke-linejoin="miter" d="M 0.000857389 21.001013 L 0.000857389 939.219809 C 0.000857389 950.818768 9.4019 960.21981 21.000858 960.21981 L 979.219656 960.21981 C 990.818615 960.21981 1000.219657 950.818768 1000.219657 939.219809 L 1000.219657 21.001013 C 1000.219657 9.402055 990.818615 0.00101239 979.219656 0.00101239 L 21.000858 0.00101239 C 9.4019 0.00101239 0.000857389 9.402055 0.000857389 21.001013 Z M 0.000857389 21.001013 " stroke="#000000" stroke-width="2" stroke-opacity="1" stroke-miterlimit="4"/></g></g></g></svg>