<svg xmlns="http://www.w3.org/2000/svg" xmlns:xlink="http://www.w3.org/1999/xlink" width="500" zoomAndPan="magnify" viewBox="0 0 375 299.999988" height="400" preserveAspectRatio="xMidYMid meet" version="1.0"><defs><clipPath id="cc637576e2"><path d="M 40.488281 2.988281 L 334.488281 2.988281 L 334.488281 296.988281 L 40.488281 296.988281 Z M 40.488281 2.988281 " clip-rule="nonzero"/></clipPath></defs><g clip-path="url(#cc637576e2)"><path fill="#13889b" d="M 320.285156 2.988281 L 54.714844 2.988281 C 46.871094 2.988281 40.488281 9.371094 40.488281 17.214844 L 40.488281 282.785156 C 40.488281 290.628906 46.871094 297.011719 54.714844 297.011719 L 320.285156 297.011719 C 328.128906 297.011719 334.511719 290.628906 334.511719 282.785156 L 334.511719 17.214844 C 334.511719 9.371094 328.128906 2.988281 320.285156 2.988281 Z M 325.027344 282.785156 C 325.027344 285.398438 322.902344 287.527344 320.285156 287.527344 L 54.714844 287.527344 C 52.101562 287.527344 49.972656 285.398438 49.972656 282.785156 L 49.972656 17.214844 C 49.972656 14.601562 52.101562 12.472656 54.714844 12.472656 L 320.285156 12.472656 C 322.902344 12.472656 325.027344 14.601562 325.027344 17.214844 Z M 325.027344 282.785156 " fill-opacity="1" fill-rule="nonzero"/></g><path fill="#13889b" d="M 249.148438 88.347656 C 264.839844 88.347656 277.601562 75.585938 277.601562 59.894531 C 277.601562 44.203125 264.839844 31.441406 249.148438 31.441406 C 233.457031 31.441406 220.695312 44.203125 220.695312 59.894531 C 220.695312 75.585938 233.457031 88.347656 249.148438 88.347656 Z M 249.148438 40.925781 C 259.609375 40.925781 268.117188 49.433594 268.117188 59.894531 C 268.117188 70.355469 259.609375 78.863281 249.148438 78.863281 C 238.6875 78.863281 230.179688 70.355469 230.179688 59.894531 C 230.179688 49.433594 238.6875 40.925781 249.148438 40.925781 Z M 249.148438 40.925781 " fill-opacity="1" fill-rule="nonzero"/><path fill="#13889b" d="M 283.667969 97.203125 L 268.96875 93.261719 C 267.839844 92.957031 266.554688 93.0625 265.5 93.539062 C 255.296875 98.171875 243.003906 98.171875 232.792969 93.539062 C 231.730469 93.0625 230.449219 92.957031 229.328125 93.261719 L 214.625 97.203125 C 212.925781 97.660156 211.640625 98.953125 211.300781 100.554688 L 201.816406 144.769531 C 201.535156 146.054688 201.902344 147.386719 202.800781 148.394531 C 203.699219 149.410156 205.050781 149.996094 206.464844 149.996094 L 249.144531 149.996094 C 251.765625 149.996094 253.886719 148.035156 253.886719 145.617188 C 253.886719 143.199219 251.765625 141.238281 249.144531 141.238281 L 212.238281 141.238281 L 220.046875 104.867188 L 230.289062 102.121094 C 242.164062 106.980469 256.128906 106.980469 268.003906 102.121094 L 278.25 104.867188 L 286.054688 141.238281 L 268.117188 141.238281 C 265.496094 141.238281 263.375 143.199219 263.375 145.617188 C 263.375 148.035156 265.496094 149.996094 268.117188 149.996094 L 291.832031 149.996094 C 293.25 149.996094 294.59375 149.40625 295.492188 148.394531 C 296.390625 147.382812 296.757812 146.054688 296.476562 144.769531 L 286.992188 100.554688 C 286.652344 98.953125 285.367188 97.660156 283.667969 97.203125 Z M 283.667969 97.203125 " fill-opacity="1" fill-rule="nonzero"/><path fill="#13889b" d="M 83.167969 78.863281 L 159.046875 78.863281 C 161.664062 78.863281 163.789062 76.738281 163.789062 74.121094 C 163.789062 71.503906 161.664062 69.378906 159.046875 69.378906 L 83.167969 69.378906 C 80.550781 69.378906 78.425781 71.503906 78.425781 74.121094 C 78.425781 76.738281 80.550781 78.863281 83.167969 78.863281 Z M 83.167969 78.863281 " fill-opacity="1" fill-rule="nonzero"/><path fill="#13889b" d="M 83.167969 97.832031 L 159.046875 97.832031 C 161.664062 97.832031 163.789062 95.710938 163.789062 93.089844 C 163.789062 90.472656 161.664062 88.347656 159.046875 88.347656 L 83.167969 88.347656 C 80.550781 88.347656 78.425781 90.472656 78.425781 93.089844 C 78.425781 95.710938 80.550781 97.832031 83.167969 97.832031 Z M 83.167969 97.832031 " fill-opacity="1" fill-rule="nonzero"/><path fill="#13889b" d="M 83.167969 116.804688 L 159.046875 116.804688 C 161.664062 116.804688 163.789062 114.679688 163.789062 112.0625 C 163.789062 109.441406 161.664062 107.320312 159.046875 107.320312 L 83.167969 107.320312 C 80.550781 107.320312 78.425781 109.441406 78.425781 112.0625 C 78.425781 114.679688 80.550781 116.804688 83.167969 116.804688 Z M 83.167969 116.804688 " fill-opacity="1" fill-rule="nonzero"/><path fill="#13889b" d="M 87.910156 164.226562 C 80.066406 164.226562 73.683594 170.609375 73.683594 178.453125 C 73.683594 186.296875 80.066406 192.679688 87.910156 192.679688 C 95.753906 192.679688 102.136719 186.296875 102.136719 178.453125 C 102.136719 170.609375 95.753906 164.226562 87.910156 164.226562 Z M 87.910156 183.195312 C 85.296875 183.195312 83.167969 181.066406 83.167969 178.453125 C 83.167969 175.839844 85.296875 173.710938 87.910156 173.710938 C 90.523438 173.710938 92.652344 175.839844 92.652344 178.453125 C 92.652344 181.066406 90.523438 183.195312 87.910156 183.195312 Z M 87.910156 183.195312 " fill-opacity="1" fill-rule="nonzero"/><path fill="#13889b" d="M 87.910156 202.164062 C 80.066406 202.164062 73.683594 208.546875 73.683594 216.390625 C 73.683594 224.234375 80.066406 230.617188 87.910156 230.617188 C 95.753906 230.617188 102.136719 224.234375 102.136719 216.390625 C 102.136719 208.546875 95.753906 202.164062 87.910156 202.164062 Z M 87.910156 221.132812 C 85.296875 221.132812 83.167969 219.003906 83.167969 216.390625 C 83.167969 213.777344 85.296875 211.648438 87.910156 211.648438 C 90.523438 211.648438 92.652344 213.777344 92.652344 216.390625 C 92.652344 219.003906 90.523438 221.132812 87.910156 221.132812 Z M 87.910156 221.132812 " fill-opacity="1" fill-rule="nonzero"/><path fill="#13889b" d="M 87.910156 240.101562 C 80.066406 240.101562 73.683594 246.488281 73.683594 254.332031 C 73.683594 262.175781 80.066406 268.558594 87.910156 268.558594 C 95.753906 268.558594 102.136719 262.175781 102.136719 254.332031 C 102.136719 246.488281 95.753906 240.101562 87.910156 240.101562 Z M 87.910156 259.074219 C 85.296875 259.074219 83.167969 256.941406 83.167969 254.332031 C 83.167969 251.71875 85.296875 249.585938 87.910156 249.585938 C 90.523438 249.585938 92.652344 251.71875 92.652344 254.332031 C 92.652344 256.941406 90.523438 259.074219 87.910156 259.074219 Z M 87.910156 259.074219 " fill-opacity="1" fill-rule="nonzero"/><path fill="#13889b" d="M 220.695312 173.710938 L 116.363281 173.710938 C 113.746094 173.710938 111.621094 175.835938 111.621094 178.453125 C 111.621094 181.070312 113.746094 183.195312 116.363281 183.195312 L 220.695312 183.195312 C 223.316406 183.195312 225.4375 181.070312 225.4375 178.453125 C 225.4375 175.835938 223.316406 173.710938 220.695312 173.710938 Z M 220.695312 173.710938 " fill-opacity="1" fill-rule="nonzero"/><path fill="#13889b" d="M 220.695312 211.648438 L 116.363281 211.648438 C 113.746094 211.648438 111.621094 213.773438 111.621094 216.390625 C 111.621094 219.007812 113.746094 221.132812 116.363281 221.132812 L 220.695312 221.132812 C 223.316406 221.132812 225.4375 219.007812 225.4375 216.390625 C 225.4375 213.773438 223.316406 211.648438 220.695312 211.648438 Z M 220.695312 211.648438 " fill-opacity="1" fill-rule="nonzero"/><path fill="#13889b" d="M 220.695312 249.585938 L 116.363281 249.585938 C 113.746094 249.585938 111.621094 251.710938 111.621094 254.332031 C 111.621094 256.949219 113.746094 259.074219 116.363281 259.074219 L 220.695312 259.074219 C 223.316406 259.074219 225.4375 256.949219 225.4375 254.332031 C 225.4375 251.710938 223.316406 249.585938 220.695312 249.585938 Z M 220.695312 249.585938 " fill-opacity="1" fill-rule="nonzero"/></svg>