<svg xmlns="http://www.w3.org/2000/svg" xmlns:xlink="http://www.w3.org/1999/xlink" width="500" zoomAndPan="magnify" viewBox="0 0 375 299.999988" height="400" preserveAspectRatio="xMidYMid meet" version="1.0"><defs><clipPath id="2e6c230051"><path d="M 39.792969 2.054688 L 335.566406 2.054688 L 335.566406 298.304688 L 39.792969 298.304688 Z M 39.792969 2.054688 " clip-rule="nonzero"/></clipPath></defs><path fill="#e6e9ed" d="M 292.628906 112.484375 C 287.394531 112.484375 283.089844 108.199219 283.089844 102.941406 C 283.089844 108.199219 278.785156 112.484375 273.546875 112.484375 L 244.925781 112.484375 C 239.6875 112.484375 235.382812 108.199219 235.382812 102.941406 C 235.382812 108.199219 231.078125 112.484375 225.84375 112.484375 L 197.21875 112.484375 C 191.984375 112.484375 187.679688 108.199219 187.679688 102.941406 L 187.679688 102.085938 C 186.207031 102.664062 184.566406 102.941406 182.910156 102.941406 L 178.136719 102.941406 C 178.136719 115.113281 170.515625 125.566406 159.78125 129.664062 L 163.828125 145.878906 L 163.917969 145.933594 C 168.019531 147.164062 172.027344 148.65625 175.902344 150.367188 L 197.21875 164.960938 L 197.21875 293.765625 L 316.484375 293.765625 C 319.109375 293.765625 321.253906 291.621094 321.253906 288.992188 L 321.253906 112.484375 L 292.628906 112.484375 " fill-opacity="1" fill-rule="nonzero"/><path fill="#ffeaa7" d="M 268.777344 36.15625 L 283.089844 93.402344 L 235.382812 93.402344 L 221.074219 36.15625 L 268.777344 36.15625 " fill-opacity="1" fill-rule="nonzero"/><path fill="#ff826e" d="M 313.910156 42.695312 L 330.792969 93.402344 L 283.089844 93.402344 L 268.777344 36.15625 L 304.835938 36.15625 C 308.9375 36.15625 312.570312 38.785156 313.910156 42.695312 " fill-opacity="1" fill-rule="nonzero"/><path fill="#ff826e" d="M 235.382812 93.402344 L 196.363281 93.402344 C 196.941406 91.929688 197.21875 90.308594 197.21875 88.632812 C 197.21875 84.832031 195.691406 81.34375 193.308594 78.8125 L 194.742188 70.183594 C 196.417969 60.25 197.21875 50.1875 197.21875 40.125 C 197.21875 38.785156 197.125 37.496094 196.976562 36.210938 L 197.21875 36.15625 L 221.074219 36.15625 L 235.382812 93.402344 " fill-opacity="1" fill-rule="nonzero"/><path fill="#fcd770" d="M 283.089844 102.941406 C 283.089844 108.199219 278.785156 112.484375 273.546875 112.484375 L 244.925781 112.484375 C 239.6875 112.484375 235.382812 108.199219 235.382812 102.941406 L 235.382812 93.402344 L 283.089844 93.402344 L 283.089844 102.941406 " fill-opacity="1" fill-rule="nonzero"/><path fill="#fc6e51" d="M 330.792969 93.402344 L 330.792969 102.941406 C 330.792969 108.199219 326.488281 112.484375 321.253906 112.484375 L 292.628906 112.484375 C 287.394531 112.484375 283.089844 108.199219 283.089844 102.941406 L 283.089844 93.402344 L 330.792969 93.402344 " fill-opacity="1" fill-rule="nonzero"/><path fill="#fc6e51" d="M 235.382812 93.402344 L 235.382812 102.941406 C 235.382812 108.199219 231.078125 112.484375 225.84375 112.484375 L 197.21875 112.484375 C 191.984375 112.484375 187.679688 108.199219 187.679688 102.941406 L 187.679688 102.085938 C 189.730469 101.414062 191.535156 100.222656 193.027344 98.75 C 194.5 97.277344 195.691406 95.453125 196.363281 93.402344 L 235.382812 93.402344 " fill-opacity="1" fill-rule="nonzero"/><path fill="#656d78" d="M 194.742188 70.183594 L 193.308594 78.8125 C 190.679688 76.054688 187.007812 74.320312 182.910156 74.320312 L 178.136719 74.320312 L 178.136719 64.777344 C 178.136719 59.542969 173.832031 55.238281 168.597656 55.238281 L 154.285156 55.238281 C 146.515625 55.238281 139.546875 51.472656 135.203125 45.695312 L 120.890625 45.695312 C 110.34375 45.695312 101.808594 54.25 101.808594 64.777344 L 101.808594 74.320312 L 97.039062 74.320312 C 92.9375 74.320312 89.269531 76.054688 86.640625 78.8125 L 83.210938 58.109375 C 82.875 56.207031 82.726562 54.289062 82.726562 52.332031 C 82.726562 32.875 98.511719 17.074219 117.984375 17.074219 L 127.527344 17.074219 C 138.78125 17.074219 149.699219 13.738281 159.054688 7.53125 C 165.167969 10.589844 169.789062 15.9375 171.988281 22.421875 L 173.367188 26.613281 L 176.890625 24.863281 C 180.859375 22.851562 184.53125 20.222656 187.679688 17.074219 C 192.839844 22.234375 196.121094 29 196.976562 36.210938 C 197.125 37.496094 197.21875 38.785156 197.21875 40.125 C 197.21875 50.1875 196.417969 60.25 194.742188 70.183594 " fill-opacity="1" fill-rule="nonzero"/><path fill="#ffeaa7" d="M 144.746094 179.273438 L 154.285156 207.894531 L 125.660156 207.894531 L 135.203125 179.273438 L 144.746094 179.273438 " fill-opacity="1" fill-rule="nonzero"/><path fill="#fcd770" d="M 151.898438 164.960938 L 144.746094 179.273438 L 135.203125 179.273438 L 128.046875 164.960938 L 139.972656 155.417969 L 151.898438 164.960938 " fill-opacity="1" fill-rule="nonzero"/><path fill="#4fc1e9" d="M 232.941406 211.566406 L 230.667969 206.085938 C 228.136719 200.03125 225.042969 194.253906 221.464844 188.867188 C 210.394531 171.890625 194.554688 158.476562 175.902344 150.367188 L 163.828125 174.5 L 151.898438 164.960938 L 144.746094 179.273438 L 154.285156 207.894531 L 125.660156 207.894531 L 135.203125 179.273438 L 128.046875 164.960938 L 116.121094 174.5 L 104.046875 150.367188 C 79.429688 161.101562 59.730469 181.003906 49.277344 206.085938 L 47.003906 211.566406 C 45.363281 215.441406 44.5625 219.597656 44.5625 223.789062 C 44.5625 241.382812 58.78125 255.601562 76.371094 255.601562 L 82.726562 255.601562 L 82.726562 293.765625 L 197.21875 293.765625 L 197.21875 255.601562 L 203.574219 255.601562 C 208.101562 255.601562 212.445312 254.648438 216.300781 252.992188 C 227.558594 248.070312 235.382812 236.851562 235.382812 223.789062 C 235.382812 219.597656 234.582031 215.441406 232.941406 211.566406 " fill-opacity="1" fill-rule="nonzero"/><path fill="#3bafda" d="M 175.902344 150.367188 L 163.828125 174.5 L 139.972656 155.417969 L 163.828125 145.878906 L 163.917969 145.933594 C 168.019531 147.164062 172.027344 148.65625 175.902344 150.367188 " fill-opacity="1" fill-rule="nonzero"/><path fill="#3bafda" d="M 139.972656 155.417969 L 116.121094 174.5 L 104.046875 150.367188 C 107.921875 148.65625 111.929688 147.164062 116.027344 145.933594 L 116.121094 145.878906 L 139.972656 155.417969 " fill-opacity="1" fill-rule="nonzero"/><path fill="#e6e9ed" d="M 168.597656 255.601562 L 168.597656 269.910156 C 168.597656 272.539062 166.453125 274.683594 163.828125 274.683594 L 116.121094 274.683594 C 113.492188 274.683594 111.351562 272.539062 111.351562 269.910156 L 111.351562 255.601562 L 116.121094 255.601562 C 120.089844 255.601562 123.667969 253.980469 126.238281 251.40625 C 128.8125 248.835938 130.433594 245.257812 130.433594 241.289062 C 130.433594 233.367188 124.039062 226.976562 116.121094 226.976562 L 111.351562 226.976562 L 111.351562 212.664062 C 111.351562 210.054688 113.492188 207.894531 116.121094 207.894531 L 163.828125 207.894531 C 166.453125 207.894531 168.597656 210.054688 168.597656 212.664062 L 168.597656 226.976562 L 163.828125 226.976562 C 155.90625 226.976562 149.515625 233.367188 149.515625 241.289062 C 149.515625 245.257812 151.136719 248.835938 153.707031 251.40625 C 156.277344 253.980469 159.855469 255.601562 163.828125 255.601562 L 168.597656 255.601562 " fill-opacity="1" fill-rule="nonzero"/><path fill="#f0d0b4" d="M 178.136719 226.976562 L 178.136719 255.601562 L 163.828125 255.601562 C 159.855469 255.601562 156.277344 253.980469 153.707031 251.40625 C 151.136719 248.835938 149.515625 245.257812 149.515625 241.289062 C 149.515625 233.367188 155.90625 226.976562 163.828125 226.976562 L 178.136719 226.976562 " fill-opacity="1" fill-rule="nonzero"/><path fill="#f0d0b4" d="M 111.351562 226.976562 L 116.121094 226.976562 C 124.039062 226.976562 130.433594 233.367188 130.433594 241.289062 C 130.433594 245.257812 128.8125 248.835938 126.238281 251.40625 C 123.667969 253.980469 120.089844 255.601562 116.121094 255.601562 L 101.808594 255.601562 L 101.808594 226.976562 L 111.351562 226.976562 " fill-opacity="1" fill-rule="nonzero"/><path fill="#f0d0b4" d="M 182.910156 74.320312 C 187.007812 74.320312 190.679688 76.054688 193.308594 78.8125 C 195.691406 81.34375 197.21875 84.832031 197.21875 88.632812 C 197.21875 90.308594 196.941406 91.929688 196.363281 93.402344 C 195.691406 95.453125 194.5 97.277344 193.027344 98.75 C 191.535156 100.222656 189.730469 101.414062 187.679688 102.085938 C 186.207031 102.664062 184.566406 102.941406 182.910156 102.941406 L 178.136719 102.941406 L 178.136719 74.320312 L 182.910156 74.320312 " fill-opacity="1" fill-rule="nonzero"/><path fill="#f0d0b4" d="M 159.78125 129.664062 L 163.828125 145.878906 L 139.972656 155.417969 L 116.121094 145.878906 L 120.164062 129.664062 C 123.371094 130.914062 126.796875 131.566406 130.433594 131.566406 L 149.515625 131.566406 C 153.148438 131.566406 156.578125 130.914062 159.78125 129.664062 " fill-opacity="1" fill-rule="nonzero"/><path fill="#f0d0b4" d="M 178.136719 74.320312 L 178.136719 102.941406 C 178.136719 115.113281 170.515625 125.566406 159.78125 129.664062 C 156.578125 130.914062 153.148438 131.566406 149.515625 131.566406 L 130.433594 131.566406 C 126.796875 131.566406 123.371094 130.914062 120.164062 129.664062 C 109.429688 125.566406 101.808594 115.113281 101.808594 102.941406 L 101.808594 64.777344 C 101.808594 54.25 110.34375 45.695312 120.890625 45.695312 L 135.203125 45.695312 C 139.546875 51.472656 146.515625 55.238281 154.285156 55.238281 L 168.597656 55.238281 C 173.832031 55.238281 178.136719 59.542969 178.136719 64.777344 L 178.136719 74.320312 " fill-opacity="1" fill-rule="nonzero"/><path fill="#f0d0b4" d="M 101.808594 74.320312 L 101.808594 102.941406 L 97.039062 102.941406 C 93.070312 102.941406 89.492188 101.320312 86.921875 98.75 C 84.347656 96.179688 82.726562 92.601562 82.726562 88.632812 C 82.726562 84.832031 84.253906 81.34375 86.640625 78.8125 C 89.269531 76.054688 92.9375 74.320312 97.039062 74.320312 L 101.808594 74.320312 " fill-opacity="1" fill-rule="nonzero"/><path fill="#d3a06c" d="M 221.5 188.8125 L 221.464844 188.867188 C 225.042969 194.253906 228.136719 200.03125 230.667969 206.085938 L 232.941406 211.566406 C 234.582031 215.441406 235.382812 219.597656 235.382812 223.789062 C 235.382812 236.851562 227.558594 248.070312 216.300781 252.992188 L 216.300781 269.910156 C 216.300781 272.539062 218.445312 274.683594 221.074219 274.683594 L 297.402344 274.683594 C 300.027344 274.683594 302.171875 272.539062 302.171875 269.910156 L 302.171875 188.8125 L 221.5 188.8125 " fill-opacity="1" fill-rule="nonzero"/><path fill="#d3a06c" d="M 297.402344 131.566406 L 249.695312 131.566406 C 247.066406 131.566406 244.925781 133.726562 244.925781 136.335938 L 244.925781 188.8125 L 302.171875 188.8125 L 302.171875 136.335938 C 302.171875 133.726562 300.027344 131.566406 297.402344 131.566406 " fill-opacity="1" fill-rule="nonzero"/><path fill="#b27946" d="M 273.546875 188.8125 L 273.546875 207.894531 L 244.925781 207.894531 L 244.925781 188.8125 L 273.546875 188.8125 " fill-opacity="1" fill-rule="nonzero"/><path fill="#b27946" d="M 283.089844 131.566406 L 283.089844 150.648438 L 264.007812 150.648438 L 264.007812 131.566406 L 283.089844 131.566406 " fill-opacity="1" fill-rule="nonzero"/><path fill="#000000" d="M 120.890625 69.550781 C 118.265625 69.550781 116.121094 71.691406 116.121094 74.320312 C 116.121094 76.964844 118.265625 79.089844 120.890625 79.089844 C 123.519531 79.089844 125.660156 76.964844 125.660156 74.320312 C 125.660156 71.691406 123.519531 69.550781 120.890625 69.550781 " fill-opacity="1" fill-rule="nonzero"/><path fill="#000000" d="M 159.054688 79.089844 C 161.683594 79.089844 163.828125 76.964844 163.828125 74.320312 C 163.828125 71.691406 161.683594 69.550781 159.054688 69.550781 C 156.429688 69.550781 154.285156 71.691406 154.285156 74.320312 C 154.285156 76.964844 156.429688 79.089844 159.054688 79.089844 " fill-opacity="1" fill-rule="nonzero"/><path fill="#000000" d="M 163.828125 98.171875 L 154.285156 98.171875 C 154.285156 103.445312 150 107.714844 144.746094 107.714844 L 125.660156 107.714844 L 125.660156 117.253906 L 144.746094 117.253906 C 155.273438 117.253906 163.828125 108.703125 163.828125 98.171875 " fill-opacity="1" fill-rule="nonzero"/><g clip-path="url(#2e6c230051)"><path fill="#000000" d="M 321.253906 107.714844 L 292.628906 107.714844 C 290.003906 107.714844 287.859375 105.589844 287.859375 102.941406 L 287.859375 98.171875 L 326.023438 98.171875 L 326.023438 102.941406 C 326.023438 105.589844 323.882812 107.714844 321.253906 107.714844 Z M 201.992188 288.992188 L 201.992188 260.371094 L 203.574219 260.371094 C 206.3125 260.371094 208.980469 260.054688 211.53125 259.476562 L 211.53125 269.910156 C 211.53125 275.183594 215.816406 279.453125 221.074219 279.453125 L 297.402344 279.453125 C 302.65625 279.453125 306.941406 275.183594 306.941406 269.910156 L 306.941406 136.335938 C 306.941406 131.082031 302.65625 126.796875 297.402344 126.796875 L 249.695312 126.796875 C 244.441406 126.796875 240.15625 131.082031 240.15625 136.335938 L 240.15625 184.042969 L 224.015625 184.042969 C 210.523438 164.496094 190.957031 149.773438 167.8125 142.1875 L 165.355469 132.332031 C 174.449219 127.410156 180.988281 118.355469 182.515625 107.714844 L 182.910156 107.714844 C 183.207031 107.714844 183.46875 107.640625 183.765625 107.640625 C 185.722656 113.210938 190.976562 117.253906 197.21875 117.253906 L 225.84375 117.253906 C 229.53125 117.253906 232.851562 115.820312 235.382812 113.546875 C 237.917969 115.820312 241.234375 117.253906 244.925781 117.253906 L 273.546875 117.253906 C 277.238281 117.253906 280.554688 115.820312 283.089844 113.546875 C 285.625 115.820312 288.941406 117.253906 292.628906 117.253906 L 316.484375 117.253906 L 316.484375 288.992188 Z M 87.496094 260.371094 L 106.578125 260.371094 L 106.578125 269.910156 C 106.578125 275.183594 110.867188 279.453125 116.121094 279.453125 L 163.828125 279.453125 C 169.082031 279.453125 173.367188 275.183594 173.367188 269.910156 L 173.367188 260.371094 L 192.449219 260.371094 L 192.449219 288.992188 L 87.496094 288.992188 Z M 49.332031 223.808594 C 49.332031 220.210938 50.023438 216.710938 51.421875 213.410156 L 53.710938 207.914062 C 63.140625 185.273438 80.25 167.214844 101.828125 156.59375 L 114.5 181.917969 L 126.425781 172.375 L 130.058594 179.644531 L 122.234375 203.125 L 116.121094 203.125 C 110.867188 203.125 106.578125 207.410156 106.578125 212.664062 L 106.578125 222.207031 L 87.496094 222.207031 L 87.496094 203.125 L 77.957031 203.125 L 77.957031 222.207031 L 58.875 222.207031 L 58.875 231.746094 L 97.039062 231.746094 L 97.039062 250.828125 L 76.371094 250.828125 C 61.464844 250.828125 49.332031 238.71875 49.332031 223.808594 Z M 130.433594 136.335938 L 149.515625 136.335938 C 151.863281 136.335938 154.136719 136.09375 156.355469 135.628906 L 158.199219 143.007812 L 139.972656 150.292969 L 121.75 143.007812 L 123.59375 135.628906 C 125.8125 136.09375 128.085938 136.335938 130.433594 136.335938 Z M 169.34375 152.808594 L 162.203125 167.101562 L 149.347656 156.816406 L 163.992188 150.964844 C 165.800781 151.523438 167.570312 152.140625 169.34375 152.808594 Z M 173.367188 231.746094 L 173.367188 250.828125 L 163.828125 250.828125 C 158.570312 250.828125 154.285156 246.5625 154.285156 241.289062 C 154.285156 236.035156 158.570312 231.746094 163.828125 231.746094 Z M 138.632812 184.042969 L 141.316406 184.042969 L 147.667969 203.125 L 132.277344 203.125 Z M 139.972656 161.53125 L 145.898438 166.28125 L 141.800781 174.5 L 138.148438 174.5 L 134.046875 166.28125 Z M 130.601562 156.816406 L 117.742188 167.101562 L 110.605469 152.808594 C 112.375 152.140625 114.144531 151.523438 115.953125 150.964844 Z M 116.121094 260.371094 C 126.648438 260.371094 135.203125 251.816406 135.203125 241.289062 C 135.203125 230.777344 126.648438 222.207031 116.121094 222.207031 L 116.121094 212.664062 L 163.828125 212.664062 L 163.828125 222.207031 C 153.296875 222.207031 144.746094 230.777344 144.746094 241.289062 C 144.746094 251.816406 153.296875 260.371094 163.828125 260.371094 L 163.828125 269.910156 L 116.121094 269.910156 Z M 116.121094 231.746094 C 121.375 231.746094 125.660156 236.035156 125.660156 241.289062 C 125.660156 246.5625 121.375 250.828125 116.121094 250.828125 L 106.578125 250.828125 L 106.578125 231.746094 Z M 226.253906 207.914062 L 228.546875 213.410156 C 229.90625 216.710938 230.613281 220.210938 230.613281 223.808594 C 230.613281 238.71875 218.480469 250.828125 203.574219 250.828125 L 182.910156 250.828125 L 182.910156 231.746094 L 221.074219 231.746094 L 221.074219 222.207031 L 201.992188 222.207031 L 201.992188 203.125 L 192.449219 203.125 L 192.449219 222.207031 L 173.367188 222.207031 L 173.367188 212.664062 C 173.367188 207.410156 169.082031 203.125 163.828125 203.125 L 157.714844 203.125 L 149.886719 179.644531 L 153.519531 172.375 L 165.449219 181.917969 L 178.121094 156.59375 C 199.71875 167.214844 216.804688 185.289062 226.253906 207.914062 Z M 278.320312 212.664062 L 278.320312 193.582031 L 297.402344 193.582031 L 297.402344 269.910156 L 221.074219 269.910156 L 221.074219 255.917969 C 232.441406 249.691406 240.15625 237.636719 240.15625 223.808594 C 240.15625 218.945312 239.203125 214.210938 237.339844 209.738281 L 235.046875 204.242188 C 233.519531 200.570312 231.804688 197.03125 229.925781 193.582031 L 240.15625 193.582031 L 240.15625 212.664062 Z M 268.777344 193.582031 L 268.777344 203.125 L 249.695312 203.125 L 249.695312 193.582031 Z M 287.859375 155.417969 L 287.859375 136.335938 L 297.402344 136.335938 L 297.402344 184.042969 L 249.695312 184.042969 L 249.695312 136.335938 L 259.238281 136.335938 L 259.238281 155.417969 Z M 268.777344 136.335938 L 278.320312 136.335938 L 278.320312 145.878906 L 268.777344 145.878906 Z M 106.578125 102.941406 L 106.578125 64.777344 C 106.578125 56.894531 112.992188 50.46875 120.890625 50.46875 L 132.96875 50.46875 C 138.222656 56.320312 145.824219 60.007812 154.285156 60.007812 L 168.597656 60.007812 C 171.222656 60.007812 173.367188 62.152344 173.367188 64.777344 L 173.367188 102.941406 C 173.367188 116.097656 162.671875 126.796875 149.515625 126.796875 L 130.433594 126.796875 C 117.277344 126.796875 106.578125 116.097656 106.578125 102.941406 Z M 97.039062 64.777344 L 97.039062 69.550781 C 94.617188 69.550781 92.304688 70.050781 90.164062 70.890625 L 87.90625 57.324219 C 87.648438 55.703125 87.496094 54.007812 87.496094 52.332031 C 87.496094 35.523438 101.175781 21.84375 117.984375 21.84375 L 127.542969 21.84375 C 138.742188 21.84375 149.609375 18.84375 159.167969 13.105469 C 163.0625 15.675781 165.949219 19.457031 167.441406 23.929688 L 170.570312 33.34375 L 179.015625 29.128906 C 181.921875 27.675781 184.679688 25.925781 187.214844 23.894531 C 190.566406 28.589844 192.449219 34.3125 192.449219 40.105469 C 192.449219 49.871094 191.628906 59.730469 190.027344 69.382812 L 189.785156 70.890625 C 187.640625 70.050781 185.332031 69.550781 182.910156 69.550781 L 182.910156 64.777344 C 182.910156 56.894531 176.496094 50.46875 168.597656 50.46875 L 154.285156 50.46875 C 143.757812 50.46875 135.203125 41.914062 135.203125 31.386719 L 125.660156 31.386719 C 125.660156 34.738281 126.238281 37.945312 127.300781 40.925781 L 120.890625 40.925781 C 107.734375 40.925781 97.039062 51.640625 97.039062 64.777344 Z M 87.496094 88.632812 C 87.496094 83.375 91.785156 79.089844 97.039062 79.089844 L 97.039062 98.171875 C 91.785156 98.171875 87.496094 93.90625 87.496094 88.632812 Z M 240.15625 98.171875 L 278.320312 98.171875 L 278.320312 102.941406 C 278.320312 105.589844 276.175781 107.714844 273.546875 107.714844 L 244.925781 107.714844 C 242.296875 107.714844 240.15625 105.589844 240.15625 102.941406 Z M 199.34375 98.171875 L 230.613281 98.171875 L 230.613281 102.941406 C 230.613281 105.589844 228.46875 107.714844 225.84375 107.714844 L 197.21875 107.714844 C 195.261719 107.714844 193.585938 106.539062 192.859375 104.84375 C 195.542969 103.203125 197.742188 100.910156 199.34375 98.171875 Z M 239.109375 88.632812 L 227.183594 40.925781 L 265.050781 40.925781 L 276.976562 88.632812 Z M 201.972656 40.925781 L 217.34375 40.925781 L 229.273438 88.632812 L 201.992188 88.632812 C 201.992188 84.476562 200.613281 80.65625 198.339844 77.507812 L 199.4375 70.945312 C 201.078125 61.050781 201.933594 50.953125 201.972656 40.925781 Z M 182.910156 79.089844 C 188.164062 79.089844 192.449219 83.375 192.449219 88.632812 C 192.449219 93.90625 188.164062 98.171875 182.910156 98.171875 Z M 309.363281 44.1875 L 324.179688 88.632812 L 286.816406 88.632812 L 274.890625 40.925781 L 304.835938 40.925781 C 306.886719 40.925781 308.710938 42.25 309.363281 44.1875 Z M 318.421875 41.167969 C 316.464844 35.316406 311.003906 31.386719 304.835938 31.386719 L 200.910156 31.386719 C 199.289062 24.75 195.914062 18.5625 191.050781 13.699219 L 187.679688 10.328125 L 184.304688 13.699219 C 181.863281 16.140625 179.125 18.210938 176.125 19.867188 C 173.421875 12.621094 168.148438 6.75 161.199219 3.265625 L 158.71875 2.035156 L 156.410156 3.5625 C 147.835938 9.285156 137.847656 12.304688 127.542969 12.304688 L 117.984375 12.304688 C 95.902344 12.304688 77.957031 30.265625 77.957031 52.332031 C 77.957031 54.546875 78.144531 56.765625 78.496094 58.910156 L 81.589844 77.507812 C 79.335938 80.65625 77.957031 84.476562 77.957031 88.632812 C 77.957031 99.160156 86.511719 107.714844 97.039062 107.714844 L 97.429688 107.714844 C 98.957031 118.355469 105.5 127.410156 114.59375 132.332031 L 112.132812 142.167969 C 81.683594 152.121094 57.253906 174.574219 44.898438 204.242188 L 42.605469 209.738281 C 40.742188 214.210938 39.792969 218.945312 39.792969 223.808594 C 39.792969 243.972656 56.191406 260.371094 76.371094 260.371094 L 77.957031 260.371094 L 77.957031 298.535156 L 316.484375 298.535156 C 321.738281 298.535156 326.023438 294.269531 326.023438 288.992188 L 326.023438 116.378906 C 331.558594 114.402344 335.566406 109.167969 335.566406 102.941406 L 335.566406 92.636719 L 318.421875 41.167969 " fill-opacity="1" fill-rule="nonzero"/></g></svg>