<svg xmlns="http://www.w3.org/2000/svg" xmlns:xlink="http://www.w3.org/1999/xlink" width="500" zoomAndPan="magnify" viewBox="0 0 375 299.999988" height="400" preserveAspectRatio="xMidYMid meet" version="1.0"><defs><clipPath id="dd8dc6a968"><path d="M 30 3.132812 L 344 3.132812 L 344 297.132812 L 30 297.132812 Z M 30 3.132812 " clip-rule="nonzero"/></clipPath><clipPath id="5865193a0f"><path d="M 86.035156 190.363281 L 178.886719 190.363281 L 178.886719 276.613281 L 86.035156 276.613281 Z M 86.035156 190.363281 " clip-rule="nonzero"/></clipPath><clipPath id="724c48dffb"><path d="M 87 197 L 178.945312 197 L 178.945312 276 L 87 276 Z M 87 197 " clip-rule="nonzero"/></clipPath><clipPath id="79f7564b13"><path d="M 191.398438 190.363281 L 284.246094 190.363281 L 284.246094 276.613281 L 191.398438 276.613281 Z M 191.398438 190.363281 " clip-rule="nonzero"/></clipPath></defs><g clip-path="url(#dd8dc6a968)"><path fill="#13889b" d="M 343.71875 81.804688 C 343.664062 81.472656 343.648438 81.136719 343.53125 80.820312 C 343.410156 80.5 343.207031 80.234375 343.027344 79.945312 C 342.859375 79.65625 342.710938 79.359375 342.472656 79.105469 C 342.242188 78.847656 341.921875 78.671875 341.632812 78.464844 C 341.386719 78.289062 341.203125 78.0625 340.921875 77.921875 L 189.472656 3.90625 C 189.375 3.855469 189.261719 3.871094 189.164062 3.820312 C 188.824219 3.679688 188.472656 3.617188 188.113281 3.546875 C 187.796875 3.492188 187.484375 3.414062 187.167969 3.414062 C 186.835938 3.414062 186.515625 3.492188 186.175781 3.554688 C 185.832031 3.617188 185.492188 3.679688 185.167969 3.816406 C 185.054688 3.855469 184.941406 3.851562 184.835938 3.898438 L 33.394531 77.910156 C 33.113281 78.050781 32.929688 78.277344 32.683594 78.453125 C 32.394531 78.664062 32.082031 78.839844 31.84375 79.09375 C 31.613281 79.347656 31.46875 79.640625 31.289062 79.929688 C 31.113281 80.21875 30.90625 80.488281 30.789062 80.804688 C 30.667969 81.121094 30.648438 81.460938 30.589844 81.789062 C 30.535156 82.121094 30.441406 82.445312 30.449219 82.785156 C 30.457031 83.136719 30.574219 83.472656 30.652344 83.820312 C 30.71875 84.109375 30.703125 84.402344 30.824219 84.691406 L 35.40625 95.675781 C 35.421875 95.714844 35.449219 95.746094 35.472656 95.78125 C 35.71875 96.328125 36.050781 96.800781 36.4375 97.214844 C 36.554688 97.351562 36.695312 97.449219 36.832031 97.570312 C 37.167969 97.863281 37.535156 98.117188 37.9375 98.316406 C 38.105469 98.398438 38.269531 98.484375 38.445312 98.554688 C 38.808594 98.6875 39.183594 98.765625 39.578125 98.824219 L 39.578125 291.996094 C 39.578125 294.910156 41.945312 297.277344 44.859375 297.277344 L 78.601562 297.277344 C 81.515625 297.277344 83.882812 294.910156 83.882812 291.996094 L 83.882812 107.375 L 290.390625 107.375 L 290.390625 291.996094 C 290.390625 294.910156 292.757812 297.277344 295.671875 297.277344 L 329.414062 297.277344 C 332.324219 297.277344 334.695312 294.910156 334.695312 291.996094 L 334.695312 98.835938 C 335.082031 98.789062 335.457031 98.703125 335.832031 98.570312 C 336.007812 98.5 336.167969 98.421875 336.335938 98.328125 C 336.738281 98.132812 337.097656 97.886719 337.445312 97.582031 C 337.578125 97.464844 337.71875 97.363281 337.835938 97.230469 C 338.230469 96.816406 338.570312 96.34375 338.816406 95.792969 C 338.832031 95.757812 338.859375 95.730469 338.878906 95.6875 L 343.464844 84.707031 C 343.585938 84.417969 343.570312 84.121094 343.628906 83.832031 C 343.710938 83.480469 343.824219 83.144531 343.832031 82.796875 C 343.867188 82.453125 343.769531 82.128906 343.71875 81.804688 Z M 300.984375 102.089844 C 300.984375 99.175781 298.617188 96.808594 295.703125 96.808594 L 78.621094 96.808594 C 75.707031 96.808594 73.339844 99.175781 73.339844 102.089844 L 73.339844 286.710938 L 50.164062 286.710938 L 50.164062 93.644531 C 50.164062 90.730469 47.796875 88.363281 44.882812 88.363281 L 43.820312 88.363281 L 42.507812 85.226562 L 187.160156 14.542969 L 331.816406 85.226562 L 330.503906 88.371094 L 329.441406 88.371094 C 326.523438 88.371094 324.160156 90.734375 324.160156 93.652344 L 324.160156 286.726562 L 300.984375 286.726562 Z M 300.984375 102.089844 " fill-opacity="1" fill-rule="nonzero"/></g><path fill="#13889b" d="M 99.480469 126.582031 L 274.84375 126.582031 C 277.761719 126.582031 280.128906 124.214844 280.128906 121.300781 C 280.128906 118.382812 277.761719 116.015625 274.84375 116.015625 L 99.480469 116.015625 C 96.5625 116.015625 94.195312 118.382812 94.195312 121.300781 C 94.195312 124.214844 96.5625 126.582031 99.480469 126.582031 Z M 99.480469 126.582031 " fill-opacity="1" fill-rule="nonzero"/><path fill="#13889b" d="M 99.480469 145.792969 L 274.84375 145.792969 C 277.761719 145.792969 280.128906 143.425781 280.128906 140.507812 C 280.128906 137.59375 277.761719 135.226562 274.84375 135.226562 L 99.480469 135.226562 C 96.5625 135.226562 94.195312 137.59375 94.195312 140.507812 C 94.195312 143.425781 96.5625 145.792969 99.480469 145.792969 Z M 99.480469 145.792969 " fill-opacity="1" fill-rule="nonzero"/><path fill="#13889b" d="M 99.480469 165 L 274.84375 165 C 277.761719 165 280.128906 162.632812 280.128906 159.71875 C 280.128906 156.800781 277.761719 154.433594 274.84375 154.433594 L 99.480469 154.433594 C 96.5625 154.433594 94.195312 156.800781 94.195312 159.71875 C 94.195312 162.632812 96.5625 165 99.480469 165 Z M 99.480469 165 " fill-opacity="1" fill-rule="nonzero"/><path fill="#13889b" d="M 99.480469 184.207031 L 274.84375 184.207031 C 277.761719 184.207031 280.128906 181.84375 280.128906 178.925781 C 280.128906 176.007812 277.761719 173.644531 274.84375 173.644531 L 99.480469 173.644531 C 96.5625 173.644531 94.195312 176.007812 94.195312 178.925781 C 94.195312 181.84375 96.5625 184.207031 99.480469 184.207031 Z M 99.480469 184.207031 " fill-opacity="1" fill-rule="nonzero"/><g clip-path="url(#5865193a0f)"><path fill="#f5ba53" d="M 86.035156 264.679688 L 87.125 207.816406 L 124.949219 190.355469 L 178.527344 197.308594 L 178.886719 251.351562 L 147.066406 276.632812 L 86.035156 264.679688 " fill-opacity="1" fill-rule="evenodd"/></g><path fill="#fef7e4" d="M 170.808594 211.878906 L 159.914062 218.769531 L 160.777344 246.453125 L 171.132812 237.664062 Z M 127.558594 231.855469 L 128.222656 260.871094 L 139.859375 262.984375 L 138.558594 233.089844 Z M 138.070312 192.101562 L 149.3125 192.808594 L 122.054688 212.839844 L 121.0625 231.539062 L 110.808594 230.222656 L 112.109375 210.3125 L 138.070312 192.101562 " fill-opacity="1" fill-rule="evenodd"/><g clip-path="url(#724c48dffb)"><path fill="#bd651d" d="M 178.355469 197.785156 L 149.855469 215.195312 C 149.890625 215.230469 149.917969 215.28125 149.914062 215.339844 C 149.914062 215.339844 149.902344 223.195312 149.859375 233.210938 C 149.851562 235.128906 149.835938 237.125 149.820312 239.164062 C 149.804688 241.128906 149.789062 243.125 149.765625 245.125 C 149.71875 249.195312 149.660156 253.269531 149.605469 257.035156 C 149.460938 267.039062 149.328125 274.902344 149.328125 274.902344 C 149.324219 275.015625 149.234375 275.109375 149.117188 275.105469 C 149.003906 275.105469 148.910156 275.011719 148.910156 274.898438 C 148.910156 274.898438 148.9375 267.035156 148.992188 257.027344 C 149.015625 253.257812 149.03125 249.1875 149.070312 245.113281 C 149.089844 243.117188 149.113281 241.117188 149.132812 239.160156 C 149.160156 237.121094 149.1875 235.125 149.214844 233.203125 C 149.371094 223.191406 149.519531 215.335938 149.519531 215.335938 C 149.519531 215.296875 149.542969 215.273438 149.558594 215.238281 C 148.808594 215.160156 142.785156 214.492188 134.761719 213.585938 C 131.6875 213.238281 128.320312 212.851562 124.847656 212.453125 C 119.933594 211.882812 114.800781 211.285156 109.976562 210.71875 C 97.863281 209.300781 87.675781 208.082031 87.675781 208.082031 C 87.566406 208.070312 87.488281 207.972656 87.503906 207.859375 C 87.515625 207.753906 87.609375 207.675781 87.722656 207.6875 C 87.722656 207.6875 97.917969 208.789062 110.042969 210.125 C 114.871094 210.652344 120.007812 211.222656 124.921875 211.773438 C 128.398438 212.164062 131.765625 212.542969 134.84375 212.890625 C 142.765625 213.796875 148.742188 214.496094 149.605469 214.597656 L 178.140625 197.429688 C 178.238281 197.371094 178.363281 197.40625 178.425781 197.503906 C 178.484375 197.597656 178.453125 197.726562 178.355469 197.785156 " fill-opacity="1" fill-rule="evenodd"/></g><path fill="#3b435f" d="M 115.214844 248.480469 C 115.214844 248.480469 112.113281 248.128906 108.160156 247.714844 C 106.671875 247.554688 105.0625 247.390625 103.453125 247.234375 C 102.664062 247.152344 101.871094 247.085938 101.09375 247.015625 C 100.289062 246.945312 99.496094 246.878906 98.738281 246.816406 C 94.773438 246.5 91.660156 246.273438 91.660156 246.273438 C 91.550781 246.265625 91.457031 246.347656 91.445312 246.453125 C 91.433594 246.566406 91.511719 246.660156 91.625 246.667969 C 91.625 246.667969 94.722656 247.03125 98.679688 247.457031 C 99.441406 247.539062 100.226562 247.617188 101.03125 247.699219 C 101.808594 247.777344 102.597656 247.855469 103.386719 247.921875 C 104.996094 248.070312 106.609375 248.207031 108.105469 248.328125 C 112.066406 248.652344 115.179688 248.890625 115.179688 248.890625 C 115.292969 248.898438 115.394531 248.816406 115.402344 248.703125 C 115.414062 248.589844 115.332031 248.488281 115.214844 248.480469 Z M 115.558594 243.085938 C 115.558594 243.085938 112.457031 242.738281 108.5 242.324219 C 107.011719 242.167969 105.402344 241.996094 103.792969 241.839844 C 103.007812 241.761719 102.214844 241.691406 101.4375 241.625 C 100.632812 241.550781 99.84375 241.484375 99.082031 241.421875 C 95.117188 241.105469 92 240.886719 92 240.886719 C 91.894531 240.875 91.796875 240.953125 91.785156 241.0625 C 91.777344 241.171875 91.859375 241.269531 91.964844 241.28125 C 91.964844 241.28125 95.066406 241.640625 99.019531 242.0625 C 99.78125 242.144531 100.570312 242.230469 101.375 242.308594 C 102.148438 242.386719 102.941406 242.460938 103.730469 242.535156 C 105.339844 242.675781 106.953125 242.8125 108.449219 242.9375 C 112.410156 243.265625 115.519531 243.496094 115.519531 243.496094 C 115.636719 243.511719 115.734375 243.425781 115.75 243.3125 C 115.757812 243.195312 115.671875 243.09375 115.558594 243.085938 Z M 115.890625 238.484375 C 115.878906 238.59375 115.78125 238.679688 115.664062 238.667969 C 115.664062 238.667969 112.550781 238.433594 108.585938 238.105469 C 107.097656 237.980469 105.484375 237.851562 103.875 237.703125 C 103.082031 237.632812 102.292969 237.554688 101.519531 237.480469 C 100.710938 237.398438 99.921875 237.320312 99.164062 237.234375 C 95.210938 236.8125 92.109375 236.449219 92.109375 236.449219 C 92 236.441406 91.921875 236.34375 91.929688 236.234375 C 91.9375 236.128906 92.035156 236.046875 92.144531 236.054688 C 92.144531 236.054688 95.257812 236.28125 99.226562 236.597656 C 99.984375 236.65625 100.777344 236.722656 101.582031 236.792969 C 102.359375 236.863281 103.148438 236.933594 103.9375 237.007812 C 105.546875 237.167969 107.15625 237.335938 108.644531 237.492188 C 112.601562 237.910156 115.703125 238.253906 115.703125 238.253906 C 115.816406 238.269531 115.898438 238.367188 115.890625 238.484375 " fill-opacity="1" fill-rule="evenodd"/><path fill="#d13123" d="M 136.628906 237.441406 L 133.8125 244.75 L 134.363281 256.207031 L 136.070312 258.832031 L 131.070312 258.035156 L 133.246094 256.03125 L 133.089844 244.777344 L 130.191406 236.789062 L 133.917969 237.160156 L 133.34375 238 L 134.054688 238.636719 L 133.453125 240.226562 L 134.75 238.996094 L 134.171875 237.917969 L 134.289062 237.203125 Z M 129.84375 259.40625 C 129.8125 258.210938 129.597656 250.667969 129.398438 244.0625 C 129.261719 239.5 129.128906 235.386719 129.089844 234.125 L 137.355469 235.195312 C 137.394531 236.347656 137.550781 240.714844 137.730469 245.574219 C 137.980469 252.15625 138.269531 259.636719 138.332031 261.269531 Z M 138.039062 234.871094 C 138.035156 234.703125 137.90625 234.5625 137.734375 234.542969 L 128.78125 233.402344 C 128.6875 233.394531 128.585938 233.425781 128.511719 233.488281 C 128.441406 233.554688 128.398438 233.648438 128.40625 233.753906 C 128.40625 233.753906 128.585938 238.589844 128.8125 244.082031 C 129.101562 251.277344 129.457031 259.585938 129.457031 259.585938 C 129.460938 259.679688 129.523438 259.761719 129.613281 259.777344 C 129.605469 259.777344 138.542969 261.835938 138.542969 261.835938 C 138.621094 261.851562 138.699219 261.835938 138.761719 261.78125 C 138.820312 261.730469 138.855469 261.660156 138.851562 261.578125 C 138.851562 261.578125 138.601562 252.992188 138.375 245.558594 C 138.199219 239.882812 138.039062 234.871094 138.039062 234.871094 Z M 166.863281 226.636719 L 166.199219 234.683594 C 166.578125 234.871094 167.613281 235.757812 167.613281 235.757812 L 164.644531 237.410156 C 164.644531 237.410156 165.675781 234.898438 165.714844 234.859375 L 166.039062 226.820312 L 163.421875 223.097656 L 166.511719 221.6875 C 166.394531 221.875 166.199219 222.417969 166.113281 222.613281 C 166.039062 222.792969 166.222656 222.910156 166.316406 223.039062 C 166.480469 223.273438 166.570312 223.476562 166.457031 223.753906 C 166.375 223.972656 166.261719 224.1875 166.171875 224.40625 C 166.167969 224.421875 166.085938 224.644531 166.132812 224.636719 C 166.265625 224.609375 166.445312 224.25 166.515625 224.152344 C 166.597656 224.039062 166.675781 223.933594 166.757812 223.820312 C 166.8125 223.75 166.863281 223.671875 166.917969 223.601562 C 166.957031 223.542969 167.003906 223.488281 167.046875 223.433594 C 167.070312 223.398438 167.1875 223.292969 167.191406 223.246094 C 167.195312 223.097656 166.710938 222.957031 166.71875 222.753906 C 166.71875 222.503906 166.789062 221.816406 166.816406 221.5 L 168.519531 220.417969 Z M 162.085938 243.023438 C 162.105469 241.3125 162.171875 235.070312 162.21875 229.554688 C 162.261719 225.195312 162.28125 221.292969 162.292969 220.445312 L 169.300781 215.273438 C 169.324219 216.621094 169.386719 219.828125 169.453125 223.347656 C 169.570312 228.972656 169.707031 235.390625 169.726562 236.355469 Z M 170.101562 223.335938 C 170.042969 218.683594 169.980469 214.582031 169.980469 214.582031 C 169.980469 214.453125 169.90625 214.335938 169.789062 214.277344 C 169.671875 214.21875 169.535156 214.230469 169.425781 214.308594 L 161.757812 220.007812 C 161.675781 220.070312 161.621094 220.167969 161.621094 220.277344 C 161.621094 220.277344 161.621094 224.621094 161.632812 229.554688 C 161.652344 236.011719 161.6875 243.46875 161.6875 243.46875 C 161.6875 243.550781 161.734375 243.628906 161.804688 243.660156 C 161.871094 243.695312 161.957031 243.679688 162.015625 243.628906 C 162.019531 243.628906 170.167969 236.671875 170.167969 236.671875 C 170.226562 236.625 170.261719 236.546875 170.261719 236.46875 C 170.261719 236.46875 170.183594 229.433594 170.101562 223.335938 " fill-opacity="1" fill-rule="evenodd"/><g clip-path="url(#79f7564b13)"><path fill="#f5ba53" d="M 191.398438 264.679688 L 192.484375 207.816406 L 230.308594 190.355469 L 283.890625 197.308594 L 284.246094 251.351562 L 252.425781 276.632812 L 191.398438 264.679688 " fill-opacity="1" fill-rule="evenodd"/></g><path fill="#fef7e4" d="M 276.167969 211.878906 L 265.273438 218.769531 L 266.136719 246.453125 L 276.496094 237.664062 Z M 232.921875 231.855469 L 233.582031 260.871094 L 245.21875 262.984375 L 243.917969 233.089844 Z M 243.429688 192.101562 L 254.675781 192.808594 L 227.417969 212.839844 L 226.425781 231.539062 L 216.167969 230.222656 L 217.46875 210.3125 L 243.429688 192.101562 " fill-opacity="1" fill-rule="evenodd"/><path fill="#bd651d" d="M 283.714844 197.785156 L 255.214844 215.195312 C 255.25 215.230469 255.277344 215.28125 255.273438 215.339844 C 255.273438 215.339844 255.265625 223.195312 255.21875 233.210938 C 255.210938 235.128906 255.199219 237.125 255.179688 239.164062 C 255.167969 241.128906 255.148438 243.125 255.125 245.125 C 255.082031 249.195312 255.023438 253.269531 254.964844 257.035156 C 254.820312 267.039062 254.6875 274.902344 254.6875 274.902344 C 254.683594 275.015625 254.59375 275.109375 254.476562 275.105469 C 254.367188 275.105469 254.273438 275.011719 254.273438 274.898438 C 254.273438 274.898438 254.296875 267.035156 254.351562 257.027344 C 254.375 253.257812 254.394531 249.1875 254.433594 245.113281 C 254.449219 243.117188 254.472656 241.117188 254.496094 239.160156 C 254.523438 237.121094 254.550781 235.125 254.574219 233.203125 C 254.734375 223.191406 254.878906 215.335938 254.878906 215.335938 C 254.878906 215.296875 254.902344 215.273438 254.921875 215.238281 C 254.167969 215.160156 248.148438 214.492188 240.121094 213.585938 C 237.046875 213.238281 233.679688 212.851562 230.207031 212.453125 C 225.292969 211.882812 220.160156 211.285156 215.335938 210.71875 C 203.222656 209.300781 193.039062 208.082031 193.039062 208.082031 C 192.925781 208.070312 192.851562 207.972656 192.863281 207.859375 C 192.878906 207.753906 192.972656 207.675781 193.082031 207.6875 C 193.082031 207.6875 203.28125 208.789062 215.40625 210.125 C 220.234375 210.652344 225.371094 211.222656 230.28125 211.773438 C 233.761719 212.164062 237.128906 212.542969 240.203125 212.890625 C 248.125 213.796875 254.101562 214.496094 254.964844 214.597656 L 283.5 197.429688 C 283.597656 197.371094 283.722656 197.40625 283.785156 197.503906 C 283.84375 197.597656 283.8125 197.726562 283.714844 197.785156 " fill-opacity="1" fill-rule="evenodd"/><path fill="#3b435f" d="M 220.578125 248.480469 C 220.578125 248.480469 217.476562 248.128906 213.523438 247.714844 C 212.035156 247.554688 210.425781 247.390625 208.816406 247.234375 C 208.023438 247.152344 207.234375 247.085938 206.453125 247.015625 C 205.648438 246.945312 204.859375 246.878906 204.097656 246.816406 C 200.132812 246.5 197.023438 246.273438 197.023438 246.273438 C 196.910156 246.265625 196.816406 246.347656 196.808594 246.453125 C 196.792969 246.566406 196.875 246.660156 196.984375 246.667969 C 196.984375 246.667969 200.085938 247.03125 204.039062 247.457031 C 204.800781 247.539062 205.585938 247.617188 206.390625 247.699219 C 207.171875 247.777344 207.957031 247.855469 208.75 247.921875 C 210.359375 248.070312 211.972656 248.207031 213.464844 248.328125 C 217.425781 248.652344 220.542969 248.890625 220.542969 248.890625 C 220.652344 248.898438 220.757812 248.816406 220.765625 248.703125 C 220.773438 248.589844 220.695312 248.488281 220.578125 248.480469 Z M 220.921875 243.085938 C 220.921875 243.085938 217.820312 242.738281 213.863281 242.324219 C 212.375 242.167969 210.765625 241.996094 209.15625 241.839844 C 208.367188 241.761719 207.578125 241.691406 206.800781 241.625 C 205.996094 241.550781 205.203125 241.484375 204.441406 241.421875 C 200.476562 241.105469 197.363281 240.886719 197.363281 240.886719 C 197.253906 240.875 197.15625 240.953125 197.148438 241.0625 C 197.136719 241.171875 197.21875 241.269531 197.324219 241.28125 C 197.324219 241.28125 200.429688 241.640625 204.378906 242.0625 C 205.140625 242.144531 205.933594 242.230469 206.738281 242.308594 C 207.511719 242.386719 208.300781 242.460938 209.09375 242.535156 C 210.703125 242.675781 212.316406 242.8125 213.808594 242.9375 C 217.769531 243.265625 220.882812 243.496094 220.882812 243.496094 C 220.996094 243.511719 221.097656 243.425781 221.109375 243.3125 C 221.117188 243.195312 221.035156 243.09375 220.921875 243.085938 Z M 221.253906 238.484375 C 221.238281 238.59375 221.140625 238.679688 221.023438 238.667969 C 221.023438 238.667969 217.914062 238.433594 213.949219 238.105469 C 212.457031 237.980469 210.84375 237.851562 209.234375 237.703125 C 208.445312 237.632812 207.652344 237.554688 206.878906 237.480469 C 206.070312 237.398438 205.285156 237.320312 204.523438 237.234375 C 200.570312 236.8125 197.46875 236.449219 197.46875 236.449219 C 197.363281 236.441406 197.28125 236.34375 197.289062 236.234375 C 197.300781 236.128906 197.398438 236.046875 197.503906 236.054688 C 197.503906 236.054688 200.621094 236.28125 204.585938 236.597656 C 205.347656 236.65625 206.136719 236.722656 206.941406 236.792969 C 207.71875 236.863281 208.511719 236.933594 209.296875 237.007812 C 210.90625 237.167969 212.515625 237.335938 214.003906 237.492188 C 217.960938 237.910156 221.066406 238.253906 221.066406 238.253906 C 221.175781 238.269531 221.261719 238.367188 221.253906 238.484375 " fill-opacity="1" fill-rule="evenodd"/><path fill="#d13123" d="M 241.992188 237.441406 L 239.175781 244.75 L 239.726562 256.207031 L 241.433594 258.832031 L 236.429688 258.035156 L 238.605469 256.03125 L 238.449219 244.777344 L 235.554688 236.789062 L 239.277344 237.160156 L 238.707031 238 L 239.417969 238.636719 L 238.8125 240.226562 L 240.109375 238.996094 L 239.53125 237.917969 L 239.648438 237.203125 Z M 235.203125 259.40625 C 235.171875 258.210938 234.960938 250.667969 234.757812 244.0625 C 234.625 239.5 234.488281 235.386719 234.449219 234.125 L 242.714844 235.195312 C 242.753906 236.347656 242.914062 240.714844 243.089844 245.574219 C 243.339844 252.15625 243.632812 259.636719 243.695312 261.269531 Z M 243.398438 234.871094 C 243.394531 234.703125 243.265625 234.5625 243.09375 234.542969 L 234.140625 233.402344 C 234.046875 233.394531 233.949219 233.425781 233.871094 233.488281 C 233.800781 233.554688 233.761719 233.648438 233.765625 233.753906 C 233.765625 233.753906 233.949219 238.589844 234.171875 244.082031 C 234.464844 251.277344 234.816406 259.585938 234.816406 259.585938 C 234.820312 259.679688 234.882812 259.761719 234.972656 259.777344 C 234.96875 259.777344 243.90625 261.835938 243.90625 261.835938 C 243.980469 261.851562 244.0625 261.835938 244.125 261.78125 C 244.183594 261.730469 244.21875 261.660156 244.214844 261.578125 C 244.214844 261.578125 243.960938 252.992188 243.734375 245.558594 C 243.558594 239.882812 243.398438 234.871094 243.398438 234.871094 Z M 272.226562 226.636719 L 271.558594 234.683594 C 271.941406 234.871094 272.972656 235.757812 272.972656 235.757812 L 270.003906 237.410156 C 270.003906 237.410156 271.035156 234.898438 271.078125 234.859375 L 271.398438 226.820312 L 268.785156 223.097656 L 271.871094 221.6875 C 271.757812 221.875 271.558594 222.417969 271.476562 222.613281 C 271.398438 222.792969 271.582031 222.910156 271.675781 223.039062 C 271.839844 223.273438 271.929688 223.476562 271.820312 223.753906 C 271.734375 223.972656 271.621094 224.1875 271.53125 224.40625 C 271.527344 224.421875 271.449219 224.644531 271.492188 224.636719 C 271.625 224.609375 271.804688 224.25 271.878906 224.152344 C 271.957031 224.039062 272.039062 223.933594 272.117188 223.820312 C 272.171875 223.75 272.226562 223.671875 272.28125 223.601562 C 272.320312 223.542969 272.363281 223.488281 272.410156 223.433594 C 272.429688 223.398438 272.546875 223.292969 272.550781 223.246094 C 272.558594 223.097656 272.074219 222.957031 272.078125 222.753906 C 272.078125 222.503906 272.148438 221.816406 272.175781 221.5 L 273.878906 220.417969 Z M 267.445312 243.023438 C 267.464844 241.3125 267.53125 235.070312 267.582031 229.554688 C 267.621094 225.195312 267.644531 221.292969 267.652344 220.445312 L 274.664062 215.273438 C 274.683594 216.621094 274.746094 219.828125 274.8125 223.347656 C 274.929688 228.972656 275.070312 235.390625 275.085938 236.355469 Z M 275.460938 223.335938 C 275.40625 218.683594 275.34375 214.582031 275.34375 214.582031 C 275.34375 214.453125 275.265625 214.335938 275.148438 214.277344 C 275.035156 214.21875 274.894531 214.230469 274.789062 214.308594 L 267.121094 220.007812 C 267.035156 220.070312 266.980469 220.167969 266.980469 220.277344 C 266.980469 220.277344 266.980469 224.621094 266.996094 229.554688 C 267.011719 236.011719 267.050781 243.46875 267.050781 243.46875 C 267.050781 243.550781 267.09375 243.628906 267.164062 243.660156 C 267.230469 243.695312 267.316406 243.679688 267.375 243.628906 C 267.378906 243.628906 275.53125 236.671875 275.53125 236.671875 C 275.585938 236.625 275.625 236.546875 275.625 236.46875 C 275.625 236.46875 275.542969 229.433594 275.460938 223.335938 " fill-opacity="1" fill-rule="evenodd"/></svg>