<svg xmlns="http://www.w3.org/2000/svg" xmlns:xlink="http://www.w3.org/1999/xlink" width="500" zoomAndPan="magnify" viewBox="0 0 375 299.999988" height="400" preserveAspectRatio="xMidYMid meet" version="1.0"><defs><clipPath id="06760ff5d4"><path d="M 37.5 0 L 337.5 0 L 337.5 300 L 37.5 300 Z M 37.5 0 " clip-rule="nonzero"/></clipPath></defs><g clip-path="url(#06760ff5d4)"><path fill="#13889b" d="M 327.5 220 L 312.5 220 L 312.5 145 L 327.5 145 Z M 272.753906 234.765625 C 269.84375 237.695312 265.058594 237.695312 262.128906 234.765625 C 260.175781 232.8125 257.011719 232.8125 255.058594 234.765625 C 254.082031 235.742188 253.59375 237.03125 253.59375 238.300781 C 253.59375 239.589844 254.082031 240.859375 255.058594 241.835938 C 256.484375 243.261719 257.285156 245.15625 257.285156 247.148438 C 257.285156 249.160156 256.484375 251.035156 255.078125 252.441406 C 252.148438 255.371094 247.34375 255.351562 244.414062 252.441406 C 242.441406 250.507812 239.277344 250.527344 237.34375 252.480469 C 236.386719 253.457031 235.898438 254.726562 235.898438 255.996094 C 235.898438 257.285156 236.386719 258.574219 237.382812 259.550781 C 238.789062 260.957031 239.570312 262.8125 239.570312 264.824219 C 239.570312 266.816406 238.789062 268.691406 237.34375 270.136719 C 235.957031 271.542969 234.101562 272.324219 232.109375 272.324219 C 232.109375 272.324219 232.089844 272.324219 232.089844 272.324219 C 230.097656 272.324219 228.222656 271.542969 226.777344 270.117188 C 224.84375 268.164062 221.679688 268.164062 219.726562 270.117188 C 218.730469 271.09375 218.261719 272.382812 218.261719 273.652344 C 218.261719 274.941406 218.730469 276.210938 219.726562 277.1875 C 221.132812 278.613281 221.933594 280.507812 221.933594 282.5 C 221.933594 284.492188 221.132812 286.386719 219.746094 287.792969 C 216.777344 290.722656 212.011719 290.703125 208.945312 287.675781 C 208.789062 287.519531 205.273438 284.296875 199.316406 279.179688 C 202.5 272.089844 200.664062 263.4375 194.257812 258.339844 C 191.289062 255.957031 187.734375 254.785156 184.179688 254.628906 C 184.84375 248.828125 182.636719 242.792969 177.695312 238.867188 C 174.726562 236.523438 171.230469 235.351562 167.695312 235.175781 C 167.851562 233.867188 167.890625 232.539062 167.734375 231.191406 C 167.207031 226.523438 164.863281 222.363281 161.210938 219.492188 C 157.578125 216.582031 152.988281 215.253906 148.339844 215.820312 C 146.972656 215.976562 145.664062 216.328125 144.414062 216.777344 C 143.4375 213.378906 141.464844 210.234375 138.515625 207.871094 C 130.957031 201.914062 119.902344 203.183594 113.886719 210.742188 L 107.207031 219.199219 C 94.453125 213.964844 82.8125 210.9375 72.5 210.195312 L 72.5 155 L 122.5 155 C 124.882812 155 127.226562 154.453125 129.199219 153.417969 L 162.148438 136.835938 C 165.976562 134.863281 170.761719 134.589844 175.039062 135.859375 L 147.03125 165.351562 C 143.75 169.003906 142.148438 173.964844 142.65625 178.984375 C 143.144531 183.984375 145.683594 188.535156 149.609375 191.464844 C 156.679688 196.71875 166.660156 195.996094 172.65625 189.902344 L 197.832031 166.328125 C 198.398438 166.738281 255.46875 208.925781 272.988281 224.394531 C 274.257812 225.507812 274.980469 227.128906 275.058594 228.945312 C 275.117188 231.113281 274.277344 233.242188 272.753906 234.765625 Z M 189.277344 276.699219 L 181.035156 287.128906 C 178.457031 290.390625 173.691406 290.9375 170.46875 288.378906 C 167.226562 285.820312 166.679688 281.09375 169.21875 277.871094 C 169.21875 277.851562 169.21875 277.851562 169.238281 277.851562 L 177.519531 267.421875 C 179.003906 265.527344 181.210938 264.550781 183.4375 264.550781 C 185.058594 264.550781 186.679688 265.078125 188.027344 266.152344 C 191.289062 268.75 191.835938 273.476562 189.277344 276.679688 C 189.277344 276.679688 189.277344 276.699219 189.277344 276.699219 Z M 150.820312 272.890625 C 147.597656 270.3125 147.03125 265.585938 149.570312 262.363281 C 149.570312 262.34375 149.570312 262.34375 149.570312 262.34375 L 161.035156 247.890625 C 162.519531 246.074219 164.707031 245.117188 166.894531 245.117188 C 168.515625 245.117188 170.136719 245.644531 171.484375 246.699219 C 174.746094 249.296875 175.3125 254.023438 172.753906 257.226562 C 172.734375 257.246094 172.734375 257.246094 172.734375 257.246094 L 161.367188 271.660156 C 158.789062 274.863281 154.0625 275.390625 150.820312 272.890625 Z M 131.210938 257.382812 C 129.648438 256.132812 128.652344 254.335938 128.417969 252.34375 C 128.183594 250.371094 128.730469 248.417969 129.980469 246.855469 C 129.980469 246.855469 144.472656 228.554688 144.492188 228.535156 C 146.953125 225.429688 151.757812 224.726562 155.019531 227.324219 C 158.203125 229.863281 158.789062 234.628906 156.230469 237.851562 L 141.738281 256.152344 C 139.179688 259.394531 134.472656 259.941406 131.210938 257.382812 Z M 111.621094 241.894531 C 108.378906 239.296875 107.8125 234.550781 110.390625 231.289062 L 121.71875 216.953125 C 123.222656 215.078125 125.429688 214.101562 127.65625 214.101562 C 129.277344 214.101562 130.917969 214.628906 132.304688 215.703125 C 135.527344 218.28125 136.074219 223.007812 133.535156 226.25 L 122.148438 240.625 C 119.570312 243.867188 114.84375 244.414062 111.621094 241.894531 Z M 153.496094 130 L 137.5 130 L 137.5 115 L 162.5 115 L 162.5 126.113281 C 160.800781 126.582031 159.140625 127.128906 157.597656 127.929688 Z M 117.5 140 L 117.5 20 C 117.5 14.492188 121.992188 10 127.5 10 L 152.5 10 L 152.5 53.925781 C 152.5 57.96875 154.589844 61.5625 158.105469 63.554688 C 159.824219 64.53125 161.699219 65.019531 163.554688 65.019531 C 165.507812 65.019531 167.460938 64.472656 169.238281 63.417969 L 187.5 52.460938 L 205.761719 63.417969 C 209.21875 65.488281 213.378906 65.546875 216.894531 63.554688 C 220.410156 61.5625 222.5 57.96875 222.5 53.925781 L 222.5 10 L 247.5 10 C 253.007812 10 257.5 14.492188 257.5 20 L 257.5 140 C 257.5 141.777344 257.011719 143.496094 256.132812 145 L 244.589844 145 C 243.828125 145 243.066406 144.824219 242.402344 144.492188 L 209.550781 127.96875 C 205.800781 126.035156 201.523438 125 197.207031 125 C 192.382812 125 187.65625 126.308594 183.535156 128.652344 C 180.15625 126.757812 176.367188 125.625 172.5 125.253906 L 172.5 115 C 172.5 109.492188 168.007812 105 162.5 105 L 137.5 105 C 131.992188 105 127.5 109.492188 127.5 115 L 127.5 130 C 127.5 134.492188 130.488281 138.261719 134.570312 139.511719 L 124.648438 144.511719 C 124.042969 144.824219 123.28125 145 122.5 145 L 118.867188 145 C 117.988281 143.496094 117.5 141.777344 117.5 140 Z M 162.5 10 L 212.5 10 L 212.5 53.925781 C 212.5 54.335938 212.324219 54.648438 211.972656 54.84375 C 211.71875 55 211.328125 55.117188 210.898438 54.84375 L 190.078125 42.34375 C 188.496094 41.40625 186.503906 41.40625 184.921875 42.34375 L 164.101562 54.84375 C 163.652344 55.117188 163.28125 55 163.027344 54.84375 C 162.675781 54.648438 162.5 54.335938 162.5 53.925781 Z M 203.691406 158.222656 C 199.84375 155.488281 194.570312 155.859375 191.152344 159.082031 L 165.703125 182.734375 C 163.007812 185.449219 158.671875 185.742188 155.585938 183.4375 C 153.90625 182.1875 152.832031 180.195312 152.597656 177.988281 C 152.382812 175.78125 153.066406 173.613281 154.375 172.148438 L 184.472656 140.449219 C 189.667969 135.019531 198.457031 133.496094 205 136.875 L 237.851562 153.378906 C 239.882812 154.453125 242.226562 155 244.589844 155 L 302.5 155 L 302.5 210.136719 C 290.546875 210.742188 281.660156 213.300781 277.265625 214.882812 C 257.363281 197.890625 206.035156 159.941406 203.691406 158.222656 Z M 62.5 220 L 47.5 220 L 47.5 145 L 62.5 145 Z M 327.5 135 L 312.5 135 C 306.992188 135 302.5 139.492188 302.5 145 L 266.777344 145 C 267.207031 143.378906 267.5 141.71875 267.5 140 L 267.5 20 C 267.5 8.964844 258.535156 0 247.5 0 L 127.5 0 C 116.464844 0 107.5 8.964844 107.5 20 L 107.5 140 C 107.5 141.71875 107.792969 143.378906 108.222656 145 L 72.5 145 C 72.5 139.492188 68.007812 135 62.5 135 L 47.5 135 C 41.992188 135 37.5 139.492188 37.5 145 L 37.5 220 C 37.5 225.507812 41.992188 230 47.5 230 L 62.5 230 C 67.929688 230 72.34375 225.644531 72.480469 220.234375 C 80.917969 220.917969 90.488281 223.339844 101.035156 227.460938 C 96.933594 234.824219 98.59375 244.296875 105.410156 249.726562 C 108.613281 252.246094 112.421875 253.457031 116.210938 253.457031 C 116.972656 253.457031 117.714844 253.300781 118.476562 253.203125 C 118.496094 253.320312 118.476562 253.417969 118.476562 253.515625 C 119.023438 258.144531 121.347656 262.285156 125.019531 265.214844 C 128.222656 267.753906 132.050781 268.984375 135.859375 268.984375 C 136.621094 268.984375 137.363281 268.828125 138.105469 268.730469 C 138.574219 273.28125 140.78125 277.65625 144.628906 280.742188 C 147.832031 283.242188 151.660156 284.453125 155.449219 284.453125 C 156.210938 284.453125 156.992188 284.296875 157.753906 284.199219 C 158.203125 288.75 160.390625 293.144531 164.257812 296.230469 C 167.441406 298.75 171.289062 299.980469 175.078125 299.980469 C 180.253906 299.980469 185.410156 297.714844 188.886719 293.339844 L 193.554688 287.421875 C 198.867188 291.992188 202.03125 294.902344 202.03125 294.902344 C 205.449219 298.28125 209.902344 299.960938 214.394531 299.960938 C 218.886719 299.960938 223.359375 298.28125 226.777344 294.882812 C 230.097656 291.5625 231.933594 287.167969 231.933594 282.5 C 231.933594 282.441406 231.933594 282.382812 231.933594 282.324219 C 231.992188 282.324219 232.050781 282.304688 232.128906 282.324219 C 236.796875 282.304688 241.171875 280.488281 244.414062 277.207031 C 247.734375 273.90625 249.570312 269.511719 249.570312 264.824219 C 249.570312 264.746094 249.570312 264.6875 249.570312 264.609375 C 249.628906 264.609375 249.6875 264.609375 249.746094 264.609375 C 254.21875 264.609375 258.710938 262.910156 262.128906 259.53125 C 265.449219 256.210938 267.285156 251.816406 267.285156 247.148438 C 267.285156 247.089844 267.285156 247.011719 267.285156 246.953125 C 267.324219 246.953125 267.382812 246.953125 267.441406 246.953125 C 271.933594 246.953125 276.425781 245.234375 279.84375 241.816406 C 283.320312 238.320312 285.195312 233.515625 285.039062 228.613281 C 284.980469 226.71875 284.550781 224.941406 283.90625 223.261719 C 288.085938 222.03125 294.453125 220.625 302.519531 220.175781 C 302.617188 225.605469 307.050781 230 312.5 230 L 327.5 230 C 333.007812 230 337.5 225.507812 337.5 220 L 337.5 145 C 337.5 139.492188 333.007812 135 327.5 135 " fill-opacity="1" fill-rule="nonzero"/></g></svg>