<svg xmlns="http://www.w3.org/2000/svg" xmlns:xlink="http://www.w3.org/1999/xlink" width="500" zoomAndPan="magnify" viewBox="0 0 375 299.999988" height="400" preserveAspectRatio="xMidYMid meet" version="1.0"><defs><clipPath id="2ad00311c3"><path d="M 37.5 0 L 334.5 0 L 334.5 297 L 37.5 297 Z M 37.5 0 " clip-rule="nonzero"/></clipPath></defs><g clip-path="url(#2ad00311c3)"><path fill="#13889b" d="M 306.644531 251.867188 C 300.476562 251.867188 295.460938 257.789062 295.460938 265.0625 C 295.460938 272.339844 300.476562 278.257812 306.644531 278.257812 C 312.808594 278.257812 317.824219 272.339844 317.824219 265.0625 C 317.824219 257.789062 312.808594 251.867188 306.644531 251.867188 Z M 306.644531 269.847656 C 305.363281 269.847656 303.875 267.757812 303.875 265.0625 C 303.875 262.371094 305.363281 260.28125 306.644531 260.28125 C 307.921875 260.28125 309.410156 262.371094 309.410156 265.0625 C 309.410156 267.757812 307.921875 269.847656 306.644531 269.847656 Z M 235.410156 64.292969 C 235.410156 37 213.203125 14.796875 185.914062 14.796875 C 158.621094 14.796875 136.414062 37 136.414062 64.292969 C 136.414062 91.585938 158.621094 113.789062 185.914062 113.789062 C 213.203125 113.789062 235.410156 91.585938 235.410156 64.292969 Z M 144.828125 64.292969 C 144.828125 41.636719 163.257812 23.207031 185.914062 23.207031 C 208.566406 23.207031 226.996094 41.636719 226.996094 64.292969 C 226.996094 86.945312 208.566406 105.375 185.914062 105.375 C 163.257812 105.375 144.828125 86.945312 144.828125 64.292969 Z M 186.054688 96.75 C 183.777344 96.75 181.90625 94.933594 181.851562 92.644531 L 181.789062 90.003906 C 177.890625 89.105469 175.308594 86.957031 172.839844 84.625 C 171.148438 83.03125 171.070312 80.371094 172.664062 78.679688 C 174.257812 76.988281 176.917969 76.910156 178.609375 78.507812 C 181.414062 81.152344 182.863281 82.03125 185.910156 82.03125 C 190.304688 82.03125 193.882812 79.042969 193.882812 75.367188 C 193.882812 71.6875 190.304688 68.699219 185.910156 68.699219 C 176.878906 68.699219 169.527344 61.933594 169.527344 53.617188 C 169.527344 46.667969 174.667969 40.796875 181.632812 39.058594 L 181.5625 36.140625 C 181.507812 33.820312 183.34375 31.890625 185.667969 31.835938 C 187.984375 31.773438 189.917969 33.617188 189.972656 35.941406 L 190.050781 39.164062 C 193.863281 40.179688 198.21875 42.398438 200.230469 45.457031 C 201.503906 47.398438 200.964844 50.007812 199.023438 51.285156 C 197.085938 52.558594 194.476562 52.019531 193.199219 50.078125 C 192.417969 48.890625 188.222656 46.949219 185.914062 46.949219 C 181.519531 46.949219 177.941406 49.941406 177.941406 53.617188 C 177.941406 57.292969 181.519531 60.285156 185.914062 60.285156 C 194.945312 60.285156 202.296875 67.050781 202.296875 75.363281 C 202.296875 82.3125 197.160156 88.179688 190.199219 89.921875 L 190.261719 92.441406 C 190.316406 94.761719 188.480469 96.691406 186.160156 96.746094 C 186.125 96.746094 186.089844 96.75 186.054688 96.75 Z M 291.0625 210.300781 C 267.207031 210.300781 247.800781 229.707031 247.800781 253.5625 C 247.800781 277.417969 267.207031 296.824219 291.0625 296.824219 C 314.917969 296.824219 334.324219 277.417969 334.324219 253.5625 C 334.324219 229.707031 314.917969 210.300781 291.0625 210.300781 Z M 291.0625 288.414062 C 271.847656 288.414062 256.210938 272.777344 256.210938 253.5625 C 256.210938 234.347656 271.847656 218.710938 291.0625 218.710938 C 310.277344 218.710938 325.914062 234.347656 325.914062 253.5625 C 325.914062 272.777344 310.277344 288.414062 291.0625 288.414062 Z M 222.402344 242.886719 C 219.65625 242.886719 218.574219 240.785156 218.308594 240.144531 C 218.042969 239.5 217.324219 237.25 219.265625 235.308594 C 220.542969 234.03125 221.246094 232.332031 221.246094 230.519531 C 221.246094 228.710938 220.542969 227.011719 219.265625 225.730469 L 213.742188 220.210938 C 212.460938 218.929688 210.761719 218.226562 208.953125 218.226562 C 207.144531 218.226562 205.445312 218.929688 204.164062 220.210938 C 202.226562 222.152344 199.976562 221.433594 199.332031 221.164062 C 198.6875 220.898438 196.589844 219.816406 196.589844 217.070312 C 196.589844 213.339844 193.550781 210.300781 189.816406 210.300781 L 182.007812 210.300781 C 178.273438 210.300781 175.234375 213.339844 175.234375 217.070312 C 175.234375 219.816406 173.136719 220.898438 172.492188 221.164062 C 171.851562 221.433594 169.601562 222.152344 167.660156 220.210938 C 165.019531 217.570312 160.722656 217.570312 158.082031 220.210938 L 152.558594 225.734375 C 151.28125 227.011719 150.578125 228.710938 150.578125 230.519531 C 150.578125 232.332031 151.28125 234.03125 152.558594 235.308594 C 154.5 237.25 153.78125 239.5 153.515625 240.144531 C 153.25 240.785156 152.167969 242.886719 149.421875 242.886719 C 145.6875 242.886719 142.648438 245.921875 142.648438 249.65625 L 142.648438 257.46875 C 142.648438 261.203125 145.6875 264.238281 149.421875 264.238281 C 152.167969 264.238281 153.25 266.339844 153.515625 266.980469 C 153.78125 267.625 154.5 269.875 152.558594 271.816406 C 151.28125 273.09375 150.578125 274.792969 150.578125 276.605469 C 150.578125 278.414062 151.28125 280.113281 152.558594 281.390625 L 158.082031 286.914062 C 160.722656 289.554688 165.019531 289.554688 167.660156 286.914062 C 169.605469 284.96875 171.851562 285.6875 172.496094 285.953125 C 173.140625 286.21875 175.234375 287.300781 175.234375 290.050781 C 175.234375 293.785156 178.273438 296.824219 182.007812 296.824219 L 189.820312 296.824219 C 193.550781 296.824219 196.589844 293.785156 196.589844 290.050781 C 196.589844 287.308594 198.6875 286.226562 199.332031 285.960938 C 199.976562 285.691406 202.226562 284.972656 204.167969 286.914062 C 205.445312 288.195312 207.144531 288.898438 208.953125 288.898438 C 210.761719 288.898438 212.464844 288.195312 213.742188 286.914062 L 219.265625 281.390625 C 220.546875 280.113281 221.25 278.410156 221.25 276.601562 C 221.25 274.792969 220.546875 273.09375 219.265625 271.816406 C 217.324219 269.875 218.042969 267.625 218.308594 266.980469 C 218.578125 266.339844 219.660156 264.238281 222.402344 264.238281 C 226.136719 264.238281 229.175781 261.203125 229.175781 257.46875 L 229.175781 249.65625 C 229.175781 245.921875 226.136719 242.886719 222.402344 242.886719 Z M 220.761719 255.925781 C 216.183594 256.488281 212.351562 259.382812 210.535156 263.761719 C 208.722656 268.140625 209.386719 272.898438 212.226562 276.535156 L 208.882812 279.878906 C 205.25 277.035156 200.492188 276.371094 196.113281 278.1875 C 191.730469 280.003906 188.835938 283.832031 188.277344 288.414062 L 183.546875 288.414062 C 182.988281 283.828125 180.09375 279.996094 175.714844 278.179688 C 171.335938 276.367188 166.578125 277.03125 162.941406 279.878906 L 159.597656 276.53125 C 162.4375 272.902344 163.101562 268.144531 161.289062 263.761719 C 159.472656 259.382812 155.640625 256.488281 151.0625 255.925781 L 151.0625 251.199219 C 155.640625 250.636719 159.472656 247.742188 161.289062 243.363281 C 163.101562 238.984375 162.4375 234.226562 159.597656 230.59375 L 162.941406 227.25 C 166.574219 230.089844 171.332031 230.753906 175.710938 228.9375 C 180.09375 227.125 182.988281 223.292969 183.546875 218.714844 L 188.277344 218.714844 C 188.835938 223.292969 191.730469 227.125 196.113281 228.9375 C 200.492188 230.753906 205.25 230.089844 208.882812 227.25 L 212.226562 230.59375 C 209.386719 234.226562 208.722656 238.984375 210.539062 243.363281 C 212.351562 247.742188 216.183594 250.636719 220.761719 251.199219 Z M 286.664062 242.0625 C 286.664062 234.785156 281.648438 228.867188 275.484375 228.867188 C 269.316406 228.867188 264.300781 234.785156 264.300781 242.0625 C 264.300781 249.335938 269.316406 255.257812 275.484375 255.257812 C 281.648438 255.257812 286.664062 249.335938 286.664062 242.0625 Z M 272.714844 242.0625 C 272.714844 239.367188 274.203125 237.277344 275.480469 237.277344 C 276.761719 237.277344 278.25 239.367188 278.25 242.0625 C 278.25 244.753906 276.761719 246.84375 275.480469 246.84375 C 274.203125 246.84375 272.714844 244.753906 272.714844 242.0625 Z M 80.761719 210.300781 C 56.90625 210.300781 37.5 229.707031 37.5 253.5625 C 37.5 277.417969 56.90625 296.824219 80.761719 296.824219 C 104.617188 296.824219 124.023438 277.417969 124.023438 253.5625 C 124.023438 229.707031 104.617188 210.300781 80.761719 210.300781 Z M 80.761719 288.414062 C 72.859375 288.414062 65.566406 285.765625 59.714844 281.316406 C 65.050781 275.382812 72.675781 271.929688 80.761719 271.929688 C 88.847656 271.929688 96.476562 275.382812 101.808594 281.3125 C 95.957031 285.765625 88.664062 288.414062 80.761719 288.414062 Z M 107.847656 275.457031 C 100.941406 267.90625 91.144531 263.515625 80.761719 263.515625 C 70.378906 263.515625 60.582031 267.90625 53.675781 275.457031 C 48.824219 269.46875 45.910156 261.851562 45.910156 253.5625 C 45.910156 234.347656 61.546875 218.710938 80.761719 218.710938 C 99.976562 218.710938 115.613281 234.347656 115.613281 253.5625 C 115.613281 261.851562 112.699219 269.46875 107.847656 275.457031 Z M 185.914062 230.269531 C 173.070312 230.269531 162.621094 240.71875 162.621094 253.5625 C 162.621094 266.40625 173.070312 276.855469 185.914062 276.855469 C 198.753906 276.855469 209.203125 266.40625 209.203125 253.5625 C 209.203125 240.71875 198.753906 230.269531 185.914062 230.269531 Z M 185.914062 268.441406 C 177.707031 268.441406 171.03125 261.769531 171.03125 253.5625 C 171.03125 245.355469 177.707031 238.683594 185.914062 238.683594 C 194.117188 238.683594 200.792969 245.355469 200.792969 253.5625 C 200.792969 261.769531 194.117188 268.441406 185.914062 268.441406 Z M 80.761719 224.816406 C 70.160156 224.816406 61.535156 233.441406 61.535156 244.042969 C 61.535156 254.644531 70.160156 263.269531 80.761719 263.269531 C 91.367188 263.269531 99.992188 254.644531 99.992188 244.042969 C 99.992188 233.441406 91.367188 224.816406 80.761719 224.816406 Z M 80.761719 254.859375 C 74.796875 254.859375 69.945312 250.007812 69.945312 244.042969 C 69.945312 238.078125 74.800781 233.226562 80.761719 233.226562 C 86.726562 233.226562 91.578125 238.078125 91.578125 244.042969 C 91.578125 250.007812 86.726562 254.859375 80.761719 254.859375 Z M 84.5625 206.300781 L 109.953125 206.300781 C 112.273438 206.300781 114.15625 204.417969 114.15625 202.097656 C 114.15625 199.773438 112.273438 197.890625 109.953125 197.890625 L 94.859375 197.890625 L 167.003906 125.746094 C 171.699219 127.191406 176.625 128.113281 181.707031 128.441406 L 181.707031 191.941406 L 170.933594 181.167969 C 169.292969 179.527344 166.628906 179.527344 164.984375 181.167969 C 163.34375 182.8125 163.34375 185.472656 164.984375 187.117188 L 182.9375 205.070312 C 183.761719 205.890625 184.835938 206.300781 185.914062 206.300781 C 186.988281 206.300781 188.066406 205.890625 188.886719 205.070312 L 206.839844 187.117188 C 208.480469 185.472656 208.480469 182.8125 206.839844 181.167969 C 205.199219 179.527344 202.535156 179.527344 200.890625 181.167969 L 190.117188 191.941406 L 190.117188 128.441406 C 195.199219 128.113281 200.125 127.191406 204.820312 125.746094 L 276.964844 197.890625 L 261.871094 197.890625 C 259.550781 197.890625 257.667969 199.773438 257.667969 202.097656 C 257.667969 204.417969 259.550781 206.300781 261.871094 206.300781 L 287.261719 206.300781 C 289.582031 206.300781 291.464844 204.417969 291.464844 202.097656 L 291.464844 176.707031 C 291.464844 174.382812 289.582031 172.5 287.261719 172.5 C 284.9375 172.5 283.054688 174.382812 283.054688 176.707031 L 283.054688 192.082031 L 213.382812 122.410156 C 235.128906 112.089844 250.203125 89.917969 250.203125 64.292969 C 250.203125 28.839844 221.363281 0 185.914062 0 C 150.460938 0 121.621094 28.839844 121.621094 64.292969 C 121.621094 89.917969 136.695312 112.089844 158.441406 122.410156 L 88.769531 192.082031 L 88.769531 176.707031 C 88.769531 174.382812 86.886719 172.5 84.5625 172.5 C 82.242188 172.5 80.359375 174.382812 80.359375 176.707031 L 80.359375 202.097656 C 80.359375 204.417969 82.242188 206.300781 84.5625 206.300781 Z M 283.054688 197.339844 L 283.054688 197.890625 L 282.503906 197.890625 Z M 130.03125 64.292969 C 130.03125 33.480469 155.101562 8.410156 185.914062 8.410156 C 216.722656 8.410156 241.792969 33.480469 241.792969 64.292969 C 241.792969 95.105469 216.722656 120.171875 185.914062 120.171875 C 155.101562 120.171875 130.03125 95.105469 130.03125 64.292969 Z M 88.769531 197.339844 L 89.320312 197.890625 L 88.769531 197.890625 Z M 308.429688 231.894531 L 280.980469 279.4375 C 280.203125 280.785156 278.789062 281.539062 277.335938 281.539062 C 276.621094 281.539062 275.898438 281.359375 275.234375 280.976562 C 273.222656 279.816406 272.535156 277.242188 273.695312 275.230469 L 301.144531 227.6875 C 302.304688 225.675781 304.878906 224.988281 306.890625 226.148438 C 308.902344 227.308594 309.589844 229.882812 308.429688 231.894531 Z M 308.429688 231.894531 " fill-opacity="1" fill-rule="nonzero"/></g></svg>