<svg xmlns="http://www.w3.org/2000/svg" xmlns:xlink="http://www.w3.org/1999/xlink" width="1024" zoomAndPan="magnify" viewBox="0 0 768 767.999994" height="1024" preserveAspectRatio="xMidYMid meet" version="1.0"><defs><clipPath id="89b1cf11e7"><path d="M 530 584 L 745.558594 584 L 745.558594 764 L 530 764 Z M 530 584 " clip-rule="nonzero"/></clipPath><clipPath id="f3bf6446ed"><path d="M 530 388 L 745.558594 388 L 745.558594 568 L 530 568 Z M 530 388 " clip-rule="nonzero"/></clipPath></defs><path fill="#ffffff" d="M 345.140625 339.417969 C 349.527344 343.625 355.257812 346.144531 361.328125 346.539062 L 484.800781 354.519531 C 485.363281 354.558594 485.925781 354.574219 486.484375 354.574219 C 499.964844 354.574219 511.308594 344.097656 512.191406 330.453125 C 513.109375 316.246094 502.332031 303.980469 488.121094 303.0625 L 374.046875 295.6875 L 366.355469 288.3125 L 338.507812 333.050781 Z M 345.140625 339.417969 " fill-opacity="1" fill-rule="nonzero"/><path fill="#ffffff" d="M 421.839844 664.136719 L 413.363281 670.535156 L 405.453125 664.136719 L 396.410156 670.535156 L 387.554688 664.136719 L 381.464844 670.535156 L 381.464844 584.640625 L 298.835938 584.640625 L 298.835938 763.394531 L 513.824219 763.394531 L 513.824219 584.640625 L 431.195312 584.640625 L 431.195312 670.535156 Z M 421.839844 664.136719 " fill-opacity="1" fill-rule="nonzero"/><g clip-path="url(#89b1cf11e7)"><path fill="#ffffff" d="M 662.464844 670.535156 L 653.109375 664.136719 L 644.632812 670.535156 L 636.722656 664.136719 L 627.679688 670.535156 L 618.828125 664.136719 L 612.738281 670.535156 L 612.738281 584.640625 L 530.109375 584.640625 L 530.109375 763.394531 L 745.09375 763.394531 L 745.09375 584.640625 L 662.464844 584.640625 Z M 662.464844 670.535156 " fill-opacity="1" fill-rule="nonzero"/></g><path fill="#ffffff" d="M 513.824219 388.332031 L 431.195312 388.332031 L 431.195312 474.226562 L 421.839844 467.824219 L 413.363281 474.226562 L 405.453125 467.824219 L 396.410156 474.226562 L 387.554688 467.824219 L 381.464844 474.226562 L 381.464844 388.332031 L 298.835938 388.332031 L 298.835938 567.082031 L 513.824219 567.082031 Z M 513.824219 388.332031 " fill-opacity="1" fill-rule="nonzero"/><g clip-path="url(#f3bf6446ed)"><path fill="#ffffff" d="M 662.464844 474.226562 L 653.109375 467.824219 L 644.632812 474.226562 L 636.722656 467.824219 L 627.679688 474.226562 L 618.828125 467.824219 L 612.738281 474.226562 L 612.738281 388.332031 L 530.109375 388.332031 L 530.109375 567.082031 L 745.09375 567.082031 L 745.09375 388.332031 L 662.464844 388.332031 Z M 662.464844 474.226562 " fill-opacity="1" fill-rule="nonzero"/></g><path fill="#ffffff" d="M 218.472656 7.902344 C 179.222656 -0.0429688 140.957031 25.332031 133.011719 64.585938 C 125.0625 103.835938 150.445312 142.097656 189.695312 150.046875 C 228.949219 157.992188 267.207031 132.613281 275.15625 93.363281 C 283.101562 54.109375 257.726562 15.847656 218.472656 7.902344 Z M 218.472656 7.902344 " fill-opacity="1" fill-rule="nonzero"/><path fill="#ffffff" d="M 225.1875 728.019531 L 225.1875 414.023438 L 241.132812 335.265625 L 204.75 321.613281 C 203.835938 321.269531 202.964844 320.851562 202.117188 320.398438 L 64.121094 331.039062 L 51.941406 391.195312 C 51.699219 392.40625 51.578125 393.609375 51.511719 394.808594 C 51.105469 397.085938 50.859375 399.417969 50.859375 401.808594 L 50.859375 728.019531 C 50.859375 750.03125 68.703125 767.867188 90.703125 767.867188 C 112.710938 767.867188 130.554688 750.03125 130.554688 728.019531 L 130.554688 432.523438 L 145.492188 435.546875 L 145.492188 728.019531 C 145.492188 750.03125 163.335938 767.867188 185.335938 767.867188 C 207.34375 767.867188 225.1875 750.03125 225.1875 728.019531 Z M 225.1875 728.019531 " fill-opacity="1" fill-rule="nonzero"/><path fill="#ffffff" d="M 309.175781 352.878906 C 313.070312 354.339844 317.453125 352.851562 319.648438 349.320312 L 402.792969 215.746094 C 405.703125 211.066406 403.609375 204.894531 398.449219 202.960938 L 294.523438 163.964844 C 288.125 161.5625 280.917969 164.011719 277.308594 169.8125 L 226.179688 251.957031 L 260.125 249.339844 C 260.996094 249.273438 261.855469 249.238281 262.710938 249.238281 C 279.929688 249.238281 294.453125 262.699219 295.777344 279.886719 C 296.457031 288.722656 293.65625 297.300781 287.886719 304.035156 C 282.121094 310.769531 274.070312 314.851562 265.230469 315.535156 L 219.117188 319.089844 Z M 286.746094 184.957031 C 288.691406 181.585938 292.941406 180.402344 296.238281 182.304688 C 299.539062 184.210938 300.636719 188.484375 298.691406 191.851562 C 296.746094 195.21875 292.496094 196.40625 289.195312 194.503906 C 285.898438 192.597656 284.800781 188.324219 286.746094 184.957031 Z M 286.746094 184.957031 " fill-opacity="1" fill-rule="nonzero"/><path fill="#ffffff" d="M 30.230469 315.238281 C 35.148438 321.195312 42.449219 324.605469 50.105469 324.605469 C 50.769531 324.605469 51.429688 324.582031 52.09375 324.53125 L 264.660156 308.144531 C 278.859375 307.046875 289.480469 294.652344 288.386719 280.453125 C 287.292969 266.257812 274.96875 255.636719 260.695312 256.730469 L 85.957031 270.203125 C 92.265625 252.332031 98.242188 239.429688 103.46875 230.109375 L 111.144531 231.5625 C 106.980469 238.695312 102.148438 248.5 96.925781 261.921875 L 217.003906 252.664062 L 258.621094 185.804688 C 258.144531 185.515625 257.660156 185.246094 257.171875 184.988281 C 254.277344 182.789062 250.875 181.167969 247.070312 180.398438 L 125.035156 155.691406 C 122.449219 155.167969 119.875 155.074219 117.386719 155.34375 C 101.566406 156.03125 75.984375 167.058594 50.847656 220.148438 C 42.117188 238.585938 33.441406 262.085938 25.242188 292.011719 C 23.027344 300.105469 24.886719 308.769531 30.230469 315.238281 Z M 30.230469 315.238281 " fill-opacity="1" fill-rule="nonzero"/></svg>